<?xml version="1.0" standalone="no"?>
<!DOCTYPE svg PUBLIC "-//W3C//DTD SVG 1.1//EN" "http://www.w3.org/Graphics/SVG/1.1/DTD/svg11.dtd" >
<svg xmlns="http://www.w3.org/2000/svg" xmlns:xlink="http://www.w3.org/1999/xlink" version="1.1">
<metadata>
Created by FontForge 20160407 at Fri May 27 12:26:03 2016
 By Jimmy Wärting
Nikosh font developed by The Election Commission of Bangladesh. Latin glyphs Incorporated are from modified DejaVu font project's DejaVu Serif. 
Bangla Glyps design by: Jowad Kazi
Core Developers: Jowad Kazi, Omi Azad, Mozammel Sarker                                

NikoshBangla font is being Released under Creative Common License (CCL).
http://creativecommons.org/licenses/by-nc-nd/3.0/
</metadata>
<defs>
<font id="Nikosh" horiz-adv-x="527" >
  <font-face 
    font-family="Nikosh"
    font-weight="400"
    font-stretch="normal"
    units-per-em="1024"
    panose-1="2 0 0 0 0 0 0 0 0 0"
    ascent="819"
    descent="-205"
    x-height="532"
    cap-height="747"
    bbox="-489 -283 1128 1064"
    underline-thickness="50"
    underline-position="-137"
    unicode-range="U+0020-F002"
  />
<missing-glyph horiz-adv-x="491" 
d="M35 -133v693h399v-693h-399zM89 -80h291v586h-291v-586z" />
    <glyph glyph-name=".notdef" horiz-adv-x="491" 
d="M35 -133v693h399v-693h-399zM89 -80h291v586h-291v-586z" />
    <glyph glyph-name="NULL" horiz-adv-x="0" 
 />
    <glyph glyph-name="nonmarkingreturn" horiz-adv-x="145" 
 />
    <glyph glyph-name="space" unicode=" " horiz-adv-x="250" 
 />
    <glyph glyph-name="exclam" unicode="!" horiz-adv-x="298" 
d="M190 165h-27l-33 318q-2 8 -2 15.5v12.5v4q0 28 14 44t34 16t34.5 -16t14.5 -48v-6.5t-1 -9.5q0 -2 -0.5 -6t-0.5 -6zM176 110q20 0 33.5 -13.5t13.5 -33.5q0 -21 -13.5 -34.5t-33.5 -13.5t-34 13.5t-14 34.5q0 20 14 33.5t34 13.5z" />
    <glyph glyph-name="quotedbl" unicode="&#x22;" horiz-adv-x="343" 
d="M235 437l-33 179q-1 5 -1 10.5v11.5q0 29 13 42.5t35 13.5q20 0 33.5 -14t13.5 -37v-9l-2 -34t-6 -35l-25 -128h-28zM90 437l-23 129q-5 25 -7.5 43t-2.5 29q0 29 12.5 42.5t33.5 13.5q20 0 33.5 -14t13.5 -37q0 -8 -2 -22.5t-6 -37.5l-3 -18l-24 -128h-25z" />
    <glyph glyph-name="numbersign" unicode="#" horiz-adv-x="609" 
d="M368 342h-97l-29 -115h96zM326 566l-38 -156h95l40 156h75l-40 -156h114v-68h-131l-28 -115h117v-68h-134l-39 -155h-74l39 155h-97l-39 -155h-73l37 155h-114v68h132l29 115h-118v68h135l39 156h73z" />
    <glyph glyph-name="dollar" unicode="$" horiz-adv-x="490" 
d="M259 59q35 5 56 24.5t21 51.5q0 29 -20 49.5t-57 32.5v-158zM212 470q-33 -5 -52.5 -23.5t-19.5 -47.5q0 -54 72 -76v147zM56 164h50q2 -102 106 -105v173q-44 12 -74 26t-48.5 31t-26.5 38t-8 48q0 63 41.5 99t115.5 42v102h47v-101q35 -3 72 -12.5t69 -25.5v-107h-51
q-3 42 -27.5 67.5t-62.5 30.5v-161q46 -14 78 -28.5t51.5 -32t28 -39t8.5 -49.5q0 -63 -44 -101t-122 -46v-103h-47v102q-38 1 -77 10.5t-79 29.5v112z" />
    <glyph glyph-name="percent" unicode="%" horiz-adv-x="828" 
d="M202 540q-31 0 -48 -29.5t-17 -83.5t17.5 -84.5t47.5 -30.5t47 30.5t17 84.5t-17 83.5t-47 29.5zM588 265q-30 0 -47 -30t-17 -85q0 -54 17 -83.5t47 -29.5q31 0 48 29.5t17 83.5t-17 84.5t-48 30.5zM588 309q62 0 98.5 -43t36.5 -116q0 -72 -36.5 -115t-98.5 -43t-98 43
t-36 115q0 73 36 116t98 43zM540 585h68l-357 -593h-69zM201 585q62 0 98.5 -42.5t36.5 -114.5q0 -74 -35.5 -116t-99.5 -42q-62 0 -98.5 42.5t-36.5 115.5q0 72 36.5 114.5t98.5 42.5z" />
    <glyph glyph-name="ampersand" unicode="&#x26;" horiz-adv-x="672" 
d="M184 319q-61 -55 -61 -129q0 -31 11.5 -57t31.5 -45t46.5 -29.5t57.5 -10.5q72 0 126 48zM641 4h-159l-49 52q-42 -32 -85 -48t-96 -16q-100 0 -158 51t-58 139q0 100 114 176q-35 45 -35 92q0 62 44.5 98.5t120.5 36.5q26 0 60.5 -6.5t80.5 -20.5v-105h-51
q-6 39 -29 60.5t-62 21.5q-36 0 -59.5 -20t-23.5 -51q0 -12 2.5 -22t10 -22t20 -27.5t33.5 -37.5l190 -200q46 55 55 127h-69v50h189v-50h-65q-6 -49 -25 -89.5t-48 -75.5l60 -63h92v-50z" />
    <glyph glyph-name="quotesingle" unicode="'" horiz-adv-x="158" 
d="M67 437l-24 129q-10 46 -10 72q0 29 13 42.5t33 13.5t34.5 -14t14.5 -38l-3 -21q-1 -11 -2.5 -25t-5.5 -31q-5 -30 -11.5 -64t-11.5 -64h-27z" />
    <glyph glyph-name="parenleft" unicode="(" horiz-adv-x="273" 
d="M228 -119q-194 88 -194 360q0 273 194 360v-47q-29 -21 -49.5 -47.5t-33.5 -64t-19 -86.5t-6 -115q0 -65 6 -114t18.5 -86t33 -64t50.5 -48v-48z" />
    <glyph glyph-name="parenright" unicode=")" horiz-adv-x="298" 
d="M50 -71q30 20 51 47t33.5 64.5t18.5 86.5t6 114q0 66 -6 115.5t-19.5 87t-34 64t-49.5 46.5v47q195 -87 195 -360q0 -272 -195 -360v48z" />
    <glyph glyph-name="asterisk" unicode="*" horiz-adv-x="477" 
d="M192 448q17 -21 38 -36q-2 16 -6.5 35t-9.5 34q-4 12 -6.5 22t-2.5 15q0 24 12 36.5t29 12.5q15 0 26 -12.5t11 -36.5q0 -9 -3 -23t-8 -29q-4 -13 -7.5 -26.5t-5.5 -25.5q8 7 17 14.5t15 13.5q29 32 45 41.5t30 9.5q17 0 27 -11t10 -25q0 -8 -2 -15.5t-10.5 -14.5
t-26 -14t-48.5 -14q-11 -2 -22 -5t-21 -6q17 -7 43 -12q53 -11 69.5 -25.5t16.5 -33.5q0 -14 -10.5 -25t-25.5 -11q-13 0 -30 9t-44 41q-14 17 -33 33q2 -17 6.5 -37.5t9.5 -37.5q3 -12 5.5 -21t2.5 -14q0 -20 -11.5 -33t-25.5 -13t-27.5 10t-13.5 36q0 14 6 35t11 37
q1 5 2.5 8t1.5 8l4 21q-18 -13 -32.5 -27t-25.5 -25q-14 -14 -24 -22t-24 -8q-17 0 -28 11t-11 25q0 12 3 19t10 12.5t19.5 9.5t31.5 10q15 5 28 9t37 13q-20 8 -38 13t-32 8q-29 7 -44 14.5t-15 33.5q0 14 10.5 24.5t24.5 10.5q16 0 32 -10t40 -36z" />
    <glyph glyph-name="plus" unicode="+" horiz-adv-x="644" 
d="M355 496v-211h211v-70h-211v-211h-70v211h-211v70h211v211h70z" />
    <glyph glyph-name="comma" unicode="," horiz-adv-x="213" 
d="M33 -92q45 14 68.5 42.5t23.5 61.5q0 12 -5 12q-3 0 -6 -1l-14 -7t-16 -4q-23 0 -37 13.5t-14 37.5q0 23 17.5 39t42.5 16q29 0 52.5 -25t23.5 -69q0 -45 -32.5 -84t-103.5 -61v29z" />
    <glyph glyph-name="hyphen" unicode="-" horiz-adv-x="303" 
d="M54 269h203v-69h-203v69z" />
    <glyph glyph-name="period" unicode="." horiz-adv-x="253" 
d="M69 48q0 23 15 39.5t40 16.5q23 0 38.5 -16.5t15.5 -39.5t-15.5 -39.5t-38.5 -16.5q-25 0 -40 16.5t-15 39.5z" />
    <glyph glyph-name="slash" unicode="/" horiz-adv-x="263" 
d="M197 574h71l-202 -641h-71z" />
    <glyph glyph-name="zero" unicode="0" horiz-adv-x="638" 
d="M321 48q145 0 145 324q0 325 -145 325q-143 0 -143 -325q0 -324 143 -324zM321 -11q-60 0 -107.5 26t-81 75t-51 120.5t-17.5 161.5q0 91 17.5 162t51 120.5t81 75.5t107.5 26q61 0 108.5 -26t80.5 -75.5t50.5 -120.5t17.5 -162q0 -90 -17.5 -161.5t-50.5 -120.5
t-80.5 -75t-108.5 -26z" />
    <glyph glyph-name="one" unicode="1" horiz-adv-x="618" 
d="M140 4v61h127v593q-35 -23 -73 -48t-73 -48v76l181 118h74v-691h127v-61h-363z" />
    <glyph glyph-name="two" unicode="2" horiz-adv-x="613" 
d="M72 558v137q114 61 214 61q56 0 102 -14.5t79 -41.5t51 -66t18 -88q0 -109 -151 -260l-192 -192h286v90h67v-180h-480v61l223 221q72 72 103 133t31 127q0 71 -36.5 111t-102.5 40q-135 0 -148 -139h-64z" />
    <glyph glyph-name="three" unicode="3" horiz-adv-x="631" 
d="M96 711q60 22 112 33.5t100 11.5q112 0 172.5 -47.5t60.5 -132.5q0 -63 -35.5 -106t-105.5 -63q85 -16 127.5 -67.5t42.5 -134.5q0 -106 -67.5 -161t-202.5 -55q-60 0 -115.5 12.5t-109.5 38.5v150h65q9 -142 162 -142q72 0 114 41t42 115q0 84 -43 127t-127 43h-52v59
h29q166 0 166 137q0 63 -33.5 95t-96.5 32q-128 0 -141 -124h-64v138z" />
    <glyph glyph-name="four" unicode="4" horiz-adv-x="643" 
d="M347 261v366l-235 -366h235zM572 4h-342v61h117v133h-318v60l321 498h105v-495h139v-63h-139v-133h117v-61z" />
    <glyph glyph-name="five" unicode="5" horiz-adv-x="616" 
d="M512 742v-90h-334v-194q51 30 130 30q60 0 108 -17.5t81.5 -49.5t51.5 -78t18 -104q0 -118 -68 -184t-199 -66q-53 0 -106 12.5t-110 38.5v150h64q11 -142 152 -142q75 0 115 49t40 142t-40 142.5t-115 49.5q-85 0 -135 -65h-49v376h396z" />
    <glyph glyph-name="six" unicode="6" horiz-adv-x="626" 
d="M331 48q66 0 102 48.5t36 141.5t-36 142.5t-102 49.5q-139 0 -139 -186q0 -96 35 -146t104 -50zM360 697q-91 0 -136 -66.5t-47 -208.5q65 65 165 65q55 0 99.5 -17.5t75.5 -49.5t48 -78.5t17 -103.5q0 -56 -18.5 -101.5t-52 -78.5t-80.5 -51t-104 -18q-131 0 -196.5 91
t-65.5 270q0 96 20.5 171.5t59.5 127.5t96 79.5t130 27.5q81 0 173 -31v-128h-66q-12 100 -118 100z" />
    <glyph glyph-name="seven" unicode="7" horiz-adv-x="638" 
d="M572 685l-286 -681h-84l271 648h-324v-90h-66v180h489v-57z" />
    <glyph glyph-name="eight" unicode="8" horiz-adv-x="636" 
d="M465 208q0 78 -37.5 118.5t-106.5 40.5t-105.5 -40.5t-36.5 -118.5q0 -77 36.5 -118.5t105.5 -41.5t106.5 41.5t37.5 118.5zM444 561q0 66 -31.5 101t-91.5 35q-57 0 -90 -35t-33 -101t33 -100.5t90 -34.5q60 0 91.5 34.5t31.5 100.5zM553 561q0 -64 -33.5 -105.5
t-97.5 -59.5q74 -16 114.5 -65t40.5 -123q0 -106 -64.5 -162.5t-191.5 -56.5q-126 0 -191 56.5t-65 162.5q0 73 40.5 122t117.5 66q-61 19 -97 61t-36 104q0 91 61 143t170 52t170.5 -52t61.5 -143z" />
    <glyph glyph-name="nine" unicode="9" horiz-adv-x="651" 
d="M282 48q91 0 135.5 66t48.5 208q-65 -64 -165 -64q-56 0 -100 17t-75.5 49.5t-48 78.5t-16.5 104q0 56 18.5 102t52.5 78.5t80.5 50.5t103.5 18q131 0 196 -91t65 -270q0 -96 -20.5 -171.5t-59.5 -127.5t-95.5 -79.5t-129.5 -27.5q-38 0 -81.5 7.5t-90.5 23.5v129h63
q7 -50 37.5 -75.5t81.5 -25.5zM312 697q-68 0 -102.5 -48.5t-34.5 -141.5t34.5 -142.5t102.5 -49.5q139 0 139 186q0 96 -35 146t-104 50z" />
    <glyph glyph-name="colon" unicode=":" horiz-adv-x="250" 
d="M89 100q0 23 16 39t39 16t38.5 -16t15.5 -39q0 -24 -15.5 -40t-38.5 -16q-25 0 -40 16t-15 40zM89 379q0 23 16 38.5t39 15.5t38.5 -15.5t15.5 -38.5t-15.5 -39.5t-38.5 -16.5t-39 16.5t-16 39.5z" />
    <glyph glyph-name="semicolon" unicode=";" horiz-adv-x="306" 
d="M108 -73q44 12 67.5 41t23.5 62q0 12 -6 12l-4 -2q-6 -3 -14.5 -6.5t-16.5 -3.5q-23 0 -36.5 14t-13.5 37t16.5 39.5t42.5 16.5q31 0 53.5 -25t22.5 -69q0 -45 -32.5 -84t-102.5 -62v30zM108 375q0 23 16 39t39 16t38.5 -16t15.5 -39t-15.5 -39.5t-38.5 -16.5t-39 16.5
t-16 39.5z" />
    <glyph glyph-name="less" unicode="&#x3c;" horiz-adv-x="618" 
d="M566 389l-381 -140l381 -137v-76l-492 179v70l492 179v-75z" />
    <glyph glyph-name="equal" unicode="=" horiz-adv-x="639" 
d="M74 362h492v-70h-492v70zM74 208h492v-69h-492v69z" />
    <glyph glyph-name="greater" unicode="&#x3e;" horiz-adv-x="638" 
d="M74 389v75l492 -179v-70l-492 -179v76l381 137z" />
    <glyph glyph-name="question" unicode="?" horiz-adv-x="500" 
d="M243 167q1 30 4 51.5t9 41.5t17 42.5t28 55.5q11 23 18.5 40t12 30.5t6.5 26t2 26.5q0 51 -27 81.5t-67 30.5q-34 0 -53.5 -16t-19.5 -34q0 -6 4.5 -17t9.5 -22t8 -19t3 -15q0 -17 -10.5 -29t-27.5 -12q-20 0 -36 18.5t-16 53.5q0 24 11 46.5t31 40.5t49.5 28.5
t65.5 10.5q38 0 68 -11.5t51 -30.5t32.5 -44t11.5 -53q0 -29 -14 -62.5t-53 -78.5q-31 -35 -48.5 -56.5t-26.5 -39.5t-11.5 -37t-3.5 -47h-28zM260 124q22 0 37 -14.5t15 -37.5q0 -22 -15 -36.5t-37 -14.5t-37 14.5t-15 36.5q0 23 15 37.5t37 14.5z" />
    <glyph glyph-name="at" unicode="@" horiz-adv-x="1030" 
d="M641 115q-29 -37 -62.5 -53t-79.5 -16q-44 0 -80 16.5t-61.5 46t-40 70.5t-14.5 91q0 51 14.5 92.5t40.5 71t62 45.5t79 16q86 0 142 -69v59h86v-376q78 20 121.5 79.5t43.5 147.5q0 70 -29 129t-77.5 101.5t-112 66t-131.5 23.5q-84 0 -153 -29t-118.5 -80.5
t-76.5 -121.5t-27 -152q0 -89 29 -159.5t79.5 -120t119 -76t146.5 -26.5q127 0 221 76l31 -42q-55 -49 -123 -72t-149 -23q-94 0 -175.5 34t-142 94t-95 141t-34.5 174t35 174t96.5 141.5t145 95t181.5 34.5q85 0 160.5 -29t132 -80t89.5 -121t33 -153q0 -66 -21 -119
t-61 -90.5t-96.5 -58t-127.5 -21.5v69zM641 297q0 60 -33.5 96t-87.5 36q-58 0 -89 -42t-31 -117t31.5 -116.5t89.5 -41.5q54 0 87 37t33 96v52z" />
    <glyph glyph-name="A" unicode="A" horiz-adv-x="746" 
d="M217 279h256q-32 85 -63.5 164t-64.5 164zM-2 4v62h65l262 681h90l262 -681h73v-62h-276v62h79l-58 151h-301l-57 -151h78v-62h-217z" />
    <glyph glyph-name="B" unicode="B" horiz-adv-x="719" 
d="M257 66h141q88 0 126.5 37t38.5 118t-38.5 118t-126.5 37h-141v-310zM257 437h120q78 0 113.5 29.5t35.5 94.5q0 66 -35.5 95t-113.5 29h-120v-248zM53 4v62h94v619h-94v62h368q228 0 228 -186q0 -123 -128 -152q81 -17 123 -65t42 -123q0 -112 -69.5 -164.5
t-219.5 -52.5h-344zM257 66h141q88 0 126.5 37t38.5 118t-38.5 118t-126.5 37h-141v-310zM257 437h120q78 0 113.5 29.5t35.5 94.5q0 66 -35.5 95t-113.5 29h-120v-248zM53 4v62h94v619h-94v62h368q228 0 228 -186q0 -123 -128 -152q81 -17 123 -65t42 -123
q0 -112 -69.5 -164.5t-219.5 -52.5h-344z" />
    <glyph glyph-name="C" unicode="C" horiz-adv-x="769" 
d="M720 207q-69 -218 -310 -218q-79 0 -144.5 30t-112.5 82t-73 122.5t-26 151.5q0 87 26 158t74 121.5t115 78.5t150 28q118 0 278 -65v-178h-64q-18 92 -71 136t-152 44q-233 0 -233 -323t233 -323q161 0 209 155h101z" />
    <glyph glyph-name="D" unicode="D" horiz-adv-x="817" 
d="M257 66h87q145 0 218 78t73 233q0 308 -291 308h-87v-619zM54 4v62h93v619h-93v62h296q95 0 170.5 -25t128 -72.5t80.5 -116.5t28 -156q0 -88 -27.5 -157t-80 -117t-128 -73.5t-171.5 -25.5h-296z" />
    <glyph glyph-name="E" unicode="E" horiz-adv-x="722" 
d="M53 4v62h94v619h-94v62h601v-173h-70v103h-327v-236h230v92h70v-254h-70v93h-230v-298h335v103h70v-173h-609z" />
    <glyph glyph-name="F" unicode="F" horiz-adv-x="706" 
d="M53 4v62h94v619h-94v62h611v-173h-70v103h-337v-236h240v92h70v-254h-70v93h-240v-306h117v-62h-321z" />
    <glyph glyph-name="G" unicode="G" horiz-adv-x="790" 
d="M643 518q-17 93 -69.5 136.5t-149.5 43.5q-247 0 -247 -323t249 -323q106 0 198 53v181h-139v63h248v-281q-140 -79 -307 -79q-84 0 -152.5 28t-117 78.5t-75 121.5t-26.5 158q0 88 26.5 159t75.5 121.5t118 78t155 27.5q63 0 131 -15t146 -45v-183h-64z" />
    <glyph glyph-name="H" unicode="H" horiz-adv-x="799" 
d="M8 4v62h94v619h-94v62h297v-62h-93v-244h370v244h-93v62h296v-62h-94v-619h94v-62h-296v62h93v306h-370v-306h93v-62h-297z" />
    <glyph glyph-name="I" unicode="I" horiz-adv-x="399" 
d="M255 66h94v-62h-297v62h93v619h-93v62h297v-62h-94v-619z" />
    <glyph glyph-name="J" unicode="J" horiz-adv-x="389" 
d="M-88 -47h66q1 -96 82 -96q28 0 47 7.5t31 27.5t17 54t5 87v652h-114v62h317v-62h-93v-656q0 -62 -12 -106.5t-37.5 -73t-65.5 -41.5t-96 -13q-36 0 -73.5 8t-73.5 26v124z" />
    <glyph glyph-name="K" unicode="K" horiz-adv-x="817" 
d="M54 4v62h93v619h-93v62h297v-62h-94v-262l298 262h-72v62h254v-62h-86l-308 -272l347 -347h85v-62h-178l-340 340v-278h94v-62h-297z" />
    <glyph glyph-name="L" unicode="L" horiz-adv-x="706" 
d="M53 4v62h94v619h-94v62h297v-62h-93v-611h325v123h70v-193h-599z" />
    <glyph glyph-name="M" unicode="M" horiz-adv-x="1042" 
d="M55 4v62h93v619h-98v62h221l254 -517q63 129 127.5 258.5t127.5 258.5h208v-62h-97v-619h93v-62h-296v62h93v542l-244 -497h-75l-243 496v-541h93v-62h-257z" />
    <glyph glyph-name="N" unicode="N" horiz-adv-x="876" 
d="M33 4v62h98v619h-98v62h195l433 -569v507h-98v62h267v-62h-99v-696h-66l-463 609v-532h99v-62h-268z" />
    <glyph glyph-name="O" unicode="O" horiz-adv-x="825" 
d="M416 52q238 0 238 323t-238 323t-238 -323t238 -323zM416 -11q-83 0 -149.5 30t-113.5 82t-72.5 122.5t-25.5 151.5t25.5 151.5t72.5 122.5t113.5 82t149.5 30q80 0 146.5 -28t114 -78.5t74 -121.5t26.5 -158q0 -83 -26 -153.5t-73 -122t-114 -81t-148 -29.5z" />
    <glyph glyph-name="P" unicode="P" horiz-adv-x="691" 
d="M257 387h124q72 0 108.5 38t36.5 111q0 149 -145 149h-124v-298zM53 4v62h94v619h-94v62h352q56 0 101 -15t77 -42.5t49 -66.5t17 -87t-17 -87.5t-49 -67t-77 -42.5t-101 -15h-148v-258h113v-62h-317z" />
    <glyph glyph-name="Q" unicode="Q" horiz-adv-x="828" 
d="M672 -157q-85 4 -147 40.5t-100 105.5q-86 0 -154.5 28t-116.5 78.5t-73.5 121.5t-25.5 158q0 81 25.5 151.5t72.5 122.5t113.5 82t149.5 30q80 0 146.5 -28t114 -78.5t74 -121.5t26.5 -158q0 -72 -19 -134t-54 -111t-85.5 -82t-114.5 -48q25 -25 63.5 -41t83.5 -16h21
v-100zM416 52q238 0 238 323t-238 323t-238 -323t238 -323z" />
    <glyph glyph-name="R" unicode="R" horiz-adv-x="781" 
d="M659 547q0 -148 -152 -176q28 -11 49 -33.5t38 -57.5h-1l105 -214h92v-62h-182l-115 236q-16 32 -30.5 52.5t-29.5 32t-32.5 16t-39.5 4.5h-104v-279h103v-62h-306v62h93v619h-93v62h377q110 0 169 -51.5t59 -148.5zM257 407h140q72 0 106 34t34 106t-34 105t-106 33
h-140v-278z" />
    <glyph glyph-name="S" unicode="S" horiz-adv-x="703" 
d="M92 216h65q3 -87 46.5 -125.5t137.5 -38.5q174 0 174 131q0 24 -6.5 43t-22 34t-42.5 28t-69 27l-98 29q-53 16 -90 35.5t-60 45t-33.5 58.5t-10.5 76q0 98 63 150t194 52q52 0 114.5 -11.5t132.5 -32.5v-166h-66q-8 78 -50.5 112.5t-128.5 34.5q-75 0 -114.5 -29.5
t-39.5 -89.5q0 -25 5.5 -43.5t22 -34t47.5 -29.5t81 -30l91 -27q96 -30 142 -78.5t46 -127.5q0 -220 -276 -220q-63 0 -126 12.5t-129 38.5v176z" />
    <glyph glyph-name="T" unicode="T" horiz-adv-x="688" 
d="M190 4v62h94v613h-206v-115h-70v183h661v-183h-70v115h-206v-613h93v-62h-296z" />
    <glyph glyph-name="U" unicode="U" horiz-adv-x="852" 
d="M131 685h-93v62h297v-62h-94v-374q0 -68 10.5 -115.5t34 -76.5t61.5 -42t93 -13q56 0 94 13t61.5 42t34 76.5t10.5 115.5v374h-94v62h258v-62h-94v-384q0 -85 -15 -144.5t-49 -96.5t-89 -54t-135 -17q-79 0 -134 17t-90 54t-51 96.5t-16 144.5v384z" />
    <glyph glyph-name="V" unicode="V" horiz-adv-x="769" 
d="M196 685q53 -140 104.5 -271.5t104.5 -270.5l209 542h-80v62h225v-62h-72l-262 -681h-92l-261 681h-74v62h278v-62h-80z" />
    <glyph glyph-name="W" unicode="W" horiz-adv-x="1067" 
d="M775 4h-88l-165 584l-164 -584h-88l-192 681h-73v62h277v-62h-90l147 -519q41 146 82 291t81 290h87l166 -587l147 525h-83v62h221v-62h-72z" />
    <glyph glyph-name="X" unicode="X" horiz-adv-x="733" 
d="M336 314l-170 -248h91v-62h-253v62h87l208 303l-211 316h-81v62h301v-62h-83l149 -223l152 223h-90v62h250v-62h-84l-192 -278l229 -341h81v-62h-301v62h82z" />
    <glyph glyph-name="Y" unicode="Y" horiz-adv-x="691" 
d="M196 4v62h94v257l-225 362h-71v62h283v-62h-80q44 -70 86.5 -141.5t86.5 -141.5l175 283h-79v62h223v-62h-72l-218 -352v-267h93v-62h-296z" />
    <glyph glyph-name="Z" unicode="Z" horiz-adv-x="691" 
d="M43 4v42l452 631h-364v-110h-71v180h590v-42l-452 -631h400v103h69v-173h-624z" />
    <glyph glyph-name="bracketleft" unicode="[" horiz-adv-x="273" 
d="M63 598h184v-49h-103v-597h103v-50h-184v696z" />
    <glyph glyph-name="backslash" unicode="\" horiz-adv-x="387" 
d="M125 574l202 -641h-71l-202 641h71z" />
    <glyph glyph-name="bracketright" unicode="]" horiz-adv-x="284" 
d="M240 598v-696h-184v50h103v597h-103v49h184z" />
    <glyph glyph-name="asciicircum" unicode="^" horiz-adv-x="640" 
d="M365 642l214 -218h-71l-182 142l-182 -142h-72l215 218h78z" />
    <glyph glyph-name="underscore" unicode="_" horiz-adv-x="394" 
d="M392 -139v-39h-395v39h395z" />
    <glyph glyph-name="grave" horiz-adv-x="407" 
d="M184 812l134 -193h-69l-174 193h109z" />
    <glyph glyph-name="a" unicode="a" horiz-adv-x="608" 
d="M396 276h-110q-128 0 -128 -112q0 -51 32 -81.5t86 -30.5t87 33t33 87v104zM496 65h80v-61h-180v47q-29 -29 -67.5 -45.5t-87.5 -16.5q-88 0 -140 47t-52 128q0 85 58.5 130t167.5 45h121v30q0 57 -34.5 88t-97.5 31q-105 0 -121 -96h-54v114l66 15l30 7l84 19
q227 0 227 -214v-268z" />
    <glyph glyph-name="b" unicode="b" horiz-adv-x="644" 
d="M114 65v647h-87v61h187v-310q27 45 65 64.5t98 19.5q48 0 89 -20.5t70 -57t45.5 -88t16.5 -112.5q0 -62 -16.5 -113t-45.5 -88.5t-69.5 -58t-89.5 -20.5q-57 0 -97 21t-66 63v-69h-187v61h87zM214 242q0 -186 134 -186q135 0 135 213q0 211 -135 211q-134 0 -134 -186
v-52z" />
    <glyph glyph-name="c" unicode="c" horiz-adv-x="569" 
d="M523 169q-20 -88 -75.5 -134t-143.5 -46q-58 0 -105 20t-80.5 56.5t-52 88t-18.5 115.5q0 63 18.5 114t52 87.5t80.5 56.5t105 20q100 0 201 -48v-142h-61q-10 69 -43 100t-96 31q-142 0 -142 -219q0 -221 142 -221q111 0 136 121h82z" />
    <glyph glyph-name="d" unicode="d" horiz-adv-x="655" 
d="M533 65h86v-61h-185v69q-28 -45 -65.5 -64.5t-97.5 -19.5q-49 0 -90 20.5t-70 58t-45.5 88.5t-16.5 113q0 61 16.5 112.5t46 88t70 57t89.5 20.5q57 0 96.5 -21t66.5 -63v249h-85v61h184v-708zM434 294q0 93 -34.5 139.5t-100.5 46.5q-136 0 -136 -211q0 -213 136 -213
q66 0 100.5 46.5t34.5 139.5v52z" />
    <glyph glyph-name="e" unicode="e" horiz-adv-x="596" 
d="M163 254q0 -206 151 -206q116 0 146 123h82q-45 -182 -237 -182q-58 0 -105.5 20t-81 56.5t-51.5 88t-18 115.5q0 63 18 114t51 87.5t79 56.5t102 20q121 0 184.5 -72t66.5 -221h-387zM434 315q-8 173 -135 173q-118 0 -135 -173h270z" />
    <glyph glyph-name="f" unicode="f" horiz-adv-x="439" 
d="M437 640h-56q-2 76 -76 76q-47 0 -66 -27t-19 -94v-63h144v-61h-144v-406h115v-61h-301v61h86v406h-86v61h86v61q0 180 183 180q35 0 68.5 -6t65.5 -19v-108z" />
    <glyph glyph-name="g" unicode="g" horiz-adv-x="649" 
d="M533 471v-451q0 -115 -61.5 -177t-179.5 -62q-54 0 -101 9.5t-92 29.5v118h55q9 -51 40.5 -74.5t91.5 -23.5q78 0 113 42.5t35 137.5v53q-28 -45 -65.5 -64.5t-97.5 -19.5q-49 0 -90 20.5t-70 58t-45.5 88.5t-16.5 113q0 61 16.5 112.5t46 88t70 57t89.5 20.5
q57 0 96.5 -21t66.5 -63v69h185v-61h-86zM434 294q0 93 -34.5 139.5t-100.5 46.5q-136 0 -136 -211q0 -213 136 -213q66 0 100.5 46.5t34.5 139.5v52z" />
    <glyph glyph-name="h" unicode="h" horiz-adv-x="652" 
d="M40 4v61h81v647h-86v61h186v-317q52 91 152 91q88 0 130 -49.5t42 -158.5v-274h80v-61h-258v61h77v246q0 45 -5 76t-16.5 49.5t-31 26.5t-47.5 8q-60 0 -91.5 -43t-31.5 -130v-233h78v-61h-259z" />
    <glyph glyph-name="i" unicode="i" horiz-adv-x="328" 
d="M94 688q0 25 17.5 43t42.5 18t43 -18t18 -43t-17.5 -42t-43.5 -17q-25 0 -42.5 17t-17.5 42zM219 65h85v-61h-271v61h86v406h-86v61h186v-467z" />
    <glyph glyph-name="j" unicode="j" horiz-adv-x="283" 
d="M95 688q0 25 18 43t43 18t42.5 -18t17.5 -43t-17 -42t-43 -17q-25 0 -43 17t-18 42zM118 471h-85v61h184v-574q0 -82 -49 -129.5t-134 -47.5q-35 0 -68.5 9.5t-66.5 26.5v114h57q3 -48 22 -69.5t58 -21.5q42 0 62 27.5t20 90.5v513z" />
    <glyph glyph-name="k" unicode="k" horiz-adv-x="623" 
d="M295 4h-262v61h81v647h-87v61h187v-489l202 187h-68v61h245v-61h-92l-150 -139l194 -267h76v-61h-266v61h70l-147 202q-17 -16 -32 -31t-32 -31v-140h81v-61z" />
    <glyph glyph-name="l" unicode="l" horiz-adv-x="328" 
d="M212 65h85v-61h-272v61h87v647h-87v61h187v-708z" />
    <glyph glyph-name="m" unicode="m" horiz-adv-x="962" 
d="M368 547q60 0 99.5 -27.5t56.5 -79.5q55 107 159 107q167 0 167 -208v-274h81v-61h-258v61h78v263q0 78 -22 110.5t-75 32.5q-57 0 -87.5 -43t-30.5 -130v-233h78v-61h-256v61h78v267q0 75 -22 107t-73 32q-118 0 -118 -173v-233h78v-61h-259v61h81v407h-86v60h186v-76
q25 45 61 68t84 23z" />
    <glyph glyph-name="n" unicode="n" horiz-adv-x="655" 
d="M40 4v61h81v406h-86v61h186v-76q52 91 152 91q88 0 130 -49.5t42 -158.5v-274h80v-61h-258v61h77v246q0 46 -5.5 77t-17.5 50t-31 26.5t-46 7.5q-60 0 -91.5 -43.5t-31.5 -130.5v-233h78v-61h-259z" />
    <glyph glyph-name="o" unicode="o" horiz-adv-x="599" 
d="M304 48q141 0 141 221q0 219 -141 219t-141 -219q0 -221 141 -221zM304 -11q-58 0 -105 20t-80.5 56.5t-51.5 88t-18 115.5q0 62 18 113.5t51.5 88t80.5 56.5t105 20q57 0 104.5 -20t81 -56.5t52 -88t18.5 -113.5q0 -63 -18.5 -114.5t-52 -88.5t-81 -57t-104.5 -20z" />
    <glyph glyph-name="p" unicode="p" horiz-adv-x="641" 
d="M214 242q0 -186 134 -186q135 0 135 213q0 211 -135 211q-134 0 -134 -186v-52zM114 471h-87v61h187v-69q27 45 65 64.5t98 19.5q48 0 89 -20.5t70 -57t45.5 -88t16.5 -112.5q0 -62 -16.5 -113t-45.5 -88.5t-69.5 -58t-89.5 -20.5q-57 0 -97 21t-66 63v-215h85v-62h-272
v62h87v613z" />
    <glyph glyph-name="q" unicode="q" horiz-adv-x="655" 
d="M533 471v-613h86v-62h-270v62h85v215q-28 -45 -65.5 -64.5t-97.5 -19.5q-49 0 -90 20.5t-70 58t-45.5 88.5t-16.5 113q0 61 16.5 112.5t46 88t70 57t89.5 20.5q57 0 96.5 -21t66.5 -63v69h185v-61h-86zM434 294q0 93 -34.5 139.5t-100.5 46.5q-136 0 -136 -211
q0 -213 136 -213q66 0 100.5 46.5t34.5 139.5v52z" />
    <glyph glyph-name="r" unicode="r" horiz-adv-x="517" 
d="M485 393h-61q-5 78 -72 78q-66 0 -99 -44.5t-33 -128.5v-233h103v-61h-284v61h81v407h-86v60h186v-79q55 94 164 94q14 0 101 -15v-139z" />
    <glyph glyph-name="s" unicode="s" horiz-adv-x="509" 
d="M54 163h61q4 -115 134 -115q119 0 119 84q0 16 -4.5 28.5t-17.5 23.5t-36 21t-60 22l-65 22q-35 12 -59.5 25t-40.5 29t-23 37t-7 50q0 73 52.5 115t149.5 42t184 -45v-120h-61q-2 50 -34 78t-86 28q-110 0 -110 -75q0 -15 4 -26.5t16 -22t32.5 -20t53.5 -19.5l71 -21
q76 -24 109.5 -59t33.5 -93q0 -75 -57 -119t-160 -44q-102 0 -199 44v130z" />
    <glyph glyph-name="t" unicode="t" horiz-adv-x="408" 
d="M105 471h-79v61h79v161h101v-161h168v-61h-168v-325q0 -32 2.5 -51.5t9 -30t17 -13.5t25.5 -3q33 0 48 20t16 68h77q-5 -77 -40.5 -112t-108.5 -35q-41 0 -69 8.5t-45 27t-25 48.5t-8 73v325z" />
    <glyph glyph-name="u" unicode="u" horiz-adv-x="644" 
d="M352 532h178v-467h85v-61h-185v76q-25 -45 -62.5 -68t-88.5 -23q-88 0 -130.5 49.5t-42.5 158.5v274h-81v61h182v-306q0 -47 5 -78t17 -49.5t31 -26t47 -7.5q60 0 91.5 43.5t31.5 130.5v232h-78v61z" />
    <glyph glyph-name="v" unicode="v" horiz-adv-x="595" 
d="M246 4l-191 467h-59v61h248v-61h-81l139 -339q35 86 69 168.5t69 170.5h-74v61h204v-61h-59l-191 -467h-74z" />
    <glyph glyph-name="w" unicode="w" horiz-adv-x="883" 
d="M488 532l129 -393l111 332h-74v61h199v-61h-59l-154 -467h-83l-124 374q-30 -94 -62 -187t-62 -187h-80l-153 467h-60v61h245v-61h-82q28 -87 54.5 -166t54.5 -165q32 97 65 196t65 196h70z" />
    <glyph glyph-name="x" unicode="x" horiz-adv-x="584" 
d="M294 333q26 36 49.5 69t49.5 69h-65v61h209v-61h-70l-137 -188l160 -218h70v-61h-250v61h61q-26 35 -51.5 70.5t-51.5 71.5q-27 -38 -52 -71t-52 -71h63v-61h-207v61h71q35 50 70 96.5t70 96.5q-39 54 -77.5 106t-76.5 107h-67v61h242v-61h-57z" />
    <glyph glyph-name="y" unicode="y" horiz-adv-x="575" 
d="M247 0l-192 471h-59v61h248v-61h-81l139 -339q35 86 69 168.5t69 170.5h-74v61h204v-61h-59l-237 -581q-25 -59 -56.5 -84t-86.5 -25q-27 0 -52 4t-48 13v107h55q3 -33 16 -47t39 -14q23 0 40 15.5t33 55.5z" />
    <glyph glyph-name="z" unicode="z" horiz-adv-x="536" 
d="M38 4v49l321 418h-244v-90h-61v151h434v-49l-320 -418h268v94h62v-155h-460z" />
    <glyph glyph-name="braceleft" unicode="{" horiz-adv-x="461" 
d="M389 -73v-49h-28q-47 0 -78.5 6t-50 22t-26 44t-7.5 72v96q0 53 -19 74.5t-70 21.5h-27v50h27q51 0 70 20.5t19 73.5v97q0 43 7.5 71t26 44t50 22t78.5 6h28v-48h-30q-25 0 -40.5 -3t-24.5 -12t-12 -25t-3 -42v-108q0 -29 -3 -49t-11 -34t-22 -23t-36 -15q42 -13 57 -40
t15 -83v-107q0 -26 3 -42t12 -25t24.5 -12t40.5 -3h30z" />
    <glyph glyph-name="bar" unicode="|" horiz-adv-x="217" 
d="M171 601v-779h-70v779h70z" />
    <glyph glyph-name="braceright" unicode="}" horiz-adv-x="488" 
d="M83 -73h31q25 0 40.5 3t24 12t11.5 25t3 42v107q0 56 15 83t57 40q-22 6 -36 15t-22 23t-11 34t-3 49v108q0 25 -3 41t-11.5 25t-24 12.5t-40.5 3.5h-31v48h28q48 0 79.5 -6t49.5 -22t25 -44t7 -71v-97q0 -53 19.5 -73.5t69.5 -20.5h28v-50h-28q-50 0 -69.5 -21
t-19.5 -75v-96q0 -44 -7 -72t-25 -44t-49.5 -22t-79.5 -6h-28v49z" />
    <glyph glyph-name="asciitilde" unicode="~" horiz-adv-x="648" 
d="M566 254q-42 -36 -76.5 -51.5t-71.5 -15.5q-20 0 -44.5 7t-56.5 18l-16 6q-27 9 -49.5 15t-39.5 6q-34 0 -67 -15t-71 -47v70q43 37 78.5 51t74.5 14q22 0 44.5 -6.5t51.5 -17.5l15 -6q51 -21 90 -21q67 0 138 61v-68z" />
    <glyph glyph-name="nonbreakingspace" unicode="&#xa0;" horiz-adv-x="250" 
 />
    <glyph glyph-name="cent" unicode="&#xa2;" horiz-adv-x="605" 
d="M305 486q-116 -18 -116 -217q0 -201 116 -219v436zM548 169q-19 -79 -64 -124t-120 -55v-131h-59v131q-54 5 -97 27t-72.5 58t-45.5 85t-16 109q0 123 62.5 194.5t168.5 82.5v130h59v-130q42 -5 84 -17t82 -32v-140h-61q-8 60 -34 91t-71 38v-436q81 15 102 119h82z" />
    <glyph glyph-name="sterling" unicode="&#xa3;" horiz-adv-x="555" 
d="M388 352h-132v-30q0 -24 -1.5 -45.5t-5 -42.5t-9 -43.5t-13.5 -48.5q47 -15 75 -23.5t33 -9.5q14 -2 26.5 -3t24.5 -1q41 0 66.5 19t37.5 64l29 -9q-5 -43 -20 -75.5t-35.5 -55t-46 -34t-51.5 -11.5q-19 0 -33 2t-30.5 10t-40 24t-61.5 45q-21 -37 -46 -59t-49 -22
q-29 0 -47.5 19.5t-18.5 51.5q0 38 25 61.5t63 23.5q9 0 18.5 -0.5t21.5 -3.5q1 2 1 5q0 9 -1 54.5t-8 137.5h-100v58h98q-4 42 -4.5 67.5t-0.5 36.5q0 46 15 85.5t40 68.5t58.5 46t70.5 17q36 0 63 -10t45 -26t26.5 -35t8.5 -37q0 -20 -14.5 -34t-30.5 -14q-8 0 -16 2.5
t-14 9.5t-10.5 19.5t-5.5 32.5q-3 55 -57 55q-18 0 -34 -7.5t-28 -24t-19 -42.5t-7 -64t6 -96v1l5 -51h133v-58zM164 106h-3q1 1 0.5 2t0.5 2zM107 41q14 0 30 14.5t24 50.5q-11 5 -20.5 8.5t-18.5 3.5q-20 0 -31.5 -11.5t-11.5 -28.5t8.5 -27t19.5 -10z" />
    <glyph glyph-name="currency" unicode="&#xa4;" horiz-adv-x="648" 
d="M547 597l52 -52l-103 -104q39 -57 39 -120q0 -32 -9.5 -61t-30.5 -57l102 -101l-55 -53l-102 99q-53 -40 -118 -40q-63 0 -121 39l-100 -101l-54 54l100 101q-38 58 -38 120q0 64 40 119l-101 103l54 54l102 -103q53 40 118 40q64 0 120 -38zM449 322q0 27 -10 49.5
t-27.5 39.5t-40.5 26.5t-49 9.5t-48.5 -9.5t-40 -26.5t-27.5 -40t-10 -49t10 -49.5t27 -40.5t40 -27t49 -10q27 0 50 10.5t40 28t27 40.5t10 48z" />
    <glyph glyph-name="yen" unicode="&#xa5;" horiz-adv-x="653" 
d="M175 4v61h92v169h-197v62h197v26l-38 65h-159v60h125l-135 233h-69v62h279v-62h-82l159 -281q41 73 79.5 141t79.5 140h-79v62h220v-62h-72l-133 -233h130v-60h-165l-31 -55v-36h196v-62h-196v-169h92v-61h-293z" />
    <glyph glyph-name="brokenbar" unicode="&#xa6;" horiz-adv-x="256" 
d="M167 167v-295h-71v295h71zM167 552v-295h-71v295h71z" />
    <glyph glyph-name="section" unicode="&#xa7;" horiz-adv-x="512" 
d="M190 462l-2 -2l-2 2h4zM373 298q0 18 -6.5 33t-26 32.5t-56 40t-96.5 56.5q-31 -21 -43 -40.5t-12 -42.5q0 -64 178 -162l9 -5q53 34 53 88zM412 620h-55q-1 35 -24 55t-65 20q-48 0 -74 -22t-26 -61q0 -44 117 -110q55 -31 89.5 -54.5t54 -45t27 -42.5t7.5 -48
q0 -46 -24.5 -77t-76.5 -52q35 -24 51.5 -54.5t16.5 -73.5q0 -67 -51 -107t-139 -40q-47 0 -88 7t-76 22v111h55q1 -79 100 -79q49 0 77.5 22.5t28.5 61.5q0 52 -109 113l-16 9h1q-55 30 -88.5 53.5t-51.5 44t-24 41t-6 45.5q0 45 28 78t76 50q-72 49 -72 122q0 67 49.5 107
t134.5 40q43 0 81.5 -7t71.5 -22v-107z" />
    <glyph glyph-name="dieresis" unicode="&#xa8;" horiz-adv-x="367" 
d="M121 603q20 0 34.5 -14t14.5 -34q0 -23 -13 -36t-36 -13q-22 0 -35 13t-13 36q0 20 14 34t34 14zM268 603q20 0 34 -14t14 -34q0 -23 -14 -36t-34 -13t-34.5 13t-14.5 36q0 20 14.5 34t34.5 14z" />
    <glyph glyph-name="copyright" unicode="&#xa9;" horiz-adv-x="984" 
d="M684 293q-16 -70 -60.5 -106.5t-116.5 -36.5q-47 0 -85 15.5t-64.5 44.5t-41 69.5t-14.5 90.5t14.5 91t41.5 70t64.5 45t84.5 16q41 0 78.5 -9.5t83.5 -28.5v-114h-50q-9 54 -36 79t-75 25q-112 0 -112 -174q0 -172 111 -172q90 0 108 95h69zM506 738q75 0 141.5 -29
t116.5 -79t79 -117t29 -143q0 -75 -29 -141.5t-79 -116.5t-116.5 -79t-141.5 -29t-142 29.5t-117 79.5t-79 116.5t-29 140.5q0 75 29 142t79 117.5t117 79.5t142 29zM506 679q-63 0 -119 -24.5t-98 -66.5t-66.5 -98.5t-24.5 -119.5q0 -62 25 -117.5t67 -97.5t98 -66.5
t118 -24.5q63 0 119 24.5t97.5 66.5t65.5 97.5t24 117.5q0 63 -24.5 119.5t-66.5 98.5t-97.5 66.5t-117.5 24.5z" />
    <glyph glyph-name="ordfeminine" horiz-adv-x="492" 
d="M417 424h39v-51h-121v32q-46 -42 -122 -42q-73 0 -113.5 32.5t-40.5 90.5t47.5 90.5t132.5 32.5h96v18q0 39 -26 60.5t-77 21.5q-82 0 -95 -69h-46v86q121 30 144 30q182 0 182 -153v-179zM335 562h-87q-99 0 -99 -72q0 -76 91 -76q43 0 69 22.5t26 58.5v67zM79 325h351
v-60h-351v60z" />
    <glyph glyph-name="guillemotleft" unicode="&#xaa;" horiz-adv-x="618" 
d="M526 536v-68l-144 -166l144 -166v-70l-238 213v44zM314 536v-68l-143 -166l143 -166v-70l-238 213v44z" />
    <glyph glyph-name="logicalnot" unicode="&#xab;" horiz-adv-x="822" 
d="M106 434h635v-290h-88v202h-547v88z" />
    <glyph glyph-name="registered" unicode="&#xac;" horiz-adv-x="984" 
d="M447 399h57q76 0 76 70q0 68 -76 68h-57v-138zM662 467q0 -77 -81 -92q29 -16 45 -48l56 -108h39v-43h-100l-66 127q-17 32 -31 42.5t-37 10.5h-40v-137h41v-43h-164v43h40v318h-40v42h207q131 0 131 -112zM506 679q-63 0 -119 -24.5t-98 -66.5t-66.5 -98.5t-24.5 -119.5
q0 -62 25 -117.5t67 -97.5t98 -66.5t118 -24.5q63 0 119 24.5t97.5 66.5t65.5 97.5t24 117.5q0 63 -24.5 119.5t-66.5 98.5t-97.5 66.5t-117.5 24.5zM506 738q75 0 141.5 -29t116.5 -79t79 -117t29 -143q0 -75 -29 -141.5t-79 -116.5t-116.5 -79t-141.5 -29t-142 29.5
t-117 79.5t-79 116.5t-29 140.5q0 75 29 142t79 117.5t117 79.5t142 29z" />
    <glyph glyph-name="overscore.001" unicode="&#xae;" horiz-adv-x="593" 
d="M588 556h-588v54h588v-54z" />
    <glyph glyph-name="degree" horiz-adv-x="506" 
d="M253 679q-18 0 -33 -6.5t-26 -18t-17.5 -27t-6.5 -32.5q0 -35 23.5 -58.5t59.5 -23.5q35 0 59 23.5t24 58.5q0 16 -6.5 31t-18 27t-26.5 19t-32 7zM253 756q33 0 62 -13t50.5 -35t34 -51t12.5 -62t-12.5 -62t-34 -51t-51 -34.5t-62.5 -12.5q-35 0 -64 12t-50 33.5
t-33 50.5t-12 64q0 33 12.5 62.5t34 51t51 34.5t62.5 13z" />
    <glyph glyph-name="plusminus" unicode="&#xb0;" horiz-adv-x="633" 
d="M361 496v-147h211v-71h-211v-146h-69v146h-212v71h212v147h69zM80 74h492v-70h-492v70z" />
    <glyph glyph-name="twosuperior" unicode="&#xb1;" horiz-adv-x="399" 
d="M46 637v85q68 34 139 34q70 0 113 -33.5t43 -86.5q0 -62 -107 -162l-105 -91h170v52h46v-105h-304v43l141 126q38 35 57 65.5t19 60.5q0 39 -22 62t-61 23q-74 0 -86 -73h-43z" />
    <glyph glyph-name="threesuperior" unicode="&#xb2;" horiz-adv-x="396" 
d="M58 729q55 14 87.5 20.5t47.5 6.5q70 0 107.5 -27t37.5 -80q0 -32 -20 -55.5t-57 -35.5q96 -22 96 -116q0 -58 -44 -89t-126 -31q-83 0 -141 30v90h44q5 -74 90 -74q91 0 91 78q0 87 -94 87h-31v46h18q91 0 91 67q0 64 -72 64q-73 0 -81 -64h-44v83z" />
    <glyph glyph-name="acute" unicode="&#xb3;" horiz-adv-x="512" 
d="M318 813h111l-174 -193h-69z" />
    <glyph glyph-name="mu1" unicode="&#xb4;" horiz-adv-x="653" 
d="M359 532h178v-467h85v-61h-185v76q-52 -91 -135 -91q-54 0 -88 30v-161h85v-62h-272v62h87v613h-81v61h181v-306q0 -47 5 -77.5t17 -49.5t31 -26.5t47 -7.5q60 0 91.5 43.5t31.5 130.5v232h-78v61z" />
    <glyph glyph-name="paragraph" horiz-adv-x="644" 
d="M580 742v-62h-58v-773h-61v773h-104v-773h-61v413q-108 10 -164 64t-56 147q0 47 17 86t48 66.5t74.5 43t96.5 15.5h268z" />
    <glyph glyph-name="middot.001" unicode="&#xb6;" horiz-adv-x="305" 
d="M90 355q0 29 19.5 50t50.5 21q29 0 49 -21t20 -50t-20 -49t-49 -20q-31 0 -50.5 20t-19.5 49z" />
    <glyph glyph-name="cedilla" unicode="&#xb7;" horiz-adv-x="469" 
d="M288 14q63 -63 63 -115q0 -42 -31 -65t-90 -23q-41 0 -90 12v77q54 -20 81 -20q25 0 39.5 11.5t14.5 31.5q0 23 -48 91h61z" />
    <glyph glyph-name="onesuperior" unicode="&#xb8;" horiz-adv-x="389" 
d="M83 330v51h84v297q-23 -13 -49 -27t-49 -25v55l122 66h54v-366h85v-51h-247z" />
    <glyph glyph-name="ordmasculine" unicode="&#xb9;" horiz-adv-x="469" 
d="M237 410q100 0 100 149q0 150 -100 150q-98 0 -98 -150q0 -149 98 -149zM237 363q-44 0 -79.5 14t-60.5 40t-39 62t-14 80t14 80.5t39 62.5t60.5 40t79.5 14q43 0 79 -14t61.5 -40t39.5 -62.5t14 -80.5t-13.5 -80t-39 -62t-61 -40t-80.5 -14zM64 325h346v-60h-346v60z
" />
    <glyph glyph-name="guillemotright" unicode="&#xba;" horiz-adv-x="603" 
d="M304 536l240 -213v-44l-240 -213v70l145 166q-35 41 -72.5 82.5t-72.5 83.5v68zM93 536l239 -213v-44l-239 -213v70l143 166l-143 166v68z" />
    <glyph glyph-name="onequarter" unicode="&#xbb;" horiz-adv-x="986" 
d="M772 166v180q-35 -47 -68 -89.5t-68 -90.5h136zM925 8h-222v51h69v58h-193v48l197 261h76v-260h81v-49h-81v-58h73v-51zM69 336v51h83v297l-97 -52v55l122 67h54v-367h86v-51h-248zM664 761h85l-467 -768h-85z" />
    <glyph glyph-name="onehalf" unicode="&#xbc;" horiz-adv-x="961" 
d="M69 331v50h81v294l-96 -52v55l121 65h54v-362h84v-50h-244zM655 751h84l-460 -758h-84zM593 310v86q34 16 69 24.5t68 8.5q71 0 112.5 -33.5t41.5 -85.5q0 -30 -24.5 -67.5t-69.5 -79.5l-116 -102h169v52h45v-105h-301v43l140 125q76 70 76 123q0 40 -22 62.5t-61 22.5
q-34 0 -56 -18.5t-29 -55.5h-42z" />
    <glyph glyph-name="threequarters" unicode="&#xbd;" horiz-adv-x="961" 
d="M762 163v174q-34 -45 -66.5 -87t-66.5 -87h133zM911 8h-217v49h68v57h-189v47l193 256h74v-254h80v-49h-80v-57h71v-49zM49 720q74 25 132 25q70 0 106.5 -27t36.5 -78q0 -30 -20 -53.5t-57 -34.5q47 -11 71.5 -39t24.5 -75q0 -56 -43 -87t-124 -31q-35 0 -70.5 6.5
t-68.5 22.5v89h43q4 -35 25 -54t63 -19t66.5 19.5t24.5 57.5q0 43 -24 63.5t-69 20.5h-29v46h17q89 0 89 66q0 31 -18.5 47.5t-52.5 16.5q-73 0 -79 -64h-44v82zM656 745h84l-457 -752h-84z" />
    <glyph glyph-name="questiondown" unicode="&#xbe;" horiz-adv-x="558" 
d="M388 686q0 -29 -20.5 -49.5t-49.5 -20.5t-49.5 20.5t-20.5 49.5t20.5 50t49.5 21q31 0 50.5 -21t19.5 -50zM495 37q-136 -47 -190 -47q-55 0 -99.5 14t-75.5 39.5t-47.5 62.5t-16.5 82q0 183 218 236v125h69v-169q-174 -42 -174 -192q0 -66 34 -102.5t94 -36.5
q54 0 88.5 31t44.5 93h55v-136z" />
    <glyph glyph-name="Agrave" unicode="&#xbf;" horiz-adv-x="757" 
d="M215 280h254l-127 327zM-5 4v61h65l262 684h90l263 -684h72v-61h-277v61h81q-14 40 -29 76.5t-29 76.5h-302l-57 -153h77v-61h-216zM338 948l96 -141h-69l-138 141h111z" />
    <glyph glyph-name="Aacute" unicode="&#xc0;" horiz-adv-x="759" 
d="M216 282h255l-128 329zM-7 4v62h66l264 688h90l265 -688h73v-62h-279v62h82q-15 40 -30 76.5t-29 76.5h-304l-57 -153h78v-62h-219zM399 954h113l-139 -141h-72z" />
    <glyph glyph-name="Acircumflex" unicode="&#xc1;" horiz-adv-x="757" 
d="M216 282h255l-128 329zM-7 4v62h66l264 688h90l265 -688h73v-62h-279v62h82q-15 40 -30 76.5t-29 76.5h-304l-57 -153h78v-62h-219zM325 954h92l122 -141h-71l-98 80l-97 -80h-70z" />
    <glyph glyph-name="Atilde" unicode="&#xc2;" horiz-adv-x="757" 
d="M216 282h255l-128 329zM-7 4v62h66l264 688h90l265 -688h73v-62h-279v62h82q-15 40 -30 76.5t-29 76.5h-304l-57 -153h78v-62h-219zM337 868q-20 12 -35 12q-17 0 -28.5 -14.5t-13.5 -34.5h-56q0 54 25.5 85t70.5 31q10 0 18 -0.5t17 -3t20 -8t26 -14.5h-1l23 -12
q11 -5 20.5 -8.5t19.5 -3.5q17 0 27 13.5t10 36.5h59q-1 -56 -28 -86t-75 -30q-17 0 -36 5.5t-39 17.5z" />
    <glyph glyph-name="Adieresis" unicode="&#xc3;" horiz-adv-x="757" 
d="M216 282h255l-128 329zM-7 4v62h66l264 688h90l265 -688h73v-62h-279v62h82q-15 40 -30 76.5t-29 76.5h-304l-57 -153h78v-62h-219zM275 945q26 0 44 -17.5t18 -42.5q0 -29 -18 -46.5t-44 -17.5q-28 0 -45 17.5t-17 46.5q0 25 17 42.5t45 17.5zM466 945q27 0 45 -17.5
t18 -42.5q0 -29 -17.5 -46.5t-45.5 -17.5q-26 0 -44 17.5t-18 46.5q0 25 18.5 42.5t43.5 17.5z" />
    <glyph glyph-name="Aring" unicode="&#xc4;" horiz-adv-x="820" 
d="M476 881q0 32 -22 54t-55 22t-54.5 -22t-21.5 -54t21.5 -54.5t54.5 -22.5t55 22.5t22 54.5zM234 305h276l-138 358zM-6 4v66h71l260 679q-78 43 -78 132q0 31 12 58.5t33 48.5t48.5 33t58.5 12t59 -12t49 -33t33 -48.5t12 -58.5q0 -45 -21.5 -79t-58.5 -54
q66 -171 131 -339t131 -339h79v-66h-300v66h88l-65 167h-329l-63 -167h86v-66h-236z" />
    <glyph glyph-name="AE" unicode="&#xc5;" horiz-adv-x="984" 
d="M228 283h230v408h-42zM362 4v62h96v154h-259l-72 -154h79v-62h-220v62h66l288 625h-103v63h731v-175h-70v104h-331v-238h234v92h70v-255h-70v94h-234v-301h339v104h70v-175h-614z" />
    <glyph glyph-name="Ccedilla" unicode="&#xc6;" horiz-adv-x="727" 
d="M666 234q-30 -86 -90 -137t-142 -65q23 -26 32.5 -47.5t9.5 -40.5q0 -41 -30.5 -62.5t-83.5 -21.5q-22 0 -43.5 2t-44.5 9v72q24 -8 42 -12.5t35 -4.5q24 0 38.5 10t14.5 29q0 10 -7.5 26t-21.5 38h-1q-76 0 -137.5 28t-105 76.5t-67.5 114t-24 140.5q0 82 25 149.5
t70 115t107.5 73.5t138.5 26q59 0 123.5 -14.5t139.5 -46.5v-166h-62q-17 89 -66.5 128t-141.5 39q-109 0 -164 -72.5t-55 -231.5q0 -155 55 -227.5t164 -72.5q154 0 195 146h97z" />
    <glyph glyph-name="Egrave" unicode="&#xc7;" horiz-adv-x="653" 
d="M39 4v62h95v624h-95v63h604v-175h-71v103h-329v-237h234v92h70v-254h-70v93h-234v-300h339v104h69v-175h-612zM326 953l99 -141h-72l-139 141h112z" />
    <glyph glyph-name="Eacute" unicode="&#xc8;" horiz-adv-x="653" 
d="M39 4v62h95v624h-95v63h604v-175h-71v103h-329v-237h234v92h70v-254h-70v93h-234v-300h339v104h69v-175h-612zM386 953h112l-138 -141h-69z" />
    <glyph glyph-name="Ecircumflex" unicode="&#xc9;" horiz-adv-x="715" 
d="M53 4v62h94v619h-94v62h601v-173h-70v103h-327v-236h230v92h70v-254h-70v93h-230v-298h335v103h70v-173h-609zM325 947h91l122 -140h-70l-97 78l-99 -78h-69z" />
    <glyph glyph-name="Edieresis" unicode="&#xca;" horiz-adv-x="725" 
d="M53 4v62h94v619h-94v62h601v-173h-70v103h-327v-236h230v92h70v-254h-70v93h-230v-298h335v103h70v-173h-609zM274 939q26 0 44.5 -18.5t18.5 -43.5q0 -27 -18 -44.5t-45 -17.5q-26 0 -44 17.5t-18 44.5q0 25 18.5 43.5t43.5 18.5zM466 939q26 0 44 -18.5t18 -43.5
q0 -27 -18 -44.5t-44 -17.5t-44 17.5t-18 44.5q0 25 18 43.5t44 18.5z" />
    <glyph glyph-name="Igrave" unicode="&#xcb;" horiz-adv-x="392" 
d="M255 66h94v-62h-297v62h93v619h-93v62h297v-62h-94v-619zM170 947l89 -140h-62l-138 140h111z" />
    <glyph glyph-name="Iacute" unicode="&#xcc;" horiz-adv-x="386" 
d="M255 66h94v-62h-297v62h93v619h-93v62h297v-62h-94v-619zM229 947h112l-139 -140h-70z" />
    <glyph glyph-name="Icircumflex" unicode="&#xcd;" horiz-adv-x="418" 
d="M255 66h94v-62h-297v62h93v619h-93v62h297v-62h-94v-619zM156 947h96l116 -140h-69l-98 78l-98 -78h-70z" />
    <glyph glyph-name="Idieresis" unicode="&#xce;" horiz-adv-x="397" 
d="M255 66h94v-62h-297v62h93v619h-93v62h297v-62h-94v-619zM105 939q26 0 44.5 -18.5t18.5 -43.5q0 -27 -18.5 -44.5t-44.5 -17.5t-44 17.5t-18 44.5q0 25 18.5 43.5t43.5 18.5zM297 939q26 0 44 -18.5t18 -43.5q0 -27 -18 -44.5t-44 -17.5q-27 0 -44.5 17.5t-17.5 44.5
q0 25 18 43.5t44 18.5z" />
    <glyph glyph-name="Eth" unicode="&#xcf;" horiz-adv-x="820" 
d="M261 66h88q290 0 290 311q0 308 -290 308h-88v-256h165v-72h-165v-291zM59 4v62h93v291h-98v72h98v256h-93v62h296q95 0 170.5 -25t128 -72.5t80.5 -116.5t28 -156q0 -88 -27.5 -157t-80 -117t-128 -73.5t-171.5 -25.5h-296z" />
    <glyph glyph-name="Ntilde" unicode="&#xd0;" horiz-adv-x="894" 
d="M48 4v62h98v619h-98v62h195l433 -569v507h-98v62h267v-62h-99v-696h-66l-463 609v-532h98v-62h-267zM437 846l-26 15q-21 12 -36 12q-16 0 -27.5 -13.5t-13.5 -36.5h-57q1 54 27 85.5t70 31.5q18 0 34 -5t44 -20l24 -13q22 -12 39 -12q19 0 28.5 13.5t9.5 36.5h58
q-1 -56 -27 -86.5t-76 -30.5q-36 0 -71 22v1z" />
    <glyph glyph-name="Ograve" unicode="&#xd1;" horiz-adv-x="847" 
d="M416 52q238 0 238 323t-238 323t-238 -323t238 -323zM416 -11q-83 0 -149.5 30t-113.5 82t-72.5 122.5t-25.5 151.5t25.5 151.5t72.5 122.5t113.5 82t149.5 30q80 0 146.5 -28t114 -78.5t74 -121.5t26.5 -158q0 -83 -26 -153.5t-73 -122t-114 -81t-148 -29.5zM385 947
l95 -140h-68l-138 140h111z" />
    <glyph glyph-name="Oacute" unicode="&#xd2;" horiz-adv-x="826" 
d="M416 52q238 0 238 323t-238 323t-238 -323t238 -323zM416 -11q-83 0 -149.5 30t-113.5 82t-72.5 122.5t-25.5 151.5t25.5 151.5t72.5 122.5t113.5 82t149.5 30q80 0 146.5 -28t114 -78.5t74 -121.5t26.5 -158q0 -83 -26 -153.5t-73 -122t-114 -81t-148 -29.5zM444 947
h112l-139 -140h-69z" />
    <glyph glyph-name="Ocircumflex" unicode="&#xd3;" horiz-adv-x="831" 
d="M416 52q238 0 238 323t-238 323t-238 -323t238 -323zM416 -11q-83 0 -149.5 30t-113.5 82t-72.5 122.5t-25.5 151.5t25.5 151.5t72.5 122.5t113.5 82t149.5 30q80 0 146.5 -28t114 -78.5t74 -121.5t26.5 -158q0 -83 -26 -153.5t-73 -122t-114 -81t-148 -29.5zM371 947h91
l121 -140h-69l-98 78l-98 -78h-70z" />
    <glyph glyph-name="Otilde" unicode="&#xd4;" horiz-adv-x="831" 
d="M416 52q238 0 238 323t-238 323t-238 -323t238 -323zM416 -11q-83 0 -149.5 30t-113.5 82t-72.5 122.5t-25.5 151.5t25.5 151.5t72.5 122.5t113.5 82t149.5 30q80 0 146.5 -28t114 -78.5t74 -121.5t26.5 -158q0 -83 -26 -153.5t-73 -122t-114 -81t-148 -29.5zM410 846
l-27 15q-21 12 -35 12q-17 0 -28.5 -13.5t-13.5 -36.5h-57q1 54 27.5 85.5t70.5 31.5q17 0 33 -5t44 -20l24 -13q24 -12 39 -12q19 0 28.5 13.5t9.5 36.5h58q0 -56 -26.5 -86.5t-76.5 -30.5q-36 0 -70 22v1z" />
    <glyph glyph-name="Odieresis" unicode="&#xd5;" horiz-adv-x="831" 
d="M416 52q238 0 238 323t-238 323t-238 -323t238 -323zM416 -11q-83 0 -149.5 30t-113.5 82t-72.5 122.5t-25.5 151.5t25.5 151.5t72.5 122.5t113.5 82t149.5 30q80 0 146.5 -28t114 -78.5t74 -121.5t26.5 -158q0 -83 -26 -153.5t-73 -122t-114 -81t-148 -29.5zM320 939
q26 0 44.5 -18.5t18.5 -43.5q0 -27 -18.5 -44.5t-44.5 -17.5t-44 17.5t-18 44.5q0 25 18.5 43.5t43.5 18.5zM512 939q26 0 44 -18.5t18 -43.5q0 -27 -18 -44.5t-44 -17.5q-27 0 -44.5 17.5t-17.5 44.5q0 25 18 43.5t44 18.5z" />
    <glyph glyph-name="multiply" unicode="&#xd7;" horiz-adv-x="601" 
d="M551 424l-175 -175l175 -173l-53 -49l-172 172l-174 -173l-49 50l172 173l-172 175l49 50l174 -173l172 172z" />
    <glyph glyph-name="Oslash" horiz-adv-x="849" 
d="M716 537l40 -31l-74 -93q56 -62 82 -126t26 -149q0 -83 -29.5 -155.5t-80 -127.5t-117 -86.5t-140.5 -31.5q-56 0 -117.5 20t-109.5 57l-71 -88l-40 32l73 90q-56 57 -82.5 130t-26.5 162q0 81 29.5 151.5t80 123t118 83t144.5 30.5q123 0 222 -81zM593 383
q-64 96 -175 96q-62 0 -106.5 -27t-73 -73t-41.5 -107t-13 -129q0 -120 39 -216zM248 -122q37 -53 77 -72t90 -19q57 0 92.5 16.5t67.5 52.5q32 35 55 99.5t23 164.5q0 29 -1.5 54.5t-5.5 51t-11 52t-17 56.5z" />
    <glyph glyph-name="Ugrave" unicode="&#xd8;" horiz-adv-x="863" 
d="M139 685h-93v62h297v-62h-95v-374q0 -68 10.5 -115.5t34.5 -76.5t62 -42t93 -13q56 0 94 13t61.5 42t33.5 76.5t10 115.5v374h-93v62h258v-62h-94v-384q0 -85 -15 -144.5t-49 -96.5t-89 -54t-135 -17q-79 0 -134 17t-90 54t-51 96.5t-16 144.5v384zM416 947l95 -140h-68
l-139 140h112z" />
    <glyph glyph-name="Uacute" unicode="&#xd9;" horiz-adv-x="847" 
d="M139 685h-93v62h297v-62h-95v-374q0 -68 10.5 -115.5t34.5 -76.5t62 -42t93 -13q56 0 94 13t61.5 42t33.5 76.5t10 115.5v374h-93v62h258v-62h-94v-384q0 -85 -15 -144.5t-49 -96.5t-89 -54t-135 -17q-79 0 -134 17t-90 54t-51 96.5t-16 144.5v384zM474 947h113
l-139 -140h-70z" />
    <glyph glyph-name="Ucircumflex" unicode="&#xda;" horiz-adv-x="863" 
d="M139 685h-93v62h297v-62h-95v-374q0 -68 10.5 -115.5t34.5 -76.5t62 -42t93 -13q56 0 94 13t61.5 42t33.5 76.5t10 115.5v374h-93v62h258v-62h-94v-384q0 -85 -15 -144.5t-49 -96.5t-89 -54t-135 -17q-79 0 -134 17t-90 54t-51 96.5t-16 144.5v384zM402 947h90l122 -140
h-70l-97 78l-98 -78h-70z" />
    <glyph glyph-name="Udieresis" unicode="&#xdb;" horiz-adv-x="631" 
d="M139 685h-93v62h297v-62h-95v-374q0 -68 10.5 -115.5t34.5 -76.5t62 -42t93 -13q56 0 94 13t61.5 42t33.5 76.5t10 115.5v374h-93v62h258v-62h-94v-384q0 -85 -15 -144.5t-49 -96.5t-89 -54t-135 -17q-79 0 -134 17t-90 54t-51 96.5t-16 144.5v384zM351 939
q26 0 44.5 -18.5t18.5 -43.5q0 -27 -18.5 -44.5t-44.5 -17.5t-44 17.5t-18 44.5q0 25 18 43.5t44 18.5zM542 939q26 0 44 -18.5t18 -43.5q0 -27 -17.5 -44.5t-44.5 -17.5q-26 0 -44 17.5t-18 44.5q0 25 18 43.5t44 18.5z" />
    <glyph glyph-name="Yacute" unicode="&#xdc;" horiz-adv-x="693" 
d="M188 4v62h94v257l-225 362h-71v62h283v-62h-80q44 -70 86.5 -141.5t86.5 -141.5l175 283h-79v62h223v-62h-72l-218 -352v-267h93v-62h-296zM363 947h129l-156 -140h-70z" />
    <glyph glyph-name="Thorn" unicode="&#xdd;" horiz-adv-x="654" 
d="M257 227h124q145 0 145 150q0 72 -36.5 110t-108.5 38h-124v-298zM53 4v62h94v619h-94v62h317v-62h-113v-98h148q56 0 101 -15t77 -42t49 -66t17 -87t-17 -87.5t-49 -67.5t-77 -43t-101 -15h-148v-98h113v-62h-317z" />
    <glyph glyph-name="germandbls" unicode="&#xde;" horiz-adv-x="504" 
d="M281 434q0 57 38 96t112 53q-14 106 -120 106q-59 0 -85.5 -28t-26.5 -94v-560h-180v59h84v500q0 86 54 133t154 47q202 0 216 -207h-15q-143 0 -143 -96q0 -12 3 -21t10 -16.5t18 -15.5t28 -18l41 -27q68 -45 98.5 -87.5t30.5 -95.5q0 -37 -14.5 -68t-40.5 -53.5
t-62.5 -35t-80.5 -12.5q-47 0 -159 36v116h60q2 -45 26 -70t69 -25q51 0 79.5 26t28.5 74q0 19 -4 34t-14 29t-27.5 28.5t-44.5 32.5l-41 25q-48 29 -70 62.5t-22 72.5z" />
    <glyph glyph-name="agrave" unicode="&#xdf;" horiz-adv-x="603" 
d="M396 276h-110q-128 0 -128 -112q0 -51 32 -81.5t86 -30.5t87 33t33 87v104zM496 65h80v-61h-180v47q-29 -29 -67.5 -45.5t-87.5 -16.5q-88 0 -140 47t-52 128q0 85 58.5 130t167.5 45h121v30q0 57 -34.5 88t-97.5 31q-105 0 -121 -96h-54v114l41 9q65 16 98.5 24t41.5 8
q226 0 226 -214v-268zM213 812l133 -193h-68l-175 193h110z" />
    <glyph glyph-name="aacute" unicode="&#xe0;" horiz-adv-x="619" 
d="M396 276h-110q-128 0 -128 -112q0 -51 32 -81.5t86 -30.5t87 33t33 87v104zM496 65h80v-61h-180v47q-29 -29 -67.5 -45.5t-87.5 -16.5q-88 0 -140 47t-52 128q0 85 58.5 130t167.5 45h121v30q0 57 -34.5 88t-97.5 31q-105 0 -121 -96h-54v114l41 9q65 16 98.5 24t41.5 8
q226 0 226 -214v-268zM345 813h112l-175 -193h-68z" />
    <glyph glyph-name="acircumflex" unicode="&#xe1;" horiz-adv-x="603" 
d="M396 276h-110q-128 0 -128 -112q0 -51 32 -81.5t86 -30.5t87 33t33 87v104zM496 65h80v-61h-180v47q-29 -29 -67.5 -45.5t-87.5 -16.5q-88 0 -140 47t-52 128q0 85 58.5 130t167.5 45h121v30q0 57 -34.5 88t-97.5 31q-105 0 -121 -96h-54v114l41 9q65 16 98.5 24t41.5 8
q226 0 226 -214v-268zM237 813h88l120 -193h-67l-98 124q-24 -31 -48 -62.5t-49 -61.5h-67z" />
    <glyph glyph-name="atilde" unicode="&#xe2;" horiz-adv-x="609" 
d="M396 276h-110q-128 0 -128 -112q0 -51 32 -81.5t86 -30.5t87 33t33 87v104zM496 65h80v-61h-180v47q-29 -29 -67.5 -45.5t-87.5 -16.5q-88 0 -140 47t-52 128q0 85 58.5 130t167.5 45h121v30q0 57 -34.5 88t-97.5 31q-105 0 -121 -96h-54v114l41 9q65 16 98.5 24t41.5 8
q226 0 226 -214v-268zM247 700h1q-12 11 -19.5 15t-15.5 4q-20 0 -29.5 -19.5t-11.5 -57.5h-57q1 73 27 110.5t73 37.5q19 0 36.5 -8.5t40.5 -26.5l22 -23q11 -10 19 -13.5t15 -3.5q20 0 30 19.5t12 55.5h57q-1 -70 -27 -109t-74 -39q-19 0 -35 7t-35 25z" />
    <glyph glyph-name="adieresis" unicode="&#xe3;" horiz-adv-x="609" 
d="M396 276h-110q-128 0 -128 -112q0 -51 32 -81.5t86 -30.5t87 33t33 87v104zM496 65h80v-61h-180v47q-29 -29 -67.5 -45.5t-87.5 -16.5q-88 0 -140 47t-52 128q0 85 58.5 130t167.5 45h121v30q0 57 -34.5 88t-97.5 31q-105 0 -121 -96h-54v114l41 9q65 16 98.5 24t41.5 8
q226 0 226 -214v-268zM185 779q26 0 44.5 -17.5t18.5 -43.5q0 -29 -17.5 -46t-45.5 -17q-26 0 -43.5 17t-17.5 46q0 26 18 43.5t43 17.5zM376 779q26 0 43.5 -17.5t17.5 -43.5q0 -29 -17.5 -46t-43.5 -17t-44 17t-18 46q0 26 18 43.5t44 17.5z" />
    <glyph glyph-name="aring" unicode="&#xe4;" horiz-adv-x="609" 
d="M396 276h-110q-128 0 -128 -112q0 -51 32 -81.5t86 -30.5t87 33t33 87v104zM496 65h80v-61h-180v47q-29 -29 -67.5 -45.5t-87.5 -16.5q-88 0 -140 47t-52 128q0 85 58.5 130t167.5 45h121v30q0 57 -34.5 88t-97.5 31q-105 0 -121 -96h-54v114l41 9q65 16 98.5 24t41.5 8
q226 0 226 -214v-268zM420 753q0 -29 -11 -54.5t-30 -44.5t-44.5 -30t-53.5 -11q-29 0 -54.5 11t-44.5 29.5t-29.5 44t-10.5 55.5q0 29 10.5 54t29.5 44t44.5 29.5t54.5 10.5q28 0 53.5 -11t44.5 -29.5t30 -44t11 -53.5zM350 753q0 28 -20 48t-49 20q-30 0 -49.5 -19.5
t-19.5 -48.5q0 -30 19.5 -50t49.5 -20q29 0 49 20.5t20 49.5z" />
    <glyph glyph-name="ae" unicode="&#xe5;" horiz-adv-x="942" 
d="M398 276h-110q-128 0 -128 -112q0 -51 32 -81.5t86 -30.5t87 33t33 87v104zM655 -11q-122 0 -198 85q-83 -85 -200 -85q-100 0 -153 45t-53 130t58.5 130t167.5 45h121v30q0 57 -34 88t-94 31q-109 0 -125 -96h-54v114l41 9q65 16 98.5 24t41.5 8q67 0 115 -21.5
t77 -62.5q35 41 82 62.5t103 21.5q121 0 185 -71.5t66 -221.5h-387q0 -206 152 -206q57 0 94 30.5t51 92.5h82q-45 -182 -237 -182zM785 315q-8 173 -136 173q-58 0 -92.5 -43t-42.5 -130h271z" />
    <glyph glyph-name="ccedilla" unicode="&#xe6;" horiz-adv-x="561" 
d="M523 169q-20 -88 -75.5 -134t-143.5 -46q-58 0 -105 20t-80.5 56.5t-52 88t-18.5 115.5q0 63 18.5 114t52 87.5t80.5 56.5t105 20q100 0 201 -48v-142h-61q-10 69 -43 100t-96 31q-142 0 -142 -219q0 -221 142 -221q111 0 136 121h82zM337 14q64 -64 64 -115
q0 -42 -31.5 -65t-89.5 -23q-42 0 -91 12v76q37 -9 53 -13t28 -6q25 0 40 11.5t15 31.5q0 12 -12.5 34.5t-35.5 56.5h60z" />
    <glyph glyph-name="egrave" unicode="&#xe7;" horiz-adv-x="593" 
d="M163 254q0 -206 151 -206q116 0 146 123h82q-45 -182 -237 -182q-58 0 -105.5 20t-81 56.5t-51.5 88t-18 115.5q0 63 18 114t51 87.5t79 56.5t102 20q121 0 184.5 -70.5t66.5 -222.5h-387zM434 315q-8 173 -135 173q-118 0 -135 -173h270zM231 812l134 -193h-69l-174 193
h109z" />
    <glyph glyph-name="eacute" unicode="&#xe8;" horiz-adv-x="603" 
d="M163 254q0 -206 151 -206q116 0 146 123h82q-45 -182 -237 -182q-58 0 -105.5 20t-81 56.5t-51.5 88t-18 115.5q0 63 18 114t51 87.5t79 56.5t102 20q121 0 184.5 -70.5t66.5 -222.5h-387zM434 315q-8 173 -135 173q-118 0 -135 -173h270zM364 813h111l-175 -193h-68z
" />
    <glyph glyph-name="ecircumflex" unicode="&#xe9;" horiz-adv-x="598" 
d="M163 254q0 -206 151 -206q116 0 146 123h82q-45 -182 -237 -182q-58 0 -105.5 20t-81 56.5t-51.5 88t-18 115.5q0 63 18 114t51 87.5t79 56.5t102 20q121 0 184.5 -70.5t66.5 -222.5h-387zM434 315q-8 173 -135 173q-118 0 -135 -173h270zM255 813h88l120 -193h-67
l-98 124q-24 -31 -48 -62.5t-48 -61.5h-68z" />
    <glyph glyph-name="edieresis" unicode="&#xea;" horiz-adv-x="609" 
d="M163 254q0 -206 151 -206q116 0 146 123h82q-45 -182 -237 -182q-58 0 -105.5 20t-81 56.5t-51.5 88t-18 115.5q0 63 18 114t51 87.5t79 56.5t102 20q121 0 184.5 -70.5t66.5 -222.5h-387zM434 315q-8 173 -135 173q-118 0 -135 -173h270zM204 779q26 0 44 -17.5
t18 -43.5q0 -29 -17 -46t-45 -17q-26 0 -44 17t-18 46q0 26 18.5 43.5t43.5 17.5zM394 779q26 0 44 -17.5t18 -43.5q0 -29 -18 -46t-44 -17t-43.5 17t-17.5 46q0 26 17.5 43.5t43.5 17.5z" />
    <glyph glyph-name="igrave" unicode="&#xeb;" horiz-adv-x="339" 
d="M218 65h85v-61h-270v61h86v406h-86v61h185v-467zM93 812l129 -193h-63l-175 193h109z" />
    <glyph glyph-name="iacute" unicode="&#xec;" horiz-adv-x="344" 
d="M219 65h85v-61h-271v61h86v406h-86v61h186v-467zM227 813h111l-175 -193h-68z" />
    <glyph glyph-name="icircumflex" unicode="&#xed;" horiz-adv-x="339" 
d="M219 65h85v-61h-271v61h86v406h-86v61h186v-467zM118 813h98l109 -193h-66l-98 124q-24 -31 -48 -62.5t-49 -61.5h-67z" />
    <glyph glyph-name="idieresis" unicode="&#xee;" horiz-adv-x="355" 
d="M219 65h85v-61h-271v61h86v406h-86v61h186v-467zM66 779q26 0 44.5 -17.5t18.5 -43.5q0 -29 -17.5 -46t-45.5 -17q-26 0 -43.5 17t-17.5 46q0 26 18 43.5t43 17.5zM257 779q26 0 43.5 -17.5t17.5 -43.5q0 -29 -17.5 -46t-43.5 -17t-44 17t-18 46q0 26 18 43.5t44 17.5z
" />
    <glyph glyph-name="eth" unicode="&#xef;" horiz-adv-x="614" 
d="M403 457h-3q-1 1 -1 4zM445 259q0 21 -11.5 70.5t-33.5 127.5q-20 4 -39.5 6.5t-37.5 2.5q-84 0 -122 -51t-38 -158q0 -102 36.5 -155.5t104.5 -53.5q69 0 105 53t36 158zM383 644q88 -83 132.5 -176t44.5 -199q0 -63 -18.5 -114.5t-52 -88.5t-81 -57t-104.5 -20
q-58 0 -105 20.5t-80.5 56.5t-51.5 86t-18 110q0 58 18.5 106.5t52 82.5t80 53t102.5 19q17 0 33 -1t39 -4q-20 44 -65 92l-159 -73l-21 48l140 64q-57 54 -149 73l11 52q121 -26 208 -92l161 75l21 -48z" />
    <glyph glyph-name="ntilde" unicode="&#xf0;" horiz-adv-x="656" 
d="M40 4v61h81v406h-86v61h186v-76q52 91 152 91q88 0 130 -49.5t42 -158.5v-274h80v-61h-258v61h77v246q0 46 -5.5 77t-17.5 50t-31 26.5t-46 7.5q-60 0 -91.5 -43.5t-31.5 -130.5v-233h78v-61h-259zM291 700q-12 11 -18.5 15t-15.5 4q-20 0 -29.5 -19.5t-11.5 -57.5h-57
q1 73 27 110.5t73 37.5q35 0 77 -35l22 -23q11 -10 19 -13.5t15 -3.5q20 0 30 19.5t12 55.5h57q-1 -70 -27 -109t-73 -39q-20 0 -36 7t-35 25z" />
    <glyph glyph-name="ograve" unicode="&#xf1;" horiz-adv-x="609" 
d="M304 48q141 0 141 221q0 219 -141 219t-141 -219q0 -221 141 -221zM304 -11q-58 0 -105 20t-80.5 56.5t-51.5 88t-18 115.5q0 62 18 113.5t51.5 88t80.5 56.5t105 20q57 0 104.5 -20t81 -56.5t52 -88t18.5 -113.5q0 -63 -18.5 -114.5t-52 -88.5t-81 -57t-104.5 -20z
M236 812l134 -193h-69l-174 193h109z" />
    <glyph glyph-name="oacute" unicode="&#xf2;" horiz-adv-x="635" 
d="M304 48q141 0 141 221q0 219 -141 219t-141 -219q0 -221 141 -221zM304 -11q-58 0 -105 20t-80.5 56.5t-51.5 88t-18 115.5q0 62 18 113.5t51.5 88t80.5 56.5t105 20q57 0 104.5 -20t81 -56.5t52 -88t18.5 -113.5q0 -63 -18.5 -114.5t-52 -88.5t-81 -57t-104.5 -20z
M369 813h111l-175 -193h-68z" />
    <glyph glyph-name="ocircumflex" unicode="&#xf3;" horiz-adv-x="603" 
d="M304 48q141 0 141 221q0 219 -141 219t-141 -219q0 -221 141 -221zM304 -11q-58 0 -105 20t-80.5 56.5t-51.5 88t-18 115.5q0 62 18 113.5t51.5 88t80.5 56.5t105 20q57 0 104.5 -20t81 -56.5t52 -88t18.5 -113.5q0 -63 -18.5 -114.5t-52 -88.5t-81 -57t-104.5 -20z
M260 813h88l120 -193h-67l-98 124q-24 -31 -48 -62.5t-48 -61.5h-68z" />
    <glyph glyph-name="otilde" unicode="&#xf4;" horiz-adv-x="593" 
d="M304 48q141 0 141 221q0 219 -141 219t-141 -219q0 -221 141 -221zM304 -11q-58 0 -105 20t-80.5 56.5t-51.5 88t-18 115.5q0 62 18 113.5t51.5 88t80.5 56.5t105 20q57 0 104.5 -20t81 -56.5t52 -88t18.5 -113.5q0 -63 -18.5 -114.5t-52 -88.5t-81 -57t-104.5 -20z
M270 700h1q-11 11 -18.5 15t-16.5 4q-36 0 -41 -77h-57q1 73 27 110.5t73 37.5q35 0 77 -35l23 -23q10 -10 18 -13.5t16 -3.5q19 0 29.5 19.5t12.5 55.5h56q-1 -70 -27 -109t-73 -39q-20 0 -36 7t-35 25z" />
    <glyph glyph-name="odieresis" unicode="&#xf5;" horiz-adv-x="593" 
d="M304 48q141 0 141 221q0 219 -141 219t-141 -219q0 -221 141 -221zM304 -11q-58 0 -105 20t-80.5 56.5t-51.5 88t-18 115.5q0 62 18 113.5t51.5 88t80.5 56.5t105 20q57 0 104.5 -20t81 -56.5t52 -88t18.5 -113.5q0 -63 -18.5 -114.5t-52 -88.5t-81 -57t-104.5 -20z
M209 779q26 0 44 -17.5t18 -43.5q0 -29 -17 -46t-45 -17q-26 0 -44 17t-18 46q0 26 18 43.5t44 17.5zM399 779q26 0 44 -17.5t18 -43.5q0 -29 -18 -46t-44 -17t-43.5 17t-17.5 46q0 26 17.5 43.5t43.5 17.5z" />
    <glyph glyph-name="divide" unicode="&#xf7;" horiz-adv-x="665" 
d="M271 390q0 23 16 38t39 15t39 -15.5t16 -37.5q0 -24 -16 -40t-39 -16t-39 15t-16 41zM271 111q0 23 16 39t39 16t39 -16t16 -39t-16 -39t-39 -16t-39 16t-16 39zM80 285h492v-70h-492v70z" />
    <glyph glyph-name="oslash" horiz-adv-x="584" 
d="M522 304l32 -31l-73 -85q28 -37 41.5 -79.5t13.5 -89.5q0 -62 -20.5 -113t-55 -88t-79.5 -57.5t-95 -20.5q-45 0 -80 13t-77 48q-17 -20 -36 -42.5t-37 -41.5l-33 30l77 87q-26 36 -41 84.5t-15 90.5q0 60 21 110t56 86t79.5 55.5t92.5 19.5q45 0 81.5 -12.5t74.5 -44.5z
M388 154q-27 48 -52 64.5t-60 16.5q-52 0 -86 -43t-34 -140q0 -40 4 -73t14 -62zM195 -129q26 -46 51 -64.5t62 -18.5q27 0 48.5 10t37 33t24 60t8.5 90q0 23 -5.5 55t-14.5 72z" />
    <glyph glyph-name="ugrave" unicode="&#xf8;" horiz-adv-x="646" 
d="M352 532h178v-467h85v-61h-185v76q-52 -91 -151 -91q-88 0 -130.5 50t-42.5 158v274h-81v61h182v-306q0 -47 5 -78t17 -49.5t31 -26t47 -7.5q60 0 91.5 44t31.5 130v232h-78v61zM221 812l133 -193h-68l-175 193h110z" />
    <glyph glyph-name="uacute" unicode="&#xf9;" horiz-adv-x="651" 
d="M352 532h178v-467h85v-61h-185v76q-52 -91 -151 -91q-88 0 -130.5 49.5t-42.5 158.5v274h-81v61h182v-306q0 -47 5 -78t17 -49.5t31 -26t47 -7.5q60 0 91.5 43.5t31.5 130.5v232h-78v61zM353 813h112l-175 -193h-68z" />
    <glyph glyph-name="ucircumflex" unicode="&#xfa;" horiz-adv-x="662" 
d="M352 532h178v-467h85v-61h-185v76q-52 -91 -151 -91q-88 0 -130.5 50t-42.5 158v274h-81v61h182v-306q0 -47 5 -78t17 -49.5t31 -26t47 -7.5q60 0 91.5 44t31.5 130v232h-78v61zM245 813h88l120 -193h-67l-98 124q-24 -31 -48.5 -62.5t-48.5 -61.5h-67z" />
    <glyph glyph-name="udieresis" unicode="&#xfb;" horiz-adv-x="651" 
d="M352 532h178v-467h85v-61h-185v76q-25 -45 -62.5 -68t-88.5 -23q-88 0 -130.5 49.5t-42.5 158.5v274h-81v61h182v-306q0 -47 5 -78t17 -49.5t31 -26t47 -7.5q60 0 91.5 43.5t31.5 130.5v232h-78v61zM193 779q26 0 44.5 -17.5t18.5 -43.5q0 -29 -17.5 -46t-45.5 -17
q-26 0 -43.5 17t-17.5 46q0 26 18 43.5t43 17.5zM384 779q26 0 43.5 -17.5t17.5 -43.5q0 -29 -17.5 -46t-43.5 -17q-27 0 -44.5 17t-17.5 46q0 26 18 43.5t44 17.5z" />
    <glyph glyph-name="yacute" unicode="&#xfc;" horiz-adv-x="603" 
d="M247 0l-192 471h-59v61h248v-61h-81l139 -339q35 86 69 168.5t69 170.5h-74v61h204v-61h-59l-237 -581q-13 -31 -26.5 -52t-30 -33.5t-37.5 -18t-49 -5.5q-26 0 -51 4t-49 13v107h55q3 -33 16 -47t39 -14q23 0 40 15.5t33 55.5zM351 813h111l-175 -193h-68z" />
    <glyph glyph-name="thorn" unicode="&#xfd;" horiz-adv-x="635" 
d="M214 242q0 -186 134 -186q135 0 135 213q0 211 -135 211q-66 0 -100 -47t-34 -139v-52zM114 712h-87v61h187v-310q27 45 65 64.5t98 19.5q48 0 89 -20.5t70 -57t45.5 -88t16.5 -112.5q0 -62 -16.5 -113t-45.5 -88.5t-69.5 -58t-89.5 -20.5q-57 0 -97 21t-66 63v-215h85
v-62h-272v62h87v854z" />
    <glyph glyph-name="ydieresis" unicode="&#xfe;" horiz-adv-x="609" 
d="M247 0l-192 471h-59v61h248v-61h-81l139 -339q35 86 69 168.5t69 170.5h-74v61h204v-61h-59l-237 -581q-13 -31 -26.5 -52t-30 -33.5t-37.5 -18t-49 -5.5q-26 0 -51 4t-49 13v107h55q3 -33 16 -47t39 -14q23 0 40 15.5t33 55.5zM191 779q26 0 44 -17.5t18 -43.5
q0 -29 -17 -46t-45 -17q-26 0 -44 17t-18 46q0 26 18.5 43.5t43.5 17.5zM381 779q26 0 44 -17.5t18 -43.5q0 -29 -18 -46t-44 -17t-43.5 17t-17.5 46q0 26 17.5 43.5t43.5 17.5z" />
    <glyph glyph-name="Amacron" unicode="&#xff;" horiz-adv-x="815" 
d="M211 912h302v-82h-302v82zM211 277h254q-32 85 -63.5 163t-63.5 163zM-6 4v61h64l260 677h90l260 -677h72v-61h-274v61h78l-57 151h-299l-57 -151h77v-61h-214z" />
    <glyph glyph-name="amacron" unicode="&#x100;" horiz-adv-x="607" 
d="M119 764h303v-83h-303v83zM398 278h-111q-129 0 -129 -113q0 -52 32 -82.5t87 -30.5t88 33.5t33 87.5v105zM498 66h81v-62h-181v47q-29 -29 -68 -45.5t-88 -16.5q-89 0 -141.5 47t-52.5 129q0 86 59 131t169 45h122v31q0 57 -34.5 88.5t-98.5 31.5q-105 0 -122 -98h-55
v115l41 10q128 31 142 31q227 0 227 -215v-269z" />
    <glyph glyph-name="Abreve" unicode="&#x101;" horiz-adv-x="834" 
d="M267 939q7 -39 31 -56t72 -17t71.5 17t29.5 56h56q-11 -150 -157 -150q-149 0 -159 150h56zM211 277h254q-32 85 -63.5 163t-63.5 163zM-6 4v61h64l260 677h90l260 -677h72v-61h-274v61h78l-57 151h-299l-57 -151h77v-61h-214z" />
    <glyph glyph-name="abreve" unicode="&#x102;" horiz-adv-x="607" 
d="M191 790q7 -39 31.5 -56t72.5 -17t72 17t30 56h56q-10 -151 -158 -151q-150 0 -160 151h56zM398 278h-111q-129 0 -129 -113q0 -52 32 -82.5t87 -30.5t88 33.5t33 87.5v105zM498 66h81v-62h-181v47q-29 -29 -68 -45.5t-88 -16.5q-89 0 -141.5 47t-52.5 129q0 86 59 131
t169 45h122v31q0 57 -34.5 88.5t-98.5 31.5q-105 0 -122 -98h-55v115l41 10q128 31 142 31q227 0 227 -215v-269z" />
    <glyph glyph-name="Aogonek" unicode="&#x103;" horiz-adv-x="779" 
d="M529 13q-48 -68 -48 -88t15 -32.5t40 -12.5q32 0 61 16v-75q-20 -4 -38 -6.5t-33 -2.5q-58 0 -89 23t-31 65q0 25 15 51.5t50 62.5zM211 277h254q-32 85 -63.5 163t-63.5 163zM-6 4v61h64l260 677h90l260 -677h72v-61h-274v61h78l-57 151h-299l-57 -151h77v-61h-214z" />
    <glyph glyph-name="aogonek" unicode="&#x104;" horiz-adv-x="607" 
d="M459 13q-48 -68 -48 -89q0 -20 15 -32.5t41 -12.5q32 0 61 16v-75q-20 -5 -38.5 -7.5t-33.5 -2.5q-59 0 -90 23.5t-31 65.5q0 25 15.5 52t50.5 63zM398 278h-111q-129 0 -129 -113q0 -52 32 -82.5t87 -30.5t88 33.5t33 87.5v105zM498 66h81v-62h-181v47
q-29 -29 -68 -45.5t-88 -16.5q-89 0 -141.5 47t-52.5 129q0 86 59 131t169 45h122v31q0 57 -34.5 88.5t-98.5 31.5q-105 0 -122 -98h-55v115l41 10q128 31 142 31q227 0 227 -215v-269z" />
    <glyph glyph-name="Cacute" unicode="&#x105;" horiz-adv-x="785" 
d="M716 206q-69 -217 -307 -217q-79 0 -144 29.5t-111.5 81.5t-72.5 121.5t-26 150.5q0 86 26 156.5t73.5 121t114.5 78.5t149 28q8 0 128 -30q29 -7 66.5 -15.5t81.5 -19.5v-176h-64q-18 92 -70 135t-151 43q-232 0 -232 -321q0 -320 232 -320q159 0 207 154h100zM432 940
h111l-137 -138h-69z" />
    <glyph glyph-name="cacute" unicode="&#x106;" horiz-adv-x="528" 
d="M525 170q-20 -89 -76 -135t-144 -46q-58 0 -105.5 20t-81 56.5t-52 88.5t-18.5 116q0 63 18.5 115t52 88.5t81 56.5t105.5 20q51 0 101.5 -11.5t101.5 -36.5v-142h-62q-10 69 -43.5 100.5t-96.5 31.5q-143 0 -143 -222t143 -222q111 0 137 122h82zM365 819h112l-176 -195
h-69z" />
    <glyph glyph-name="Ccircumflex" unicode="&#x107;" horiz-adv-x="785" 
d="M364 940h90l121 -138h-70l-96 77l-98 -77h-69zM716 206q-69 -217 -307 -217q-79 0 -144 29.5t-111.5 81.5t-72.5 121.5t-26 150.5q0 86 26 156.5t73.5 121t114.5 78.5t149 28q8 0 128 -30q29 -7 66.5 -15.5t81.5 -19.5v-176h-64q-18 92 -70 135t-151 43q-232 0 -232 -321
q0 -320 232 -320q159 0 207 154h100z" />
    <glyph glyph-name="ccircumflex" unicode="&#x108;" horiz-adv-x="528" 
d="M261 819h88l121 -195h-67l-99 125q-24 -31 -48.5 -63t-48.5 -62h-68zM525 170q-20 -89 -76 -135t-144 -46q-58 0 -105.5 20t-81 56.5t-52 88.5t-18.5 116q0 63 18.5 115t52 88.5t81 56.5t105.5 20q51 0 101.5 -11.5t101.5 -36.5v-142h-62q-10 69 -43.5 100.5t-96.5 31.5
q-143 0 -143 -222t143 -222q111 0 137 122h82z" />
    <glyph glyph-name="Cdot" unicode="&#x109;" horiz-adv-x="785" 
d="M409 933q25 0 43 -18t18 -43q0 -26 -17.5 -44t-43.5 -18t-44.5 18t-18.5 44q0 25 18.5 43t44.5 18zM716 206q-69 -217 -307 -217q-79 0 -144 29.5t-111.5 81.5t-72.5 121.5t-26 150.5q0 86 26 156.5t73.5 121t114.5 78.5t149 28q8 0 128 -30q29 -7 66.5 -15.5t81.5 -19.5
v-176h-64q-18 92 -70 135t-151 43q-232 0 -232 -321q0 -320 232 -320q159 0 207 154h100z" />
    <glyph glyph-name="cdot" unicode="&#x10a;" horiz-adv-x="550" 
d="M305 784q26 0 44 -18t18 -44q0 -28 -17.5 -45t-44.5 -17q-28 0 -45.5 17t-17.5 45q0 26 18.5 44t44.5 18zM525 170q-20 -89 -76 -135t-144 -46q-58 0 -105.5 20t-81 56.5t-52 88.5t-18.5 116q0 63 18.5 115t52 88.5t81 56.5t105.5 20q51 0 101.5 -11.5t101.5 -36.5v-142
h-62q-10 69 -43.5 100.5t-96.5 31.5q-143 0 -143 -222t143 -222q111 0 137 122h82z" />
    <glyph glyph-name="Ccaron" unicode="&#x10b;" horiz-adv-x="785" 
d="M716 206q-69 -217 -307 -217q-79 0 -144 29.5t-111.5 81.5t-72.5 121.5t-26 150.5q0 86 26 156.5t73.5 121t114.5 78.5t149 28q8 0 128 -30q29 -7 66.5 -15.5t81.5 -19.5v-176h-64q-18 92 -70 135t-151 43q-232 0 -232 -321q0 -320 232 -320q159 0 207 154h100zM360 802
l-122 138h69l98 -78q23 18 48.5 39t48.5 39h69l-121 -138h-90z" />
    <glyph glyph-name="ccaron" unicode="&#x10c;" horiz-adv-x="528" 
d="M525 170q-20 -89 -76 -135t-144 -46q-58 0 -105.5 20t-81 56.5t-52 88.5t-18.5 116q0 63 18.5 115t52 88.5t81 56.5t105.5 20q51 0 101.5 -11.5t101.5 -36.5v-142h-62q-10 69 -43.5 100.5t-96.5 31.5q-143 0 -143 -222t143 -222q111 0 137 122h82zM256 624l-122 195h68
l97 -125q24 31 49.5 62.5t49.5 62.5h67l-120 -195h-89z" />
    <glyph glyph-name="Dcaron" unicode="&#x10d;" horiz-adv-x="844" 
d="M257 65h86q289 0 289 309q0 306 -289 306h-86v-615zM55 4v61h92v615h-92v62h294q94 0 169.5 -25t127.5 -72t80 -115.5t28 -155.5t-27.5 -155.5t-80 -116.5t-127.5 -73t-170 -25h-294zM322 802l-122 138h69l98 -78q23 18 48.5 39t48.5 39h69l-121 -138h-90z" />
    <glyph glyph-name="dcaron" unicode="&#x10e;" horiz-adv-x="753" 
d="M536 66h87v-62h-187v70q-27 -45 -65.5 -65t-98.5 -20q-50 0 -91 20.5t-70 58t-45.5 89t-16.5 113.5t16.5 113.5t46 88.5t70.5 57.5t90 20.5q112 0 164 -84v251h-86v62h186v-713zM436 296q0 188 -136 188t-136 -214t136 -214t136 188v52zM644 778h110l-74 -195h-68z" />
    <glyph glyph-name="Dslash" unicode="&#x10f;" horiz-adv-x="844" 
d="M261 65h87q288 0 288 309q0 306 -288 306h-87v-254h164v-72h-164v-289zM60 4v61h92v289h-97v72h97v254h-92v62h294q94 0 169 -25t127.5 -72t80 -115.5t27.5 -155.5t-27.5 -155.5t-79.5 -116.5t-127 -73t-170 -25h-294z" />
    <glyph glyph-name="dcroat" unicode="&#x110;" horiz-adv-x="669" 
d="M536 66h86v-62h-187v70q-27 -45 -65.5 -65t-98.5 -20q-49 0 -90 20.5t-70.5 58t-46 89t-16.5 113.5t16.5 113.5t46 88.5t70.5 57.5t90 20.5q58 0 98 -20.5t66 -63.5v141h-160v61h160v49h-85v62h186v-111h86v-61h-86v-541zM435 296q0 94 -34.5 141t-100.5 47
q-137 0 -137 -214t137 -214q66 0 100.5 47t34.5 141v52z" />
    <glyph glyph-name="Emacron" unicode="&#x111;" horiz-adv-x="713" 
d="M201 913h302v-82h-302v82zM54 4v61h93v615h-93v62h596v-172h-69v103h-325v-235h229v91h70v-252h-70v92h-229v-296h333v103h69v-172h-604z" />
    <glyph glyph-name="emacron" unicode="&#x112;" horiz-adv-x="588" 
d="M148 764h304v-83h-304v83zM163 256q1 -208 152 -208q116 0 148 124h82q-45 -183 -239 -183q-59 0 -106.5 20t-81 56.5t-52 88.5t-18.5 116q0 63 18.5 115t51.5 88.5t79.5 56.5t102.5 20q122 0 186 -70.5t67 -223.5h-390zM436 318q-8 174 -136 174q-118 0 -136 -174h272z
" />
    <glyph glyph-name="Ebreve" unicode="&#x113;" horiz-adv-x="713" 
d="M267 941q18 -54 102 -54t102 54h56q-11 -64 -51 -96t-107 -32q-66 0 -106.5 32t-51.5 96h56zM54 4v61h93v615h-93v62h596v-172h-69v103h-325v-235h229v91h70v-252h-70v92h-229v-296h333v103h69v-172h-604z" />
    <glyph glyph-name="ebreve" unicode="&#x114;" horiz-adv-x="575" 
d="M197 804q7 -39 31 -56.5t72 -17.5t72.5 17.5t30.5 56.5h56q-10 -151 -159 -151t-159 151h56zM163 256q0 -208 152 -208q116 0 148 124h82q-45 -183 -239 -183q-59 0 -106.5 20t-81 56.5t-52 88.5t-18.5 116q0 63 18.5 115t51.5 88.5t79.5 56.5t102.5 20q122 0 186 -70.5
t67 -223.5h-390zM436 318q-8 174 -136 174q-118 0 -136 -174h272z" />
    <glyph glyph-name="Edot" unicode="&#x115;" horiz-adv-x="713" 
d="M369 933q26 0 44 -18t18 -43q0 -26 -17.5 -44t-44.5 -18q-26 0 -44 18t-18 44q0 25 18 43t44 18zM54 4v61h93v615h-93v62h596v-172h-69v103h-325v-235h229v91h70v-252h-70v92h-229v-296h333v103h69v-172h-604z" />
    <glyph glyph-name="edot" unicode="&#x116;" horiz-adv-x="589" 
d="M300 784q26 0 44 -18t18 -44q0 -28 -17.5 -45t-44.5 -17q-28 0 -45 17t-17 45q0 26 18 44t44 18zM163 256q0 -208 152 -208q116 0 148 124h82q-45 -183 -239 -183q-59 0 -106.5 20t-81 56.5t-52 88.5t-18.5 116q0 63 18.5 115t51.5 88.5t79.5 56.5t102.5 20
q122 0 186 -70.5t67 -223.5h-390zM436 318q-8 174 -136 174q-118 0 -136 -174h272z" />
    <glyph glyph-name="Eogonek" unicode="&#x117;" horiz-adv-x="713" 
d="M589 13q-23 -34 -35.5 -55.5t-12.5 -32.5q0 -20 15.5 -32.5t40.5 -12.5q27 0 60 16v-75q-20 -4 -37.5 -6.5t-33.5 -2.5q-58 0 -89 23t-31 65q0 25 15.5 51.5t49.5 62.5zM54 4v61h93v615h-93v62h596v-172h-69v103h-325v-235h229v91h70v-252h-70v92h-229v-296h333v103h69
v-172h-604z" />
    <glyph glyph-name="eogonek" unicode="&#x118;" horiz-adv-x="600" 
d="M163 256q0 -208 152 -208q116 0 148 124h82q-15 -66 -51 -108t-88 -61q-42 -59 -42 -79t15.5 -32.5t40.5 -12.5q33 0 61 16v-75q-20 -5 -38 -7.5t-33 -2.5q-59 0 -90 23.5t-31 65.5q0 23 10.5 44t32.5 47q-7 -1 -13 -1h-13q-59 0 -106.5 20t-81 56.5t-52 88.5t-18.5 116
q0 63 18.5 115t51.5 88.5t79.5 56.5t102.5 20q122 0 186 -70.5t67 -223.5h-390zM436 318q-8 174 -136 174q-118 0 -136 -174h272z" />
    <glyph glyph-name="Ecaron" unicode="&#x119;" horiz-adv-x="713" 
d="M54 4v61h93v615h-93v62h596v-172h-69v103h-325v-235h229v91h70v-252h-70v92h-229v-296h333v103h69v-172h-604zM360 802l-122 138h69l98 -78q23 18 48.5 39t47.5 39h69l-121 -138h-89z" />
    <glyph glyph-name="ecaron" unicode="&#x11a;" horiz-adv-x="589" 
d="M163 256q0 -208 152 -208q116 0 148 124h82q-45 -183 -239 -183q-59 0 -106.5 20t-81 56.5t-52 88.5t-18.5 116q0 63 18.5 115t51.5 88.5t79.5 56.5t102.5 20q122 0 186 -70.5t67 -223.5h-390zM436 318q-8 174 -136 174q-118 0 -136 -174h272zM256 624l-122 195h68
l97 -125q24 31 49.5 62.5t49.5 62.5h68l-121 -195h-89z" />
    <glyph glyph-name="Gcircumflex" unicode="&#x11b;" horiz-adv-x="842" 
d="M378 940h89l121 -138h-69l-96 77l-98 -77h-69zM640 515q-17 92 -69.5 135t-147.5 43q-245 0 -245 -321q0 -320 246 -320q107 0 197 53v179h-138v63h246v-280q-69 -38 -144.5 -58t-160.5 -20q-83 0 -151 27.5t-116.5 78t-75 121t-26.5 156.5q0 87 26.5 158t75 121.5
t117.5 77.5t154 27q63 0 130.5 -15t145.5 -45v-181h-64z" />
    <glyph glyph-name="gcircumflex" unicode="&#x11c;" horiz-adv-x="636" 
d="M255 819h89l121 -195h-68l-98 125q-25 -31 -49 -63t-49 -62h-67zM536 474v-454q0 -116 -62.5 -178t-180.5 -62q-54 0 -101.5 9.5t-93.5 28.5v119h56q9 -51 41 -74.5t92 -23.5q78 0 113 42.5t35 138.5v54q-27 -45 -65.5 -65t-98.5 -20q-49 0 -90 20.5t-70.5 58t-46 89
t-16.5 113.5t16.5 113.5t46 88.5t70.5 57.5t90 20.5q58 0 98 -20.5t66 -63.5v70h187v-62h-86zM435 296q0 94 -34.5 141t-100.5 47q-137 0 -137 -214t137 -214q66 0 100.5 47t34.5 141v52z" />
    <glyph glyph-name="Gbreve" unicode="&#x11d;" horiz-adv-x="814" 
d="M640 515q-17 92 -69.5 135t-147.5 43q-245 0 -245 -321q0 -320 246 -320q107 0 197 53v179h-138v63h246v-280q-69 -38 -144.5 -58t-160.5 -20q-83 0 -151 27.5t-116.5 78t-75 121t-26.5 156.5q0 87 26.5 158t75 121.5t117.5 77.5t154 27q63 0 130.5 -15t145.5 -45v-181
h-64zM301 941q18 -54 103 -54q84 0 101 54h56q-21 -128 -157 -128q-67 0 -107 32t-51 96h55z" />
    <glyph glyph-name="gbreve" unicode="&#x11e;" horiz-adv-x="639" 
d="M536 474v-454q0 -116 -62.5 -178t-180.5 -62q-54 0 -101.5 9.5t-93.5 28.5v119h56q9 -51 41 -74.5t92 -23.5q78 0 113 42.5t35 138.5v54q-27 -45 -65.5 -65t-98.5 -20q-49 0 -90 20.5t-70.5 58t-46 89t-16.5 113.5t16.5 113.5t46 88.5t70.5 57.5t90 20.5q58 0 98 -20.5
t66 -63.5v70h187v-62h-86zM435 296q0 94 -34.5 141t-100.5 47q-137 0 -137 -214t137 -214q66 0 100.5 47t34.5 141v52zM221 804q7 -39 31 -56.5t72 -17.5t72.5 17.5t30.5 56.5h56q-10 -151 -159 -151t-159 151h56z" />
    <glyph glyph-name="Gdot" unicode="&#x11f;" horiz-adv-x="842" 
d="M423 933q25 0 43 -18t18 -43q0 -26 -17.5 -44t-43.5 -18q-27 0 -45 18t-18 44q0 25 18.5 43t44.5 18zM640 515q-17 92 -69.5 135t-147.5 43q-245 0 -245 -321q0 -320 246 -320q107 0 197 53v179h-138v63h246v-280q-69 -38 -144.5 -58t-160.5 -20q-83 0 -151 27.5
t-116.5 78t-75 121t-26.5 156.5q0 87 26.5 158t75 121.5t117.5 77.5t154 27q63 0 130.5 -15t145.5 -45v-181h-64z" />
    <glyph glyph-name="gdot" unicode="&#x120;" horiz-adv-x="587" 
d="M300 784q26 0 44 -18t18 -44q0 -28 -18 -45t-44 -17q-29 0 -46 17t-17 45q0 26 18.5 44t44.5 18zM536 474v-454q0 -116 -62.5 -178t-180.5 -62q-54 0 -101.5 9.5t-93.5 28.5v119h56q9 -51 41 -74.5t92 -23.5q78 0 113 42.5t35 138.5v54q-27 -45 -65.5 -65t-98.5 -20
q-49 0 -90 20.5t-70.5 58t-46 89t-16.5 113.5t16.5 113.5t46 88.5t70.5 57.5t90 20.5q58 0 98 -20.5t66 -63.5v70h187v-62h-86zM435 296q0 94 -34.5 141t-100.5 47q-137 0 -137 -214t137 -214q66 0 100.5 47t34.5 141v52z" />
    <glyph glyph-name="Gcedilla" unicode="&#x121;" horiz-adv-x="842" 
d="M340 -191q39 21 57 48.5t18 65.5v16h87q-3 -58 -33 -95.5t-89 -64.5zM640 515q-17 92 -69.5 135t-147.5 43q-245 0 -245 -321q0 -320 246 -320q107 0 197 53v179h-138v63h246v-280q-69 -38 -144.5 -58t-160.5 -20q-83 0 -151 27.5t-116.5 78t-75 121t-26.5 156.5
q0 87 26.5 158t75 121.5t117.5 77.5t154 27q63 0 130.5 -15t145.5 -45v-181h-64z" />
    <glyph glyph-name="gcedilla" unicode="&#x122;" horiz-adv-x="632" 
d="M425 731q-41 -21 -58.5 -49t-17.5 -66v-15h-88q3 54 32 93t91 67zM536 474v-454q0 -116 -62.5 -178t-180.5 -62q-54 0 -101.5 9.5t-93.5 28.5v119h56q9 -51 41 -74.5t92 -23.5q78 0 113 42.5t35 138.5v54q-27 -45 -65.5 -65t-98.5 -20q-49 0 -90 20.5t-70.5 58t-46 89
t-16.5 113.5t16.5 113.5t46 88.5t70.5 57.5t90 20.5q58 0 98 -20.5t66 -63.5v70h187v-62h-86zM435 296q0 94 -34.5 141t-100.5 47q-137 0 -137 -214t137 -214q66 0 100.5 47t34.5 141v52z" />
    <glyph glyph-name="Hcircumflex" unicode="&#x123;" horiz-adv-x="839" 
d="M396 940h90l121 -138h-70l-96 77l-98 -77h-69zM55 4v61h93v615h-93v62h295v-62h-93v-242h368v242h-93v62h294v-62h-92v-615h92v-61h-294v61h93v304h-368v-304h93v-61h-295z" />
    <glyph glyph-name="hcircumflex" unicode="&#x124;" horiz-adv-x="643" 
d="M84 947h91l121 -140h-69l-98 78l-98 -78h-70zM39 4v62h81v651h-86v62h187v-320q51 91 153 91q89 0 131 -49.5t42 -159.5v-275h81v-62h-260v62h78v247q0 45 -5 76t-17 50t-31.5 27t-47.5 8q-124 0 -124 -174v-234h78v-62h-260z" />
    <glyph glyph-name="Hbar" unicode="&#x125;" horiz-adv-x="839" 
d="M257 438h368v86h-368v-86zM55 4v61h93v459h-93v70h93v86h-93v62h295v-62h-93v-86h368v86h-93v62h294v-62h-92v-86h92v-70h-92v-459h92v-61h-294v61h93v304h-368v-304h93v-61h-295z" />
    <glyph glyph-name="hbar" unicode="&#x126;" horiz-adv-x="657" 
d="M39 4v62h82v533h-87v69h87v49h-87v62h187v-111h155v-69h-155v-140q26 46 64.5 68.5t88.5 22.5q89 0 131 -49.5t42 -159.5v-275h81v-62h-260v62h78v247q0 45 -5 76t-16.5 50t-31 27t-48.5 8q-124 0 -124 -174v-234h79v-62h-261z" />
    <glyph glyph-name="Itilde" unicode="&#x127;" horiz-adv-x="388" 
d="M193 841l-27 14q-20 12 -35 12q-16 0 -27.5 -13.5t-13.5 -36.5h-56q1 54 27 85t69 31q18 0 33.5 -5t43.5 -19l24 -13q24 -13 39 -13q18 0 28 13.5t10 36.5h58q-1 -55 -27.5 -85.5t-75.5 -30.5q-37 0 -70 23v1zM254 65h93v-61h-295v61h93v615h-93v62h295v-62h-93v-615z
" />
    <glyph glyph-name="itilde" unicode="&#x128;" horiz-adv-x="309" 
d="M127 705h1q-12 11 -19 14.5t-16 3.5q-38 0 -41 -76h-57q0 73 26.5 110.5t73.5 37.5q35 0 77 -35l23 -23q11 -11 19 -14t15 -3q20 0 30.5 19.5t12.5 55.5h57q-1 -70 -27.5 -109t-74.5 -39q-19 0 -35.5 7t-34.5 24zM220 66h85v-62h-272v62h86v408h-86v62h187v-470z" />
    <glyph glyph-name="Imacron" unicode="&#x129;" horiz-adv-x="388" 
d="M48 913h302v-82h-302v82zM254 65h93v-61h-295v61h93v615h-93v62h295v-62h-93v-615z" />
    <glyph glyph-name="imacron" unicode="&#x12a;" horiz-adv-x="309" 
d="M-26 764h303v-83h-303v83zM219 66h86v-62h-272v62h86v408h-86v62h186v-470z" />
    <glyph glyph-name="Ibreve" unicode="&#x12b;" horiz-adv-x="396" 
d="M97 941q18 -54 103 -54q83 0 101 54h56q-11 -64 -51 -96t-106 -32q-67 0 -107.5 32t-51.5 96h56zM254 65h93v-61h-295v61h93v615h-93v62h295v-62h-93v-615z" />
    <glyph glyph-name="ibreve" unicode="&#x12c;" horiz-adv-x="319" 
d="M58 804q7 -39 31.5 -56.5t72.5 -17.5t72 17.5t30 56.5h56q-10 -151 -158 -151q-150 0 -160 151h56zM220 66h85v-62h-272v62h86v408h-86v62h187v-470z" />
    <glyph glyph-name="Iogonek" unicode="&#x12d;" horiz-adv-x="389" 
d="M254 65h93v-61h-96q-20 -30 -30.5 -49.5t-10.5 -29.5q0 -20 15.5 -32.5t40.5 -12.5q32 0 60 16v-75q-20 -4 -37.5 -6.5t-33.5 -2.5q-58 0 -89 23t-31 65q0 23 14 48t42 56h-139v61h93v615h-93v62h295v-62h-93v-615z" />
    <glyph glyph-name="iogonek" unicode="&#x12e;" horiz-adv-x="316" 
d="M94 693q0 25 17.5 43t43.5 18q25 0 43 -18t18 -43t-17.5 -42.5t-43.5 -17.5t-43.5 17.5t-17.5 42.5zM220 66h85v-62h-272v62h86v408h-86v62h187v-470zM225 14q-50 -70 -50 -90t15.5 -32.5t40.5 -12.5q28 0 61 16v-75q-20 -5 -38 -7.5t-33 -2.5q-59 0 -90 23.5t-31 65.5
q0 25 15.5 52t50.5 63h59z" />
    <glyph glyph-name="Idotaccent" unicode="&#x12f;" horiz-adv-x="396" 
d="M254 65h93v-61h-295v61h93v615h-93v62h295v-62h-93v-615zM201 933q25 0 43 -18t18 -43q0 -26 -17.5 -44t-43.5 -18q-27 0 -45 18t-18 44q0 25 18.5 43t44.5 18z" />
    <glyph glyph-name="dotlessi" unicode="&#x130;" horiz-adv-x="334" 
d="M220 66h85v-62h-272v62h86v408h-86v62h187v-470z" />
    <glyph glyph-name="IJ" unicode="&#x131;" horiz-adv-x="820" 
d="M257 65h93v-61h-295v61h92v615h-92v62h295v-62h-93v-615zM316 -47h66q2 -95 82 -95q27 0 46 7.5t31 27t17 53.5t5 86v648h-113v62h314v-62h-92v-652q0 -123 -49.5 -177.5t-159.5 -54.5q-36 0 -73.5 8.5t-73.5 25.5v123z" />
    <glyph glyph-name="ij" unicode="&#x132;" horiz-adv-x="665" 
d="M95 693q0 25 17.5 43t43.5 18q25 0 43 -18t18 -43t-17.5 -42.5t-43.5 -17.5t-43.5 17.5t-17.5 42.5zM221 66h85v-62h-272v62h86v408h-86v62h187v-470zM385 693q0 25 17.5 43t43.5 18q25 0 43 -18t18 -43t-17.5 -42.5t-43.5 -17.5t-43.5 17.5t-17.5 42.5zM407 474h-85v62
h186v-578q0 -83 -49.5 -130.5t-135.5 -47.5q-35 0 -69 9t-67 26v115h57q3 -48 22.5 -69.5t58.5 -21.5q42 0 62 28t20 91v516z" />
    <glyph glyph-name="Jcircumflex" unicode="&#x133;" horiz-adv-x="454" 
d="M159 940h90l121 -138h-70l-96 77l-98 -77h-69zM-87 -47h65q2 -95 82 -95q27 0 46 7.5t31 27t17.5 53.5t5.5 86v648h-113v62h314v-62h-93v-652q0 -123 -49 -177.5t-160 -54.5q-36 0 -73 8.5t-73 25.5v123z" />
    <glyph glyph-name="jcircumflex" unicode="&#x134;" horiz-adv-x="297" 
d="M85 819h89l121 -195h-68l-98 125q-25 -31 -49 -63t-49 -62h-68zM119 474h-86v62h186v-578q0 -83 -49.5 -130.5t-135.5 -47.5q-35 0 -68.5 9t-66.5 26v115h57q3 -48 22 -69.5t58 -21.5q42 0 62.5 28t20.5 91v516z" />
    <glyph glyph-name="Kcedilla" unicode="&#x135;" horiz-adv-x="831" 
d="M329 -178q40 22 57.5 49.5t17.5 65.5v15h87q-3 -57 -33 -95t-89 -64zM55 4v61h93v615h-93v62h295v-62h-93v-260l296 260h-72v62h252v-62h-85l-306 -270l344 -345h85v-61h-176l-338 338v-277h93v-61h-295z" />
    <glyph glyph-name="kcedilla" unicode="&#x136;" horiz-adv-x="574" 
d="M244 -179q40 22 57.5 49.5t17.5 65.5v16h88q-3 -58 -33 -96t-90 -64zM296 4h-264v62h82v651h-88v62h188v-493l204 188h-69v62h246v-62h-92l-150 -140l194 -268h77v-62h-267v62h69l-147 202q-17 -15 -32.5 -30.5t-32.5 -31.5v-140h82v-62z" />
    <glyph glyph-name="kgreenlandic" unicode="&#x137;" horiz-adv-x="574" 
d="M295 4h-262v61h81v404h-87v62h187v-248l201 186h-67v62h245v-62h-92l-151 -138l195 -266h76v-61h-266v61h70l-147 201q-17 -16 -32 -31t-32 -31v-139h81v-61z" />
    <glyph glyph-name="Lacute" unicode="&#x138;" horiz-adv-x="713" 
d="M267 -178q40 22 57.5 49.5t17.5 65.5v15h87q-3 -57 -33 -95t-89 -64zM54 4v61h93v615h-93v62h295v-62h-93v-607h323v122h69v-191h-594z" />
    <glyph glyph-name="lacute" unicode="&#x139;" horiz-adv-x="333" 
d="M43 -176q40 22 57.5 49.5t17.5 65.5v16h88q-3 -58 -33 -96t-90 -64zM213 66h85v-62h-273v62h87v651h-87v62h188v-713z" />
    <glyph glyph-name="Lcedilla" unicode="&#x13a;" horiz-adv-x="713" 
d="M449 742h110l-75 -193h-67zM54 4v61h93v615h-93v62h295v-62h-93v-607h323v122h69v-191h-594z" />
    <glyph glyph-name="lcedilla" unicode="&#x13b;" horiz-adv-x="333" 
d="M43 -176q40 22 57.5 49.5t17.5 65.5v16h88q-3 -58 -33 -96t-90 -64zM213 66h85v-62h-273v62h87v651h-87v62h188v-713z" />
    <glyph glyph-name="Lcaron" unicode="&#x13c;" horiz-adv-x="713" 
d="M449 742h110l-75 -193h-67zM54 4v61h93v615h-93v62h295v-62h-93v-607h323v122h69v-191h-594z" />
    <glyph glyph-name="lcaron" unicode="&#x13d;" horiz-adv-x="477" 
d="M320 779h111l-75 -195h-68zM213 66h86v-62h-273v62h87v651h-87v62h187v-713z" />
    <glyph glyph-name="Ldot" unicode="&#x13e;" horiz-adv-x="713" 
d="M486 421q0 29 20 49.5t51 20.5q29 0 49 -20.5t20 -49.5t-20 -49t-49 -20q-31 0 -51 20t-20 49zM54 4v61h93v615h-93v62h295v-62h-93v-607h323v122h69v-191h-594z" />
    <glyph glyph-name="ldot" unicode="&#x13f;" horiz-adv-x="401" 
d="M277 419q0 29 20 50t51 21q29 0 49.5 -21t20.5 -50q0 -30 -20.5 -50t-49.5 -20q-31 0 -51 20t-20 50zM213 66h86v-62h-274v62h88v651h-88v62h188v-713z" />
    <glyph glyph-name="Lslash" unicode="&#x140;" horiz-adv-x="711" 
d="M59 4v61h93v220l-73 -53l-40 53l113 80v315h-93v62h294v-62h-93v-238q36 26 73 54.5t72 54.5l40 -53l-185 -136v-289h324v122h69v-191h-594z" />
    <glyph glyph-name="lslash" unicode="&#x141;" horiz-adv-x="326" 
d="M217 66h86v-62h-272v62h85v268l-63 -45l-37 50l100 71v307h-85v62h186v-299l68 46l35 -50l-103 -72v-338z" />
    <glyph glyph-name="Nacute" unicode="&#x142;" horiz-adv-x="829" 
d="M459 941h112l-138 -139h-69zM49 4v61h98v615h-98v62h194l430 -565v503h-98v62h266v-62h-99v-691h-65l-460 605v-529h98v-61h-266z" />
    <glyph glyph-name="nacute" unicode="&#x143;" horiz-adv-x="636" 
d="M356 795h112l-176 -194h-69zM39 4v62h82v408h-87v62h187v-77q26 46 64.5 68.5t88.5 22.5q89 0 131 -49.5t42 -159.5v-275h81v-62h-260v62h78v247q0 47 -5.5 78t-18 50t-31.5 26.5t-46 7.5q-124 0 -124 -175v-234h79v-62h-261z" />
    <glyph glyph-name="Ncedilla" unicode="&#x144;" horiz-adv-x="829" 
d="M338 -184q40 21 57.5 48.5t17.5 65.5v15h87q-3 -57 -33 -95t-89 -64zM49 4v61h98v615h-98v62h194l430 -565v503h-98v62h266v-62h-99v-691h-65l-460 605v-529h98v-61h-266z" />
    <glyph glyph-name="ncedilla" unicode="&#x145;" horiz-adv-x="664" 
d="M249 -179q40 22 57.5 49.5t17.5 65.5v16h88q-3 -58 -33 -96t-90 -64zM39 4v62h82v408h-87v62h187v-77q26 46 64.5 68.5t88.5 22.5q89 0 131 -49.5t42 -159.5v-275h81v-62h-260v62h78v247q0 47 -5.5 78t-18 50t-31.5 26.5t-46 7.5q-124 0 -124 -175v-234h79v-62h-261z" />
    <glyph glyph-name="Ncaron" unicode="&#x146;" horiz-adv-x="886" 
d="M49 4v61h98v615h-98v62h194l430 -565v503h-98v62h266v-62h-99v-691h-65l-460 605v-529h98v-61h-266zM384 806l-83 139h31l98 -78q23 18 48.5 39t48.5 39h69l-121 -139h-91z" />
    <glyph glyph-name="ncaron" unicode="&#x147;" horiz-adv-x="664" 
d="M39 4v62h82v408h-87v62h187v-77q26 46 64.5 68.5t88.5 22.5q89 0 131 -50t42 -159v-275h81v-62h-260v62h78v247q0 47 -5.5 78t-18 50t-31.5 26.5t-46 7.5q-124 0 -124 -175v-234h79v-62h-261zM256 624l-121 195h67l98 -125q23 31 49 62.5t49 62.5h68l-121 -195h-89z" />
    <glyph glyph-name="napostrophe" unicode="&#x148;" horiz-adv-x="871" 
d="M52 543q40 33 57 74t17 103v36h105q0 -89 -32 -150.5t-102 -107.5zM236 4v61h81v406h-86v61h185v-76q52 91 152 91q89 0 130.5 -49.5t41.5 -158.5v-274h80v-61h-257v61h77v246q0 46 -6 77t-18 50t-31 26.5t-46 7.5q-60 0 -91.5 -43.5t-31.5 -130.5v-233h78v-61h-258z" />
    <glyph glyph-name="Eng" unicode="&#x149;" horiz-adv-x="823" 
d="M47 4v61h92v615h-86v62h196v-87q73 102 220 102q127 0 186 -72.5t59 -225.5v-431q0 -123 -49 -177.5t-160 -54.5q-77 0 -147 36v121h64q0 -95 83 -95q26 0 45 7t31 26t17.5 53t5.5 88v406q0 71 -8.5 118t-28 75t-50 39.5t-74.5 11.5q-96 0 -145 -58t-49 -183v-376h92v-61
h-294z" />
    <glyph glyph-name="eng" unicode="&#x14a;" horiz-adv-x="588" 
d="M39 4v62h81v408h-86v62h187v-77q51 91 153 91q89 0 131 -49.5t42 -159.5v-383q0 -83 -49.5 -130.5t-135.5 -47.5q-35 0 -68.5 9t-66.5 26v115h57q3 -48 22 -69.5t58 -21.5q42 0 62 28t20 91v355q0 47 -6 78t-18 50t-31 26.5t-46 7.5q-124 0 -124 -175v-234h78v-62h-260z
" />
    <glyph glyph-name="Omacron" unicode="&#x14b;" horiz-adv-x="849" 
d="M264 913h301v-82h-301v82zM415 52q236 0 236 320q0 321 -236 321q-237 0 -237 -321q0 -320 237 -320zM415 -11q-82 0 -148.5 29.5t-113 81.5t-72 121.5t-25.5 150.5t25.5 151t72 122t113 81.5t148.5 29.5q79 0 145 -28t113 -78.5t73.5 -121t26.5 -156.5q0 -82 -25.5 -152
t-72.5 -121.5t-113 -80.5t-147 -29z" />
    <glyph glyph-name="omacron" unicode="&#x14c;" horiz-adv-x="593" 
d="M153 764h304v-83h-304v83zM305 48q142 0 142 222t-142 222t-142 -222t142 -222zM305 -11q-58 0 -105.5 20t-81 56.5t-52 88.5t-18.5 116q0 63 18.5 114.5t52 88.5t81 57t105.5 20t105.5 -20t81.5 -57t52.5 -88.5t18.5 -114.5t-18.5 -115t-52.5 -89t-81.5 -57t-105.5 -20z
" />
    <glyph glyph-name="Obreve" unicode="&#x14d;" horiz-adv-x="849" 
d="M312 941q18 -54 103 -54q84 0 101 54h56q-21 -128 -157 -128q-70 0 -108.5 31.5t-49.5 96.5h55zM415 52q236 0 236 320q0 321 -236 321q-237 0 -237 -321q0 -320 237 -320zM415 -11q-82 0 -148.5 29.5t-113 81.5t-72 121.5t-25.5 150.5t25.5 151t72 122t113 81.5
t148.5 29.5q79 0 145 -28t113 -78.5t73.5 -121t26.5 -156.5q0 -82 -25.5 -152t-72.5 -121.5t-113 -80.5t-147 -29z" />
    <glyph glyph-name="obreve" unicode="&#x14e;" horiz-adv-x="593" 
d="M202 804q7 -39 31 -56.5t72 -17.5t72.5 17.5t30.5 56.5h56q-10 -151 -159 -151t-159 151h56zM305 48q142 0 142 222t-142 222t-142 -222t142 -222zM305 -11q-58 0 -105.5 20t-81 56.5t-52 88.5t-18.5 116q0 63 18.5 114.5t52 88.5t81 57t105.5 20t105.5 -20t81.5 -57
t52.5 -88.5t18.5 -114.5t-18.5 -115t-52.5 -89t-81.5 -57t-105.5 -20z" />
    <glyph glyph-name="Odblacute" unicode="&#x14f;" horiz-adv-x="849" 
d="M524 940h112l-138 -138h-69zM370 940h110l-137 -138h-69zM415 52q236 0 236 320q0 321 -236 321q-237 0 -237 -321q0 -320 237 -320zM415 -11q-82 0 -148.5 29.5t-113 81.5t-72 121.5t-25.5 150.5t25.5 151t72 122t113 81.5t148.5 29.5q79 0 145 -28t113 -78.5t73.5 -121
t26.5 -156.5q0 -82 -25.5 -152t-72.5 -121.5t-113 -80.5t-147 -29z" />
    <glyph glyph-name="odblacute" unicode="&#x150;" horiz-adv-x="593" 
d="M295 819h95l-126 -195h-67zM457 819h100l-149 -195h-68zM305 48q142 0 142 222t-142 222t-142 -222t142 -222zM305 -11q-58 0 -105.5 20t-81 56.5t-52 88.5t-18.5 116q0 63 18.5 114.5t52 88.5t81 57t105.5 20t105.5 -20t81.5 -57t52.5 -88.5t18.5 -114.5t-18.5 -115
t-52.5 -89t-81.5 -57t-105.5 -20z" />
    <glyph glyph-name="OE" unicode="&#x151;" horiz-adv-x="1038" 
d="M740 685q-6 0 -12 0.5t-13 1.5h-133v-283h95q60 0 85 25t25 82h31v-268h-31q-2 33 -8 54.5t-18.5 34t-32.5 17t-51 4.5h-95v-239q0 -29 2 -44.5t8 -22.5t18 -8.5t32 -1.5h57q33 0 54.5 2t36.5 6.5t26.5 11.5t24.5 18q20 17 37 44.5t33 62.5h33l-63 -196h-332h-16t-21 -1
l-84 -4q-28 -2 -49 -3t-30 -1q-69 0 -130.5 27t-108 77t-73.5 121t-27 158q0 78 23.5 148t68.5 122t110 82.5t148 30.5q1 0 6 -0.5t13 -0.5q16 -1 44 -2t60.5 -1.5t66.5 -1t63 -0.5h262v-173h-19q-10 43 -17.5 66.5t-19 35t-30 14.5t-49.5 5zM466 560q0 34 -2.5 56t-7 35.5
t-11.5 20.5t-16 12q-13 7 -29.5 11t-36.5 4q-53 0 -94 -24.5t-69 -69.5t-42 -108.5t-14 -141.5q0 -70 14 -130t41 -104.5t67.5 -70t93.5 -25.5q35 0 56 7t32 24.5t14.5 47t3.5 73.5v383z" />
    <glyph glyph-name="oe" unicode="&#x152;" horiz-adv-x="731" 
d="M223 38q103 0 103 161q0 160 -103 160q-102 0 -102 -160q0 -161 102 -161zM410 187q3 -149 110 -149q85 0 106 91h63q-33 -136 -175 -136q-45 0 -82 18t-63 49q-27 -32 -63.5 -49.5t-82.5 -17.5q-44 0 -78.5 14.5t-59 41.5t-37.5 65t-13 85q0 46 13.5 84t38 65t59.5 41.5
t77 14.5q45 0 82 -18t64 -49q53 67 141 67q89 0 136 -55.5t49 -161.5h-285zM608 235q-6 124 -98 124q-86 0 -99 -124h197z" />
    <glyph glyph-name="Racute" unicode="&#x153;" horiz-adv-x="804" 
d="M407 941h112l-138 -139h-69zM656 543q0 -145 -151 -175q28 -11 48.5 -33t38.5 -57h-1l103 -213h92v-61h-181l-114 234q-16 32 -30 52.5t-29 32t-32.5 16t-39.5 4.5h-103v-278h102v-61h-304v61h93v615h-93v62h375q109 0 167.5 -51t58.5 -148zM257 404h139q72 0 105.5 33.5
t33.5 105.5t-33.5 104.5t-105.5 32.5h-139v-276z" />
    <glyph glyph-name="racute" unicode="&#x154;" horiz-adv-x="489" 
d="M355 795h112l-176 -194h-69zM488 396h-62q-5 78 -73 78q-66 0 -99.5 -44.5t-33.5 -129.5v-234h105v-62h-286v62h81v409h-86v61h186v-80q55 94 166 94q11 0 37 -3t65 -11v-140z" />
    <glyph glyph-name="Rcedilla" unicode="&#x155;" horiz-adv-x="767" 
d="M336 -178q40 22 57.5 49.5t17.5 65.5v15h87q-3 -57 -33 -95t-89 -64zM656 543q0 -145 -151 -175q28 -11 48.5 -33t38.5 -57h-1l103 -213h92v-61h-181l-114 234q-16 32 -30 52.5t-29.5 32t-32.5 16t-39 4.5h-103v-278h102v-61h-304v61h93v615h-93v62h375q109 0 167.5 -51
t58.5 -148zM257 404h139q72 0 105.5 33.5t33.5 105.5t-33.5 104.5t-105.5 32.5h-139v-276z" />
    <glyph glyph-name="rcedilla" unicode="&#x156;" horiz-adv-x="489" 
d="M45 -179q41 22 58.5 49.5t17.5 65.5v16h88q-3 -58 -33.5 -96t-89.5 -64zM488 396h-62q-5 78 -73 78q-66 0 -99.5 -44.5t-33.5 -129.5v-234h105v-62h-286v62h81v409h-86v61h186v-80q55 94 166 94q7 0 32 -3t70 -11v-140z" />
    <glyph glyph-name="Rcaron" unicode="&#x157;" horiz-adv-x="767" 
d="M656 543q0 -145 -151 -175q28 -11 48.5 -33t38.5 -57h-1l103 -213h92v-61h-181l-114 234q-16 32 -30 52.5t-29.5 32t-32.5 16t-39 4.5h-103v-278h102v-61h-304v61h93v615h-93v62h375q109 0 167.5 -51t58.5 -148zM257 404h139q72 0 105.5 33.5t33.5 105.5t-33.5 104.5
t-105.5 32.5h-139v-276zM316 802l-122 138h70l97 -78q23 18 49 39t48 39h69l-121 -138h-90z" />
    <glyph glyph-name="rcaron" unicode="&#x158;" horiz-adv-x="496" 
d="M488 396h-62q-5 78 -73 78q-66 0 -99.5 -44.5t-33.5 -129.5v-234h105v-62h-286v62h81v409h-86v61h186v-80q55 94 166 94q7 0 32 -3t70 -11v-140zM235 624l-122 195h68l97 -125q24 31 49.5 62.5t49.5 62.5h68l-121 -195h-89z" />
    <glyph glyph-name="Sacute" unicode="&#x159;" horiz-adv-x="671" 
d="M406 941h112l-138 -139h-69zM92 215h66q2 -86 45.5 -124.5t136.5 -38.5q173 0 173 130q0 24 -6.5 42.5t-22 33.5t-42.5 28t-69 26l-96 30q-53 16 -90 35.5t-60 45t-33.5 58t-10.5 75.5q0 97 62.5 148.5t193.5 51.5q51 0 113 -11.5t132 -32.5v-164h-65q-8 77 -50.5 111
t-127.5 34q-75 0 -114 -29t-39 -89q0 -25 5.5 -43.5t22 -34t47 -29.5t80.5 -29l90 -27q96 -30 141.5 -78t45.5 -126q0 -219 -274 -219q-63 0 -125.5 12.5t-128.5 38.5v175z" />
    <glyph glyph-name="sacute" unicode="&#x15a;" horiz-adv-x="470" 
d="M355 795h112l-176 -194h-69zM53 164h62q5 -116 135 -116q120 0 120 85q0 16 -5 28.5t-18 23.5t-36 21.5t-60 21.5l-66 23q-35 12 -60 25t-40.5 29.5t-23 37.5t-7.5 49q0 75 53 116.5t151 41.5q49 0 95 -11t91 -34v-121h-62q-2 51 -34.5 79.5t-86.5 28.5q-111 0 -111 -76
q0 -15 4 -27t16 -22.5t33 -20t54 -19.5l72 -21q76 -24 109.5 -59.5t33.5 -93.5q0 -76 -57.5 -120t-160.5 -44q-53 0 -102.5 11t-98.5 33v131z" />
    <glyph glyph-name="Scircumflex" unicode="&#x15b;" horiz-adv-x="671" 
d="M302 940h90l121 -138h-69l-97 77l-98 -77h-69zM92 215h66q2 -86 45.5 -124.5t136.5 -38.5q173 0 173 130q0 24 -6.5 42.5t-22 33.5t-42.5 28t-69 26l-96 30q-53 16 -90 35.5t-60 45t-33.5 58t-10.5 75.5q0 97 62.5 148.5t193.5 51.5q51 0 113 -11.5t132 -32.5v-164h-65
q-8 77 -50.5 111t-127.5 34q-75 0 -114 -29t-39 -89q0 -25 5.5 -43.5t22 -34t47 -29.5t80.5 -29l90 -27q96 -30 141.5 -78t45.5 -126q0 -219 -274 -219q-63 0 -125.5 12.5t-128.5 38.5v175z" />
    <glyph glyph-name="scircumflex" unicode="&#x15c;" horiz-adv-x="470" 
d="M217 819h88l121 -195h-68l-98 125q-25 -31 -49 -63t-49 -62h-67zM53 164h62q5 -116 135 -116q120 0 120 85q0 16 -5 28.5t-18 23.5t-36 21.5t-60 21.5l-66 23q-35 12 -60 25t-40.5 29.5t-23 37.5t-7.5 49q0 75 53 116.5t151 41.5q49 0 95 -11t91 -34v-121h-62
q-2 51 -34.5 79.5t-86.5 28.5q-111 0 -111 -76q0 -15 4 -27t16 -22.5t33 -20t54 -19.5l72 -21q76 -24 109.5 -59.5t33.5 -93.5q0 -76 -57.5 -120t-160.5 -44q-53 0 -102.5 11t-98.5 33v131z" />
    <glyph glyph-name="Scedilla" unicode="&#x15d;" horiz-adv-x="671" 
d="M92 215h66q2 -86 45.5 -124.5t136.5 -38.5q173 0 173 130q0 24 -6.5 42.5t-22 33.5t-42.5 28t-69 26l-96 30q-53 16 -90 35.5t-60 45t-33.5 58t-10.5 75.5q0 97 63 148.5t193 51.5q51 0 113 -11.5t132 -32.5v-164h-65q-8 77 -50.5 111t-127.5 34q-75 0 -114 -29t-39 -89
q0 -25 5.5 -43.5t22 -34t47 -29.5t80.5 -29l90 -27q96 -30 141.5 -78t45.5 -126q0 -219 -274 -219q-63 0 -125.5 12.5t-128.5 38.5v175zM382 14q63 -63 63 -115q0 -42 -31 -65t-90 -23q-41 0 -90 12v76q28 -9 48 -14t33 -5q25 0 39.5 11.5t14.5 31.5q0 23 -48 91h61z" />
    <glyph glyph-name="scedilla" unicode="&#x15e;" horiz-adv-x="500" 
d="M53 164h62q5 -116 135 -116q120 0 120 85q0 16 -5 28.5t-18 23.5t-36 21.5t-60 21.5l-66 23q-35 12 -60 25t-40.5 29.5t-23 37.5t-7.5 49q0 75 53 116.5t151 41.5q49 0 95 -11t91 -34v-121h-62q-2 51 -34.5 79.5t-86.5 28.5q-111 0 -111 -76q0 -15 4 -27t16 -22.5t33 -20
t54 -19.5l72 -21q76 -24 109.5 -59.5t33.5 -93.5q0 -76 -57.5 -120t-160.5 -44q-53 0 -102.5 11t-98.5 33v131zM296 14q64 -64 64 -116q0 -42 -31.5 -65.5t-90.5 -23.5q-43 0 -91 13v76q37 -9 53.5 -13t27.5 -6q26 0 40.5 11.5t14.5 31.5q0 24 -48 92h61z" />
    <glyph glyph-name="Scaron" unicode="&#x15f;" horiz-adv-x="671" 
d="M302 940h90l121 -138h-69l-97 77l-98 -77h-69zM92 215h66q2 -86 45.5 -124.5t136.5 -38.5q173 0 173 130q0 24 -6.5 42.5t-22 33.5t-42.5 28t-69 26l-96 30q-53 16 -90 35.5t-60 45t-33.5 58t-10.5 75.5q0 96 62 148t194 52q51 0 113 -11.5t132 -32.5v-164h-65
q-8 77 -50.5 111t-127.5 34q-75 0 -114 -29t-39 -89q0 -25 5.5 -43.5t22 -34t47 -29.5t80.5 -29l90 -27q96 -30 141.5 -78t45.5 -126q0 -219 -274 -219q-63 0 -125.5 12.5t-128.5 38.5v175z" />
    <glyph glyph-name="scaron" unicode="&#x160;" horiz-adv-x="470" 
d="M67 164h52q1 -62 33.5 -92t101.5 -30q128 0 128 97q0 18 -4 31.5t-15.5 24t-32 20.5t-53.5 21h1l-71 22q-41 12 -68.5 26.5t-45 33.5t-25 44t-7.5 57q0 71 50 110.5t142 39.5q39 0 85.5 -8t99.5 -25v-124h-51q-6 57 -37.5 82.5t-94.5 25.5q-114 0 -114 -86q0 -18 4 -32.5
t16.5 -26.5t35.5 -22t60 -20l68 -20q75 -24 107.5 -60t32.5 -95q0 -165 -207 -165q-88 0 -191 39v132zM224 602l-93 107h55l73 -59l73 59h55l-94 -107h-69z" />
    <glyph glyph-name="Tcedilla" unicode="&#x161;" horiz-adv-x="716" 
d="M286 -216q21 0 38.5 7t30 17.5t19.5 23.5t7 26t-7 13l-14 -6q-5 -2 -9.5 -4t-12.5 -2q-23 0 -37.5 13.5t-14.5 38.5q0 26 17.5 42t45.5 16q32 0 55 -25t23 -69q0 -23 -6.5 -44.5t-23 -38t-43.5 -26.5t-68 -11v29zM190 4v61h93v610h-205v-115h-69v182h657v-182h-70v115
h-204v-610h92v-61h-294z" />
    <glyph glyph-name="tcedilla" unicode="&#x162;" horiz-adv-x="411" 
d="M105 474h-80v62h80v162h101v-162h170v-62h-170v-327q0 -33 3 -52.5t9.5 -30t17 -13.5t25.5 -3q34 0 48.5 20.5t15.5 68.5h78q-4 -66 -29.5 -101.5t-79.5 -43.5q44 -54 44 -94q0 -42 -31.5 -65.5t-90.5 -23.5q-43 0 -91 13v76q28 -9 48.5 -14t32.5 -5q26 0 40.5 11.5
t14.5 31.5q0 11 -7.5 28.5t-23.5 39.5q-36 2 -60 12t-38.5 29t-20.5 47.5t-6 68.5v327z" />
    <glyph glyph-name="Tcaron" unicode="&#x163;" horiz-adv-x="716" 
d="M190 4v61h93v610h-205v-115h-69v182h657v-182h-70v115h-204v-610h92v-61h-294zM289 802l-122 138h69l98 -78q23 18 48.5 39t48.5 39h69l-121 -138h-90z" />
    <glyph glyph-name="tcaron" unicode="&#x164;" horiz-adv-x="495" 
d="M105 474h-80v62h80v162h101v-162h170v-62h-170v-327q0 -33 3 -52.5t9.5 -30t17 -13.5t25.5 -3q34 0 48.5 20.5t15.5 68.5h78q-5 -78 -40.5 -113t-109.5 -35q-41 0 -69 8.5t-45.5 27.5t-25.5 49t-8 73v327zM290 806h110l-75 -195h-68z" />
    <glyph glyph-name="Tbar" unicode="&#x165;" horiz-adv-x="716" 
d="M190 4v61h93v270h-130v68h130v272h-205v-115h-69v182h657v-182h-70v115h-204v-272h129v-68h-129v-270h92v-61h-294z" />
    <glyph glyph-name="tbar" unicode="&#x166;" horiz-adv-x="421" 
d="M105 474h-80v62h80v162h101v-162h170v-62h-170v-105h94v-80h-94v-142q0 -33 3 -52.5t9.5 -30t17 -13.5t25.5 -3q33 0 47.5 20.5t16.5 68.5h78q-5 -78 -40.5 -113t-109.5 -35q-41 0 -69 8.5t-45.5 27.5t-25.5 49t-8 73v142h-66v80h66v105z" />
    <glyph glyph-name="Utilde" unicode="&#x167;" horiz-adv-x="833" 
d="M439 841l-27 14q-20 12 -35 12q-16 0 -27.5 -13.5t-13.5 -36.5h-57q1 54 27 85t70 31q18 0 33.5 -5t43.5 -19l24 -13q24 -13 39 -13q18 0 28 13.5t10 36.5h57q-1 -55 -27 -85.5t-75 -30.5q-37 0 -70 23v1zM140 680h-93v62h295v-62h-94v-371q0 -68 10.5 -114.5t34 -75.5
t61 -42t92.5 -13q56 0 94 13t61.5 42t33.5 75.5t10 114.5v371h-93v62h256v-62h-93v-381q0 -85 -15 -144t-49 -96t-88.5 -53.5t-133.5 -16.5q-78 0 -133 16.5t-89.5 53.5t-50.5 96t-16 144v381z" />
    <glyph glyph-name="utilde" unicode="&#x168;" horiz-adv-x="574" 
d="M255 705h1q-11 11 -18.5 14.5t-16.5 3.5q-37 0 -41 -76h-57q1 73 27 110.5t73 37.5q19 0 37 -8.5t41 -26.5l22 -23q11 -11 19 -14t16 -3q19 0 29.5 19.5t12.5 55.5h57q-1 -70 -27 -109t-74 -39q-20 0 -36.5 7t-34.5 24zM354 536h179v-470h85v-62h-186v77
q-51 -92 -152 -92q-89 0 -131.5 50t-42.5 160v275h-82v62h183v-309q0 -47 5 -78t17 -49.5t31.5 -26t47.5 -7.5q124 0 124 175v233h-78v62z" />
    <glyph glyph-name="Umacron" unicode="&#x169;" horiz-adv-x="833" 
d="M276 913h301v-82h-301v82zM140 680h-93v62h295v-62h-94v-371q0 -68 10.5 -114.5t34 -75.5t61 -42t92.5 -13q56 0 94 13t61.5 42t33.5 75.5t10 114.5v371h-93v62h256v-62h-93v-381q0 -85 -15 -144t-49 -96t-88.5 -53.5t-133.5 -16.5q-78 0 -133 16.5t-89.5 53.5t-50.5 96
t-16 144v381z" />
    <glyph glyph-name="umacron" unicode="&#x16a;" horiz-adv-x="574" 
d="M161 764h304v-83h-304v83zM354 536h179v-470h85v-62h-186v77q-52 -92 -152 -92q-89 0 -131.5 50t-42.5 160v275h-82v62h183v-309q0 -47 5 -78t17 -49.5t31.5 -26t47.5 -7.5q124 0 124 175v233h-78v62z" />
    <glyph glyph-name="Ubreve" unicode="&#x16b;" horiz-adv-x="833" 
d="M343 941q18 -54 102 -54t102 54h56q-11 -64 -51 -96t-107 -32q-66 0 -106.5 32t-51.5 96h56zM140 680h-93v62h295v-62h-94v-371q0 -68 10.5 -114.5t34 -75.5t61 -42t92.5 -13q56 0 94 13t61.5 42t33.5 75.5t10 114.5v371h-93v62h256v-62h-93v-381q0 -85 -15 -144t-49 -96
t-88.5 -53.5t-133.5 -16.5q-78 0 -133 16.5t-89.5 53.5t-50.5 96t-16 144v381z" />
    <glyph glyph-name="ubreve" unicode="&#x16c;" horiz-adv-x="643" 
d="M187 804q6 -39 30.5 -56.5t72.5 -17.5t72 17.5t30 56.5h56q-10 -151 -158 -151q-150 0 -159 151h56zM354 536h179v-470h85v-62h-186v77q-51 -92 -152 -92q-89 0 -131.5 50t-42.5 160v275h-82v62h183v-309q0 -47 5 -78t17 -49.5t31.5 -26t47.5 -7.5q124 0 124 175v233h-78
v62z" />
    <glyph glyph-name="Uring" unicode="&#x16d;" horiz-adv-x="833" 
d="M140 680h-93v62h295v-62h-94v-371q0 -68 10.5 -114.5t34 -75.5t61 -42t92.5 -13q56 0 94 13t61.5 42t33.5 75.5t10 114.5v371h-93v62h256v-62h-93v-381q0 -85 -15 -144t-49 -96t-88.5 -53.5t-133.5 -16.5q-78 0 -133 16.5t-89.5 53.5t-50.5 96t-16 144v381zM571 925
q0 -29 -11 -54.5t-29.5 -44.5t-44 -29.5t-53.5 -10.5q-29 0 -54.5 10.5t-44.5 29.5t-29.5 44t-10.5 55q0 29 10.5 54.5t29.5 44t44.5 29.5t54.5 11q28 0 53.5 -11t44 -29.5t29.5 -44t11 -54.5zM502 925q0 29 -20 49t-49 20q-30 0 -50 -19.5t-20 -49.5t20 -49.5t50 -19.5
q29 0 49 20t20 49z" />
    <glyph glyph-name="uring" unicode="&#x16e;" horiz-adv-x="650" 
d="M354 536h179v-470h85v-62h-186v77q-51 -92 -152 -92q-89 0 -131.5 50t-42.5 160v275h-82v62h183v-309q0 -47 5 -78t17 -49.5t31.5 -26t47.5 -7.5q124 0 124 175v233h-78v62zM435 748q0 -30 -11 -55.5t-30 -44.5t-44.5 -30t-53.5 -11q-30 0 -55.5 11t-44 29.5t-29.5 44.5
t-11 56q0 29 11 54.5t29.5 44.5t44 30t55.5 11q28 0 53.5 -11t44.5 -30t30 -44.5t11 -54.5zM365 748q0 28 -20 48.5t-49 20.5q-31 0 -50.5 -20t-19.5 -49q0 -30 19.5 -50t50.5 -20q29 0 49 20.5t20 49.5z" />
    <glyph glyph-name="Udblacute" unicode="&#x16f;" horiz-adv-x="833" 
d="M555 940h111l-138 -138h-69zM400 940h111l-138 -138h-68zM140 680h-93v62h295v-62h-94v-371q0 -68 10.5 -114.5t34 -75.5t61 -42t92.5 -13q56 0 94 13t61.5 42t33.5 75.5t10 114.5v371h-93v62h256v-62h-93v-381q0 -85 -15 -144t-49 -96t-88.5 -53.5t-133.5 -16.5
q-78 0 -133 16.5t-89.5 53.5t-50.5 96t-16 144v381z" />
    <glyph glyph-name="udblacute" unicode="&#x170;" horiz-adv-x="654" 
d="M268 819h95l-125 -195h-67zM430 819h101l-150 -195h-68zM354 536h179v-470h85v-62h-186v77q-51 -92 -152 -92q-89 0 -131.5 50.5t-42.5 159.5v275h-82v62h183v-309q0 -47 5 -78t17 -49.5t31.5 -26t47.5 -7.5q124 0 124 175v233h-78v62z" />
    <glyph glyph-name="Uogonek" unicode="&#x171;" horiz-adv-x="833" 
d="M140 680h-93v62h295v-62h-94v-371q0 -68 10.5 -114.5t34 -75.5t61 -42t92.5 -13q56 0 94 13t61.5 42t33.5 75.5t10 114.5v371h-93v62h256v-62h-93v-381q0 -82 -14.5 -140t-46 -95t-82.5 -55t-124 -20q-35 -53 -35 -72q0 -20 15.5 -32.5t40.5 -12.5q27 0 60 16v-74
q-20 -5 -37.5 -7.5t-33.5 -2.5q-58 0 -89 23t-31 65q0 24 12 47t38 52q-67 4 -114 23t-77 56t-43.5 93.5t-13.5 135.5v381z" />
    <glyph glyph-name="uogonek" unicode="&#x172;" horiz-adv-x="561" 
d="M354 536h179v-470h85v-62h-37q-41 -61 -41 -80q0 -20 15 -32.5t41 -12.5t61 16v-75q-20 -5 -38.5 -7.5t-33.5 -2.5q-59 0 -90 23.5t-31 65.5q0 43 56 105h-88v77q-51 -92 -152 -92q-89 0 -131.5 50.5t-42.5 159.5v275h-81v62h182v-309q0 -47 5 -78t17 -49.5t31.5 -26
t48.5 -7.5q60 0 91.5 44t31.5 131v233h-78v62z" />
    <glyph glyph-name="Wcircumflex" unicode="&#x173;" horiz-adv-x="1088" 
d="M476 944h90l121 -139h-70l-96 78l-98 -78h-69zM772 4h-88l-163 580l-163 -580h-88l-191 676h-73v62h276v-62h-89l145 -515q41 144 82 289t80 288h87l165 -583l145 521h-81v62h219v-62h-72z" />
    <glyph glyph-name="wcircumflex" unicode="&#x174;" horiz-adv-x="893" 
d="M392 819h88l121 -195h-67l-99 125q-24 -31 -48.5 -63t-48.5 -62h-68zM490 536l130 -396l111 334h-74v62h200v-62h-59l-155 -470h-84l-125 376q-30 -94 -62 -188t-63 -188h-80l-154 470h-60v62h246v-62h-82q28 -87 54.5 -166.5l55.5 -166.5q32 97 65.5 197t65.5 198h70z
" />
    <glyph glyph-name="Ycircumflex" unicode="&#x175;" horiz-adv-x="757" 
d="M287 944h90l121 -139h-69l-97 78l-98 -78h-69zM188 4l-19 61h112v256l-223 359h-71v62h282v-62h-81q44 -69 86.5 -140t85.5 -141l174 281h-78v62h222v-62h-72l-216 -349v-266h92v-61h-294z" />
    <glyph glyph-name="ycircumflex" unicode="&#x176;" horiz-adv-x="577" 
d="M239 819h89l121 -195h-68l-98 125q-25 -31 -49 -63t-49 -62h-68zM248 0l-193 474h-60v62h249v-62h-80l139 -341q35 87 69.5 170t69.5 171h-75v62h206v-62h-59l-239 -585q-13 -30 -26.5 -51t-30.5 -33.5t-38 -18.5t-49 -6q-30 0 -55.5 4t-45.5 13v108h56q3 -34 16 -48
t39 -14q23 0 40 15.5t34 56.5z" />
    <glyph glyph-name="Ydieresis" unicode="&#x177;" horiz-adv-x="835" 
d="M536 742h268v-30h-19q-28 0 -64.5 -27t-77.5 -96l-178 -279v-186q0 -37 5 -57.5t14.5 -30.5t24 -12.5t32.5 -2.5h29v-30h-325v30h31q19 0 33 3t23 13.5t13.5 31t4.5 55.5v175l-202 308l-19 29q-11 16 -18.5 25.5t-15 16.5t-18.5 13t-29 16q-12 5 -35 5v30h327v-30h-22
q-24 0 -43.5 -10.5t-19.5 -32.5q0 -17 32 -69l150 -232q35 55 71 111t71 112q32 50 32 73q0 21 -15.5 34.5t-59.5 13.5v30zM519 934q26 0 45 -19t19 -45t-19 -45t-45 -19t-45 19t-19 45t19 45t45 19zM326 934q28 0 46.5 -19t18.5 -45t-19 -45t-45 -19t-45 19t-19 45t18.5 45
t44.5 19z" />
    <glyph glyph-name="Zacute" unicode="&#x178;" horiz-adv-x="712" 
d="M408 948h112l-139 -140h-69zM43 4v42l452 631h-364v-110h-71v180h590v-42l-452 -631h400v103h69v-173h-624z" />
    <glyph glyph-name="zacute" unicode="&#x179;" horiz-adv-x="519" 
d="M355 795h112l-176 -194h-69zM38 4v49l322 421h-245v-91h-62v153h438v-49l-323 -421h270v94h63v-156h-463z" />
    <glyph glyph-name="Zdot" unicode="&#x17a;" horiz-adv-x="712" 
d="M357 942q25 0 43 -18t18 -43q0 -27 -17.5 -44.5t-43.5 -17.5t-44.5 17.5t-18.5 44.5q0 25 18.5 43t44.5 18zM44 4v42l449 627h-362v-110h-70v179h586v-42l-449 -627h397v103h69v-172h-620z" />
    <glyph glyph-name="zdot" unicode="&#x17b;" horiz-adv-x="519" 
d="M283 752q26 0 44 -18t18 -44q0 -28 -17.5 -45.5t-44.5 -17.5q-28 0 -45 17.5t-17 45.5q0 26 18 44t44 18zM38 4v49l322 421h-245v-91h-62v153h438v-49l-323 -421h270v94h63v-156h-463z" />
    <glyph glyph-name="Zcaron" unicode="&#x17c;" horiz-adv-x="712" 
d="M44 4v42l449 627h-362v-110h-70v179h586v-42l-449 -627h397v103h69v-172h-620zM307 802l-122 138h69l98 -78q23 18 48.5 39t47.5 39h70l-121 -138h-90z" />
    <glyph glyph-name="zcaron" unicode="&#x17d;" horiz-adv-x="519" 
d="M38 4v49l322 421h-245v-91h-62v153h438v-49l-323 -421h270v94h63v-156h-463zM223 624l-121 195h67l98 -125q23 31 49 62.5t49 62.5h68l-121 -195h-89z" />
    <glyph glyph-name="longs" unicode="&#x17e;" horiz-adv-x="404" 
d="M220 65h115v-61h-301v61h86v406h-86v61h86v61q0 180 183 180q81 0 134 -27v-106h-56q-2 76 -76 76q-49 0 -67 -28t-18 -93v-530z" />
    <glyph glyph-name="florin" unicode="&#x17f;" horiz-adv-x="520" 
d="M436 640h-56q0 36 -19.5 56t-55.5 20q-48 0 -67 -26.5t-19 -94.5v-63h144v-61h-144v-472q0 -180 -183 -180q-42 0 -75.5 6.5t-59.5 20.5v105h57q0 -35 18.5 -55t55.5 -20q48 0 67.5 26.5t19.5 96.5v472h-86v61h86v61q0 180 183 180q81 0 134 -27v-106z" />
    <glyph glyph-name="Aringacute" unicode="&#x192;" horiz-adv-x="556" 
d="M476 885q0 32 -22 54t-55 22t-54.5 -22t-21.5 -54t21.5 -54.5t54.5 -22.5t55 22.5t22 54.5zM234 309h276l-138 358zM-6 8v66h71l260 679q-78 43 -78 132q0 31 12 58.5t33 48.5t48.5 33t58.5 12t59 -12t49 -33t33 -48.5t12 -58.5q0 -45 -21.5 -79t-58.5 -54
q66 -171 131 -339t131 -339h79v-66h-300v66h88l-65 167h-329l-63 -167h86v-66h-236zM362 853h111l-174 -193h-69z" />
    <glyph glyph-name="aringacute" unicode="&#x1fa;" horiz-adv-x="603" 
d="M398 278h-111q-129 0 -129 -113q0 -52 32 -82.5t87 -30.5t88 33.5t33 87.5v105zM498 66h81v-62h-181v47q-29 -29 -68 -45.5t-88 -16.5q-89 0 -141.5 47t-52.5 129q0 86 59 131t169 45h122v31q0 57 -34.5 88.5t-98.5 31.5q-105 0 -122 -98h-55v115q56 21 101.5 31t81.5 10
q227 0 227 -215v-269zM324 947h113l-93 -94q39 -19 58 -52.5t19 -75.5q0 -29 -11 -54t-29.5 -44t-44 -30t-54.5 -11t-54.5 11t-44.5 30t-30 44t-11 54q0 28 9.5 52t26.5 42.5t40 30.5t50 15zM352 725q0 30 -20.5 50t-49.5 20t-49.5 -20t-20.5 -50q0 -29 20.5 -49t49.5 -20
t49.5 20t20.5 49z" />
    <glyph glyph-name="circumflex" unicode="&#x1fb;" horiz-adv-x="492" 
d="M209 813h88l120 -193h-67l-98 124q-24 -31 -48 -62.5t-49 -61.5h-67z" />
    <glyph glyph-name="caron" unicode="&#x2c6;" horiz-adv-x="398" 
d="M249 332h-104l-109 190h27l146 -115l123 115h27z" />
    <glyph glyph-name="macron" unicode="&#x2c7;" horiz-adv-x="370" 
d="M78 588h234v-66h-234v66z" />
    <glyph glyph-name="breve" unicode="&#x2c9;" horiz-adv-x="492" 
d="M150 799q7 -39 31 -56.5t72 -17.5t72 17.5t29 56.5h56q-10 -151 -157 -151q-148 0 -158 151h55z" />
    <glyph glyph-name="dotaccent" unicode="&#x2d8;" horiz-adv-x="447" 
d="M253 779q26 0 43.5 -17.5t17.5 -43.5q0 -29 -17.5 -46t-43.5 -17q-28 0 -45.5 17t-17.5 46q0 26 18.5 43.5t44.5 17.5z" />
    <glyph glyph-name="ring" unicode="&#x2d9;" horiz-adv-x="500" 
d="M392 753q0 -29 -11 -54.5t-30 -44.5t-44.5 -30t-53.5 -11q-29 0 -54.5 11t-44.5 29.5t-29.5 44t-10.5 55.5q0 29 10.5 54t29.5 44t44.5 29.5t54.5 10.5q28 0 53.5 -11t44.5 -29.5t30 -44t11 -53.5zM322 753q0 28 -20 48t-49 20q-30 0 -49.5 -19.5t-19.5 -48.5
q0 -30 19.5 -50t49.5 -20q29 0 49 20.5t20 49.5z" />
    <glyph glyph-name="ogonek" unicode="&#x2da;" horiz-adv-x="413" 
d="M282 14q-47 -70 -47 -89q0 -20 15.5 -32.5t40.5 -12.5q26 0 61 16v-75q-20 -4 -38 -6.5t-34 -2.5q-58 0 -89 23t-31 65q0 25 15.5 51.5t50.5 62.5h56z" />
    <glyph glyph-name="tilde" unicode="&#x2db;" horiz-adv-x="506" 
d="M219 700h1q-12 11 -19.5 15t-15.5 4q-20 0 -29.5 -19.5t-11.5 -57.5h-57q1 73 27 110.5t73 37.5q19 0 36.5 -8.5t40.5 -26.5l22 -23q11 -10 19 -13.5t15 -3.5q20 0 30 19.5t12 55.5h57q-1 -70 -27 -109t-74 -39q-19 0 -35.5 7t-34.5 25z" />
    <glyph glyph-name="hungarumlaut" unicode="&#x2dc;" horiz-adv-x="397" 
d="M145 630h76l-97 -152h-53zM269 630h80l-116 -152h-55z" />
    <glyph glyph-name="tonos" unicode="&#x2dd;" horiz-adv-x="512" 
d="M318 813h111l-174 -193h-69z" />
    <glyph glyph-name="dieresistonos" unicode="&#x384;" horiz-adv-x="495" 
d="M157 779q26 0 44.5 -17.5t18.5 -43.5q0 -29 -17.5 -46t-45.5 -17q-26 0 -43.5 17t-17.5 46q0 26 18 43.5t43 17.5zM348 779q26 0 43.5 -17.5t17.5 -43.5q0 -29 -17.5 -46t-43.5 -17t-44 17t-18 46q0 26 18 43.5t44 17.5zM317 1009h112l-175 -193h-68z" />
    <glyph glyph-name="Alphatonos" unicode="&#x385;" horiz-adv-x="803" 
d="M211 277h254q-32 85 -63.5 163t-63.5 163zM-6 4v61h64l260 677h90l260 -677h72v-61h-274v61h78l-57 151h-299l-57 -151h77v-61h-214zM199 813h111l-175 -193h-68z" />
    <glyph glyph-name="anoteleia" unicode="&#x386;" horiz-adv-x="368" 
d="M90 358q0 29 19.5 50t51.5 21q29 0 49 -21t20 -50t-20 -49.5t-49 -20.5q-32 0 -51.5 20.5t-19.5 49.5z" />
    <glyph glyph-name="Epsilontonos" unicode="&#x387;" horiz-adv-x="901" 
d="M225 4v61h92v615h-92v62h596v-172h-69v103h-325v-235h228v91h70v-252h-70v92h-228v-296h333v103h69v-172h-604zM135 813h111l-175 -193h-68z" />
    <glyph glyph-name="Etatonos" unicode="&#x388;" horiz-adv-x="1083" 
d="M223 4v62h93v619h-93v62h296v-62h-93v-244h371v244h-94v62h296v-62h-93v-619h93v-62h-296v62h94v306h-371v-306h93v-62h-296zM135 819h112l-176 -195h-69z" />
    <glyph glyph-name="Iotatonos" unicode="&#x389;" horiz-adv-x="568" 
d="M424 66h93v-62h-297v62h94v619h-94v62h297v-62h-93v-619zM133 819h112l-176 -195h-69z" />
    <glyph glyph-name="Omicrontonos" unicode="&#x38a;" horiz-adv-x="829" 
d="M432 52q238 0 238 323t-238 323q-239 0 -239 -323t239 -323zM432 -11q-83 0 -149.5 30t-114 82t-73 122.5t-25.5 151.5t25.5 151.5t73 122.5t114 82t149.5 30q79 0 145.5 -28t114.5 -78.5t74.5 -121.5t26.5 -158q0 -83 -26 -153.5t-73.5 -122t-114 -81t-147.5 -29.5z
M134 819h112l-176 -195h-69z" />
    <glyph glyph-name="Upsilontonos" unicode="&#x38c;" horiz-adv-x="975" 
d="M428 4v62h94v257l-225 362h-71v62h283v-62h-80q44 -70 86.5 -141.5t86.5 -141.5l175 283h-79v62h223v-62h-72l-218 -352v-267h93v-62h-296zM135 819h112l-176 -195h-69z" />
    <glyph glyph-name="Omegatonos" unicode="&#x38e;" horiz-adv-x="850" 
d="M738 94v67h67v-157h-301v98q180 69 180 297q0 67 -17.5 122t-49 94.5t-75.5 61t-97 21.5t-97 -21.5t-75.5 -60.5t-49 -94t-17.5 -123q0 -228 178 -297v-98h-300v157h68v-67h135q-47 22 -85 56t-64.5 75t-40.5 88t-14 97q0 71 27 134.5t75 111.5t114.5 76.5t145.5 28.5
q77 0 143 -28t114.5 -75.5t76 -111.5t27.5 -136q0 -50 -14 -97t-40.5 -88t-64.5 -75t-85 -56h136zM134 819h112l-176 -195h-68z" />
    <glyph glyph-name="iotadieresistonos" unicode="&#x38f;" horiz-adv-x="392" 
d="M119 474h-86v62h187v-385q0 -39 11 -61t36 -22q26 0 78 31v-70q-56 -32 -96 -32q-27 0 -51 11t-41.5 31t-27.5 48.5t-10 63.5v323zM66 784q26 0 44.5 -18t18.5 -44q0 -28 -17 -45t-46 -17q-26 0 -44 17t-18 45q0 26 18.5 44t43.5 18zM258 784q26 0 44 -18t18 -44
q0 -28 -18 -45t-44 -17t-44 17t-18 45q0 26 18 44t44 18zM228 1016h112l-176 -194h-69z" />
    <glyph glyph-name="Alpha" unicode="&#x390;" horiz-adv-x="799" 
d="M211 277h254q-32 85 -63.5 163t-63.5 163zM-6 4v61h64l260 677h90l260 -677h72v-61h-274v61h78l-57 151h-299l-57 -151h77v-61h-214z" />
    <glyph glyph-name="Beta" unicode="&#x391;" horiz-adv-x="785" 
d="M257 66h141q88 0 126.5 37t38.5 118t-38.5 118t-126.5 37h-141v-310zM257 437h120q78 0 113.5 29.5t35.5 94.5q0 66 -35.5 95t-113.5 29h-120v-248zM53 4v62h94v619h-94v62h368q228 0 228 -186q0 -123 -128 -152q81 -17 123 -65t42 -123q0 -112 -69.5 -164.5
t-219.5 -52.5h-344z" />
    <glyph glyph-name="mu" unicode="&#x392;" horiz-adv-x="661" 
d="M361 536h178v-471h86v-61h-186v77q-51 -92 -136 -92q-53 0 -89 30v-162h86v-62h-274v62h88v617h-82v62h182v-309q0 -47 5.5 -78t17.5 -49.5t31 -26t47 -7.5q124 0 124 175v233h-78v62z" />
    <glyph glyph-name="endash" unicode="&#x3bc;" horiz-adv-x="407" 
d="M32 260h327v-61h-327v61z" />
    <glyph glyph-name="emdash" unicode="&#x2013;" horiz-adv-x="572" 
d="M23 180h520v-46h-520v46z" />
    <glyph glyph-name="quoteleft" unicode="&#x2018;" horiz-adv-x="257" 
d="M191 666q-38 -23 -54 -41t-16 -42q0 -14 3.5 -18t8.5 -4q1 0 3 1q2 0 8 2q5 1 11 2t8 1q19 0 33.5 -14t14.5 -35q0 -28 -20 -41t-41 -13q-32 0 -55 25.5t-23 63.5q0 42 27.5 79.5t91.5 62.5v-29z" />
    <glyph glyph-name="quoteright" unicode="&#x2019;" horiz-adv-x="262" 
d="M91 484q38 23 54 40.5t16 42.5q0 11 -3.5 16.5t-7.5 5.5t-14 -4q-3 -2 -7.5 -2.5t-7.5 -0.5q-20 0 -34.5 14t-14.5 35q0 25 18.5 39.5t42.5 14.5q14 0 28 -7t25 -19t18 -28t7 -34q0 -43 -28.5 -81.5t-91.5 -61.5v30z" />
    <glyph glyph-name="quotesinglbase" horiz-adv-x="335" 
d="M99 -107q44 14 67 42t23 61q0 5 -1 9t-3 4t-6 -2q-5 -3 -13.5 -7t-17.5 -4q-23 0 -36 14t-13 37t16.5 39.5t41.5 16.5q31 0 54 -25.5t23 -68.5q0 -46 -32.5 -84.5t-102.5 -61.5v30z" />
    <glyph glyph-name="quotedblleft" unicode="&#x201c;" horiz-adv-x="417" 
d="M347 659q-41 -24 -55 -43.5t-14 -43.5q0 -17 10 -17q1 0 3.5 0.5t4.5 0.5q5 2 11.5 3.5t12.5 1.5q20 0 34 -13.5t14 -33.5q0 -24 -17.5 -40.5t-43.5 -16.5q-16 0 -30 7t-24.5 19t-17 28.5t-6.5 35.5q0 45 30.5 83t87.5 54v-25zM192 659q-38 -18 -53.5 -38.5t-15.5 -44.5
q0 -12 2.5 -16.5t6.5 -4.5q2 0 10 2q5 2 10 3t11 1q20 0 34 -14.5t14 -34.5q0 -23 -17 -38.5t-43 -15.5q-32 0 -55 25.5t-23 63.5q0 43 30 81.5t89 58.5v-28z" />
    <glyph glyph-name="quotedblright" unicode="&#x201d;" horiz-adv-x="417" 
d="M92 491q22 12 35.5 22.5t21.5 21t11 21t3 23.5q0 10 -3.5 14t-7.5 4t-9 -1q-5 -2 -10.5 -3.5t-11.5 -1.5q-20 0 -34 13.5t-14 33.5q0 23 17 40t43 17q15 0 29 -7t25 -19t18 -28.5t7 -35.5q0 -46 -31 -84.5t-89 -55.5v26zM249 491q37 20 53 40t16 45q0 12 -3.5 16.5
t-5.5 4.5h-5t-8 -2q-10 -4 -18 -4q-20 0 -34 14t-14 34q0 23 16.5 39.5t42.5 16.5q16 0 30 -7t25 -19.5t17.5 -29t6.5 -35.5q0 -43 -30.5 -81.5t-88.5 -57.5v26z" />
    <glyph glyph-name="quotedblbase" horiz-adv-x="405" 
d="M52 -100q22 12 35.5 22.5t21.5 20.5t11 20.5t3 23.5q0 8 -3 13t-8 5l-6 -2q-5 -2 -12.5 -3t-12.5 -1q-20 0 -34 13.5t-14 33.5q0 23 17 40t43 17q31 0 54.5 -25.5t23.5 -64.5q0 -47 -31 -85t-88 -55v27zM254 -100q36 18 52.5 38.5t16.5 45.5q0 14 -3 17.5t-5 3.5
q-6 0 -15 -3q-2 -1 -4.5 -1t-5.5 -1q-4 -1 -7 -1q-20 0 -34 14.5t-14 34.5q0 22 16.5 38.5t41.5 16.5q16 0 30 -7t25 -19.5t17.5 -29t6.5 -35.5q0 -44 -30 -82t-88 -57v27z" />
    <glyph glyph-name="dagger" unicode="&#x201e;" horiz-adv-x="513" 
d="M204 742h98l-18 -216l195 14v-91l-195 14v-556h-80v556l-179 -14v91l196 -14z" />
    <glyph glyph-name="daggerdbl" unicode="&#x2020;" horiz-adv-x="376" 
d="M151 556h75l-13 -161l145 10v-69l-145 10l13 -102l-13 -101l145 9v-69l-145 11l13 -162h-75l12 162q-35 -2 -72 -5.5t-72 -5.5v69l144 -9l-12 101l12 102l-144 -10v69l144 -10z" />
    <glyph glyph-name="bullet" unicode="&#x2021;" horiz-adv-x="432" 
d="M216 272q29 0 55 -11t45.5 -30.5t31 -45t11.5 -54.5t-11 -55t-30.5 -45.5t-45.5 -31t-56 -11.5q-29 0 -55 11t-45.5 30.5t-30.5 45.5t-11 56q0 29 11 55t30.5 45t45 30t55.5 11z" />
    <glyph glyph-name="undifine.002" horiz-adv-x="932" 
d="M497 426q-27 42 -75 75l44 61q29 -17 52 -41t41 -55zM368 523q-8 5 -20.5 7t-32.5 2q-38 0 -55 -10l-9 77q33 10 63 10q29 0 69 -10zM595 327q0 -49 -9 -67l-76 13q9 16 9 51q0 38 -9 55l76 14q9 -20 9 -66zM559 185q-20 -29 -43 -53t-50 -41l-44 60q45 29 74 78z
M208 501q-23 -15 -42 -33.5t-33 -41.5l-63 40q37 61 93 96zM42 260q-9 51 -9 67t2 31.5t7 34.5l74 -14q-3 -14 -4 -27.5t-1 -27.5q0 -38 7 -51zM383 53q-17 -5 -33.5 -7t-35.5 -2q-12 0 -63 9l9 75q33 -6 55 -6q24 0 53 6zM163 91q-28 17 -51 41t-42 53l64 44q27 -47 74 -78
z" />
    <glyph glyph-name="ellipsis" unicode="&#x2026;" horiz-adv-x="1230" 
d="M225 125q28 0 47 -18.5t19 -46.5t-19 -47t-47 -19t-47 19t-19 47t19 46.5t47 18.5zM599 125q26 0 45.5 -18.5t19.5 -46.5t-19.5 -47t-45.5 -19q-28 0 -47.5 19t-19.5 47t19.5 46.5t47.5 18.5zM972 125q28 0 46.5 -18.5t18.5 -46.5t-18.5 -47t-46.5 -19q-27 0 -46.5 19
t-19.5 47t19 46.5t47 18.5z" />
    <glyph glyph-name="minute" horiz-adv-x="276" 
d="M91 194l16 167q5 49 12.5 81t18.5 50t25.5 25t34.5 7q23 0 35.5 -12t12.5 -32q0 -9 -1.5 -17.5t-6.5 -21t-14 -32.5t-24 -51l-77 -164h-32z" />
    <glyph glyph-name="second" horiz-adv-x="512" 
d="M108 194l18 168v-1q5 49 12 81t17.5 50t25.5 25t35 7q23 0 35.5 -12t12.5 -32q0 -8 -2 -17.5t-7 -23t-14 -33t-22 -48.5l-77 -164h-34zM296 194l17 167q5 49 12 81t18 50t26 25t35 7q23 0 35 -12t12 -32q0 -8 -2 -17.5t-7 -23t-14 -33t-22 -48.5q-18 -37 -39 -81.5
t-38 -82.5h-33z" />
    <glyph glyph-name="guilsinglleft" unicode="&#x2033;" horiz-adv-x="415" 
d="M313 536v-68l-144 -166l144 -166v-70l-238 213v44z" />
    <glyph glyph-name="guilsinglright" unicode="&#x2039;" horiz-adv-x="335" 
d="M67 404l181 -160v-34l-181 -161v55l106 123q-26 30 -53 62t-53 61v54z" />
    <glyph glyph-name="exclamdbl" unicode="&#x203a;" horiz-adv-x="552" 
d="M66 60q0 29 19.5 49.5t50.5 20.5q29 0 49 -20.5t20 -49.5t-20 -50t-49 -21q-31 0 -50.5 21t-19.5 50zM68 742h135l-33 -405v-128h-69v128zM327 60q0 29 20 49.5t51 20.5q29 0 49 -20.5t20 -49.5t-20 -50t-49 -21q-31 0 -51 21t-20 50zM329 742h136l-33 -405v-128h-70v128
z" />
    <glyph glyph-name="radicalex" unicode="&#x203c;" horiz-adv-x="371" 
d="M-28 447h424v-80h-424v80z" />
    <glyph glyph-name="fraction" unicode="&#x203e;" horiz-adv-x="96" 
d="M127 579h67l-191 -607h-68z" />
    <glyph glyph-name="nsuperior" unicode="&#x2044;" horiz-adv-x="478" 
d="M40.959 8.19141v62.4639h82.9434v415.738h-88.0625v62.4639h190.461v-77.8232q53.248 93.1826 155.646 93.1826q90.1104 0 133.118 -50.6875t43.0078 -162.302v-280.572h81.9189v-62.4639h-264.189v62.4639h78.8477v251.9q0 47.1035 -5.63184 78.8467
q-5.63184 31.7441 -17.9199 51.2002q-12.2881 19.4551 -31.7441 27.1357q-19.4551 7.67969 -47.1025 7.67969q-61.4395 0 -93.6953 -44.5439q-32.2559 -44.543 -32.2559 -133.63v-238.589h79.8711v-62.4639h-265.213z" />
    <glyph glyph-name="franc" unicode="&#x207f;" horiz-adv-x="508" 
d="M38 4v47h68v445h-68v48h443v-128h-52v74h-241v-168h170v67h54v-186h-54v67h-170v-34h164v-65h-164v-120h84v-47h-234z" />
    <glyph glyph-name="afii08941" unicode="&#x20a3;" horiz-adv-x="589" 
d="M61 308v61h109q-1 10 -2.5 21t-2.5 22h-104v62l103 -3l-2 3q-1 9 -1.5 19.5t-0.5 19.5q0 60 16 107t44 79.5t65.5 49t81.5 16.5q34 0 60.5 -10.5t45 -27.5t28 -37.5t9.5 -40.5t-15.5 -35t-32.5 -15q-23 0 -34 16.5t-13 54.5q-4 56 -62 56q-48 0 -71.5 -36t-23.5 -102
q0 -8 1 -35t4 -79h150v-62h-145v-43h145v-61h-142q0 -55 -8 -98t-23 -75l92 -29q20 -6 38.5 -9.5t41.5 -3.5q88 0 110 89l30 -8q-5 -41 -19 -75.5t-35.5 -59.5t-49 -39t-59.5 -14q-21 0 -36 1.5t-33 10t-43 25.5t-65 48q-21 -39 -47 -62t-55 -23t-49 20.5t-20 55.5
q0 43 28 66.5t65 23.5q9 0 20 -1t22 -3q0 3 0.5 5t0.5 5q1 12 1 22v18q0 16 -1.5 42t-3.5 68h-112zM172 95q-2 0 -2 2v3zM112 27q38 0 58 70q-11 7 -21.5 9.5t-19.5 2.5q-47 0 -47 -44q0 -17 8.5 -27.5t21.5 -10.5z" />
    <glyph glyph-name="peseta" unicode="&#x20a4;" horiz-adv-x="1150" 
d="M192 283h87q52 0 78.5 27.5t26.5 79.5q0 51 -26.5 78.5t-78.5 27.5h-87v-213zM42 4v47h68v445h-68v48h255q82 0 130 -42t48 -112q0 -71 -48 -113t-130 -42h-105v-184h82v-47h-232zM569 343h-58v49h58v116h75v-116h122v-49h-122v-235q0 -44 8 -57t31 -13q42 0 44 64h59
q-7 -109 -109 -109q-59 0 -83.5 25.5t-24.5 89.5v235zM823 25v98h48q0 -85 95 -85q85 0 85 60q0 12 -3.5 21t-13 16.5t-26 15t-42.5 15.5l-46 17q-97 29 -97 102q0 55 39.5 85.5t108.5 30.5l12 -3q6 -2 14.5 -3.5t19.5 -3.5l90 -22v-91h-47q-2 38 -24.5 58t-62.5 20
q-78 0 -78 -53q0 -22 16 -35.5t60 -27.5l52 -15q55 -18 80 -43.5t25 -68.5q0 -56 -42 -88t-118 -32q-8 2 -16.5 4t-19.5 4z" />
    <glyph glyph-name="afii61248" unicode="&#x20a7;" horiz-adv-x="971" 
d="M756 674l-546 -800h-59l545 800h60zM383 436q-15 -72 -60.5 -108.5t-116.5 -36.5q-47 0 -84.5 16.5t-64.5 46t-41.5 71t-14.5 91.5q0 51 15 92.5t42 70.5t65 45t84 16q83 0 163 -39v-115h-51q-8 53 -34 79t-77 26q-114 0 -114 -175q0 -176 113 -176q89 0 109 96h67z
M694 -61q107 0 107 168q0 169 -107 169q-109 0 -109 -169q0 -168 109 -168zM694 -109q-44 0 -81 15.5t-63.5 44t-41 68t-14.5 88.5t14.5 89.5t40.5 68.5t63 43.5t82 15.5t81.5 -15.5t63 -43.5t40.5 -68.5t14 -89.5q0 -48 -14.5 -87.5t-40.5 -68t-62.5 -44.5t-81.5 -16z" />
    <glyph glyph-name="afii61289" unicode="&#x2105;" horiz-adv-x="575" 
d="M65 -66l106 109v260q0 55 12 96.5t34 69.5t51 41.5t64 13.5q53 0 83 -30t30 -82q0 -27 -8.5 -57t-29 -67.5t-54.5 -83.5t-86 -104v-178q0 -79 24 -109.5t63 -30.5q18 0 35.5 7t34 23.5t31 43.5t27.5 67h30q-11 -39 -27.5 -72.5t-39 -58t-51.5 -38.5t-64 -14q-54 0 -88 27
t-57 73q-14 25 -14 117v42l-87 -84zM267 145q139 157 139 248q0 42 -20.5 66t-49.5 24q-14 0 -26.5 -6t-22 -22t-15 -44t-5.5 -71v-195z" />
    <glyph glyph-name="afii61352" unicode="&#x2113;" horiz-adv-x="1106" 
d="M37 4v47h71v445h-71v48h142l311 -408v360h-71v48h197v-48h-73v-503h-49l-332 438v-380h71v-47h-196zM861 38q101 0 101 159t-101 159q-102 0 -102 -159t102 -159zM861 -7q-88 0 -138 55.5t-50 148.5q0 46 13.5 84t38 64.5t59.5 41t77 14.5t76.5 -14.5t59 -41t37.5 -64.5
t13 -84q0 -45 -13 -82.5t-37 -64.5t-58.5 -42t-77.5 -15z" />
    <glyph glyph-name="trademark" unicode="&#x2116;" horiz-adv-x="975" 
d="M554 742l82 -128l85 128h115v-42h-42v-208h42v-42h-149v42h42v187l-94 -140h-27l-89 140v-187h41v-42h-128v42h42v208h-42v42h122zM119 742h281v-93h-43v51h-64v-208h42v-42h-151v42h42v208h-66v-51h-41v93z" />
    <glyph glyph-name="Ohm" unicode="&#x2122;" horiz-adv-x="901" 
d="M735 94v66h66v-156h-299v98q179 68 179 294q0 66 -17.5 121t-48.5 94t-75 60.5t-96 21.5q-53 0 -96.5 -21t-75 -60t-49 -94t-17.5 -122q0 -227 177 -294v-98h-298v156h68v-66h133q-47 22 -84 55.5t-63.5 74t-40.5 87.5t-14 96q0 70 27 133.5t75 111.5t114 76t144 28
q76 0 141.5 -28t113.5 -75.5t75.5 -111t27.5 -134.5q0 -49 -14 -96t-40 -87.5t-63.5 -74t-84.5 -55.5h135z" />
    <glyph glyph-name="estimated" unicode="&#x3a9;" horiz-adv-x="712" 
d="M198 312v-198q69 -64 158 -64q136 0 216 138l48 -30q-29 -41 -57 -70.5t-59 -48.5t-67 -28.5t-81 -9.5q-66 0 -120.5 24t-93.5 66.5t-60.5 100t-21.5 125.5q0 69 21.5 126.5t60.5 99.5t93.5 65.5t120.5 23.5q58 0 111 -20t93.5 -60t65 -100t26.5 -140h-454zM515 362v157
q-68 63 -160 63q-45 0 -85 -18t-72 -47v-155h317z" />
    <glyph glyph-name="oneeighth" unicode="&#x212e;" horiz-adv-x="1032" 
d="M845 185q-25 23 -72 23q-45 0 -71 -21.5t-26 -66.5q0 -44 26 -65.5t71 -21.5q46 0 72 22.5t26 64.5q0 41 -25 65h-1zM857 319q0 35 -22 54.5t-62 19.5q-39 0 -61.5 -19.5t-22.5 -54.5q0 -36 22.5 -55t61.5 -19q40 0 62 19t22 55zM935 319q0 -35 -21.5 -58t-61.5 -34
q46 -11 73 -38.5t27 -68.5q0 -61 -46.5 -92.5t-132.5 -31.5q-85 0 -132 32t-47 92q0 42 26.5 68.5t73.5 38.5q-44 10 -64 33t-20 59q0 53 43.5 82t119.5 29t119 -29t43 -82zM680 756h85l-466 -767h-85zM87 330v51h84v297q-23 -13 -49 -27t-49 -25v55l122 66h54v-366h85v-51
h-247z" />
    <glyph glyph-name="threeeighths" unicode="&#x215b;" horiz-adv-x="875" 
d="M34 638q39 92 132 92q26 0 47 -7.5t35.5 -19.5t22.5 -27t8 -30q0 -20 -13.5 -40t-39.5 -43q35 -16 54.5 -42.5t19.5 -59.5q0 -29 -12.5 -55t-36 -45.5t-58 -30.5t-78.5 -11q-86 0 -86 40q0 12 11.5 21t25.5 9q8 0 20 -4t25 -9l28 -10t22 -5q28 0 48.5 20.5t20.5 48.5
q0 38 -30.5 61.5t-75.5 23.5h-21v25q16 0 34 5.5t32.5 16t24 25.5t9.5 33q0 28 -19.5 42t-42.5 14q-43 0 -78 -50zM746 185q-23 23 -71 23q-46 0 -72 -21.5t-26 -66.5t26.5 -66t71.5 -21t71.5 22.5t26.5 64.5t-26 65h-1zM759 319q0 35 -22 54.5t-62 19.5t-62 -19.5
t-22 -54.5q0 -36 22 -55t62 -19t62 19t22 55zM837 319q0 -35 -21.5 -58t-62.5 -34q47 -11 74 -38.5t27 -68.5q0 -61 -47 -92.5t-132 -31.5t-132.5 31.5t-47.5 92.5q0 42 26.5 68.5t74.5 38.5q-45 10 -64.5 32.5t-19.5 59.5q0 53 43 82t120 29q75 0 118.5 -29t43.5 -82z
M581 756h85l-465 -767h-85z" />
    <glyph glyph-name="fiveeighths" unicode="&#x215c;" horiz-adv-x="1011" 
d="M844 185q-23 23 -71 23q-45 0 -71 -21.5t-26 -66.5t26 -66t71 -21q46 0 72 22.5t26 64.5t-26 65h-1zM857 319q0 35 -22 54.5t-62 19.5t-62 -19.5t-22 -54.5q0 -36 22 -55t62 -19t62 19t22 55zM935 319q0 -35 -21.5 -58t-62.5 -34q47 -11 74 -38.5t27 -68.5
q0 -61 -47 -92.5t-132 -31.5t-132 31.5t-47 92.5q0 42 26.5 68.5t73.5 38.5q-44 10 -64 32.5t-20 59.5q0 53 43.5 82t119.5 29t119 -29t43 -82zM679 756h85l-465 -767h-85zM334 747v-55h-232v-103q18 10 40 13t48 3q86 0 134.5 -36.5t48.5 -103.5q0 -68 -49.5 -105.5
t-137.5 -37.5q-85 0 -152 29v87h48q3 -38 29.5 -58.5t74.5 -20.5q51 0 78 27t27 79q0 51 -27 77.5t-78 26.5q-30 0 -52.5 -9t-40.5 -27h-36v214h277z" />
    <glyph glyph-name="seveneighths" unicode="&#x215d;" horiz-adv-x="1021" 
d="M844 185q-23 23 -71 23q-45 0 -71 -21.5t-26 -66.5t26 -66t71 -21q46 0 72 22.5t26 64.5t-26 65h-1zM857 319q0 35 -22 54.5t-62 19.5q-39 0 -61.5 -19.5t-22.5 -54.5q0 -36 22.5 -55t61.5 -19q40 0 62 19t22 55zM935 319q0 -35 -21.5 -58t-62.5 -34q47 -11 74 -38.5
t27 -68.5q0 -61 -47 -92.5t-132 -31.5t-132 31.5t-47 92.5q0 42 26.5 68.5t73.5 38.5q-44 10 -64 32.5t-20 59.5q0 53 43.5 82t119.5 29t119 -29t43 -82zM680 756h84l-465 -767h-85zM383 715l-201 -385h-61l189 362h-221v-50h-50v105h344v-32z" />
    <glyph glyph-name="partialdiff" unicode="&#x215e;" horiz-adv-x="578" 
d="M240 408q48 0 79 -18.5t51 -59.5q5 38 8.5 73t3.5 68q0 122 -66 122q-12 0 -29.5 -10.5t-36.5 -22.5q-14 -10 -27.5 -17t-21.5 -7q-20 0 -33 12t-13 29t10 32t27.5 26.5t40 18t46.5 6.5q45 0 81.5 -20.5t62.5 -57.5t40 -89.5t14 -116.5q0 -82 -19 -152.5t-52.5 -122
t-79 -81t-99.5 -29.5q-38 0 -70.5 14t-56.5 39.5t-37.5 60.5t-13.5 77q0 49 14.5 90.5t40.5 71.5t60.5 47t75.5 17zM343 250q0 54 -19.5 83t-56.5 29q-26 0 -47 -16.5t-37 -45.5t-24.5 -69.5t-8.5 -89.5q0 -55 19.5 -84t56.5 -29q26 0 47.5 17t37 46.5t24 70t8.5 88.5z" />
    <glyph glyph-name="product" unicode="&#x2202;" horiz-adv-x="857" 
d="M25 732h753v-46h-93v-828h93v-46h-301v46h94v828h-339v-828h94v-46h-301v46h94v828h-94v46z" />
    <glyph glyph-name="summation" unicode="&#x220f;" horiz-adv-x="762" 
d="M7 732h576l57 -187h-49l-37 113q-5 16 -19 22t-45 6h-325l389 -399v-21l-395 -353h419q26 0 35 7t14 22l36 115h49l-75 -245h-630v27l447 395l-447 465v33z" />
    <glyph glyph-name="minus" unicode="&#x2211;" horiz-adv-x="842" 
d="M106 366h635v-89h-635v89z" />
    <glyph glyph-name="periodcentered" unicode="&#xad;" horiz-adv-x="253" 
d="M68 275q0 24 15 40t40 16q23 0 39 -16t16 -40q0 -23 -16 -38t-39 -15q-25 0 -40 15t-15 38z" />
    <glyph glyph-name="radical" unicode="&#x2219;" horiz-adv-x="662" 
d="M545 824h100v-57h-56q-73 -195 -145.5 -391.5t-144.5 -391.5h-40l-155 429l-61 -22l-16 49l148 51l122 -337z" />
    <glyph glyph-name="infinity" unicode="&#x221a;" horiz-adv-x="832" 
d="M455 283q0 -1 0.5 -1.5t0.5 -1.5v-1zM593 422q-38 0 -69 -32t-68 -110q47 -81 126 -81q48 0 77 32t29 80t-27 79.5t-68 31.5zM388 332l-2 3q1 0 1 1zM251 193q18 0 34.5 7.5t33 24t33 43.5t34.5 67q-44 80 -124 80q-48 0 -78 -31.5t-30 -79.5t27.5 -79.5t69.5 -31.5z
M584 113q-48 0 -83.5 27.5t-73.5 93.5q-35 -65 -73 -94t-84 -29q-35 0 -64.5 15t-51 41.5t-34 62.5t-12.5 77q0 43 11 78.5t31 61.5t48 40.5t62 14.5q46 0 82.5 -29t73.5 -95q32 63 71.5 95t85.5 32q34 0 63.5 -15.5t51.5 -42t34.5 -62.5t12.5 -76q0 -44 -11 -80t-31 -62
t-47.5 -40t-61.5 -14z" />
    <glyph glyph-name="integral" unicode="&#x221e;" horiz-adv-x="545" 
d="M154 -114q22 0 35.5 86.5t18.5 244.5q4 147 15.5 252t34.5 172t60.5 98t93.5 31q42 0 67.5 -21.5t25.5 -56.5q0 -29 -17 -45t-47 -16q-58 0 -63 65q-1 13 -5 13q-17 0 -27 -30.5t-16 -87.5t-9 -139.5t-6 -187.5q-3 -116 -17.5 -199.5t-39.5 -137.5t-61.5 -79.5
t-83.5 -25.5q-40 0 -66 22t-26 56q0 29 18 46t50 17q23 0 39.5 -15t19.5 -46q1 -16 6 -16z" />
    <glyph glyph-name="approxequal" unicode="&#x222b;" horiz-adv-x="842" 
d="M741 423q-52 -49 -97 -68.5t-93 -19.5q-23 0 -54.5 9t-69.5 22l-28 10q-38 14 -65.5 21t-50.5 7q-85 0 -177 -79v85q52 46 95.5 66.5t91.5 20.5q23 -1 56.5 -8t77.5 -24q4 -2 10 -4.5t9 -3.5q35 -15 64 -21.5t52 -6.5q88 0 179 79v-85zM741 233q-52 -48 -97 -67.5
t-93 -19.5q-23 0 -54.5 8.5t-69.5 22.5l-28 10q-38 14 -65.5 21t-50.5 7q-83 0 -177 -79v85q52 45 95.5 66t91.5 21q23 -1 56.5 -8.5t77.5 -24.5q4 -2 10 -4l9 -3q73 -29 116 -29q86 0 179 79v-85z" />
    <glyph glyph-name="notequal" unicode="&#x2248;" horiz-adv-x="842" 
d="M106 466h378q31 38 63.5 78t63.5 79l70 -56l-81 -101h141v-88h-217l-87 -111h304v-88h-381l-126 -158l-69 55l81 103h-140v88h215l89 111h-304v88z" />
    <glyph glyph-name="lessequal" unicode="&#x2260;" horiz-adv-x="852" 
d="M741 506l-501 -137q125 -34 250.5 -68.5t250.5 -67.5v-91l-635 182v91l635 182v-91zM106 90h635v-86h-635v86z" />
    <glyph glyph-name="greaterequal" unicode="&#x2264;" horiz-adv-x="847" 
d="M741 90v-86h-635v86h635zM106 506v91l635 -182v-91l-635 -182v91l501 136z" />
    <glyph glyph-name="H22073" unicode="&#x2265;" horiz-adv-x="953" 
d="M157 -54h641v645h-641v-645zM92 -119v775h772v-775h-772z" />
    <glyph glyph-name="H18543" unicode="&#x25a1;" horiz-adv-x="709" 
d="M90 15v507h506v-507h-506z" />
    <glyph glyph-name="H18551" unicode="&#x25aa;" horiz-adv-x="693" 
d="M155 80h375v377h-375v-377zM90 15v507h506v-507h-506z" />
    <glyph glyph-name="lozenge" unicode="&#x25ab;" horiz-adv-x="540" 
d="M250 683q-47 -97 -92 -192t-91 -193l183 -391l182 391zM250 828l250 -530l-250 -535l-250 535z" />
    <glyph glyph-name="H18533" unicode="&#x25ca;" horiz-adv-x="905" 
d="M107 73q-52 88 -52 190q0 76 28 146.5t78.5 125t121 87t154.5 32.5q76 0 146.5 -28t124.5 -79t86.5 -121.5t32.5 -154.5q0 -77 -28.5 -147.5t-79.5 -124.5t-122 -86t-156 -32q-51 0 -100 14t-92.5 39t-80 60.5t-61.5 78.5z" />
    <glyph glyph-name="openbullet" unicode="&#x25cf;" horiz-adv-x="593" 
d="M187 381q0 -24 8.5 -44.5t23.5 -35t35 -23t44 -8.5q23 0 43.5 8.5t35.5 23.5t24 35.5t9 43.5q0 22 -9 42t-24 35t-35.5 24t-42.5 9q-23 0 -43.5 -9t-35.5 -24t-24 -35t-9 -42zM148 381q0 31 12 58.5t32 47t47.5 31t59.5 11.5q31 0 58 -11.5t47 -31.5t32 -47t12 -58
q0 -32 -12 -59.5t-32 -47.5t-48 -32t-59 -12q-32 0 -59 12t-47 32t-31.5 47.5t-11.5 59.5z" />
    <glyph glyph-name="fi" unicode="&#x25e6;" horiz-adv-x="584" 
d="M269 781h26q54 0 86.5 -2t52.5 -8t33.5 -16t29.5 -25q26 -24 41 -67t15 -100v-60h-63v28q0 30 -11.5 51.5t-31 35.5t-46 21t-57.5 7h-11v-451q0 -97 -43.5 -143t-131.5 -46q-62 0 -98 34.5t-36 92.5q0 30 11 55.5t31.5 44t49 29t63.5 10.5q39 0 90 -22v531z" />
    <glyph glyph-name="fl" unicode="&#xf001;" horiz-adv-x="649" 
d="M531 632h-55q-2 84 -117 84q-72 0 -105 -33t-33 -107v-44h346v-467h85v-61h-270v61h86v406h-247v-406h85v-61h-271v61h86v406h-86v61h86v42q0 199 231 199q45 0 89.5 -6.5t89.5 -20.5v-114z" />
    <glyph glyph-name="ch262" unicode="&#xf002;" horiz-adv-x="648" 
d="M561 773v-708h84v-61h-270v61h86v647h-101q-76 0 -107.5 -31t-31.5 -105v-44h143v-61h-143v-406h85v-61h-271v61h86v406h-86v61h86v42q0 103 57 151t183 48h200z" />
    <glyph glyph-name="nbspace.001" unicode="&#xaf;" horiz-adv-x="445" 
d="M444 513h-455v44h455v-44z" />
    <glyph glyph-name="ch263" unicode="&#xb5;" horiz-adv-x="641" 
d="M623 455h-612v66h612v-66z" />
    <glyph glyph-name="danda" unicode="&#x964;" horiz-adv-x="321" 
d="M242 573v-508l-55 -47v511z" />
    <glyph glyph-name="doubledanda" unicode="&#x965;" horiz-adv-x="540" 
d="M272 573v-508l-55 -47v511zM379 573v-508l-53 -47v511z" />
    <glyph glyph-name="bn_candrabindu" unicode="&#x981;" horiz-adv-x="1" 
d="M-92 710v-13q0 -58 -23.5 -90.5t-72.5 -32.5q-33 0 -59.5 13.5t-46.5 33.5t-33.5 44.5t-20.5 45.5q-2 2 -1.5 4.5t0.5 5.5h32q15 -29 31 -46.5t31.5 -27t29 -13t23.5 -3.5q29 0 54 24t27 80zM-151 710q-8 -47 -51 -47q-22 0 -37 12.5t-15 35.5q0 20 15 34t37 14t36.5 -14
t14.5 -34v-1z" />
    <glyph glyph-name="bn_anusvara" unicode="&#x982;" horiz-adv-x="420" 
d="M333 477q0 -29 -12.5 -53.5t-32 -41.5t-43 -26.5t-46.5 -9.5q-47 0 -78.5 28t-31.5 72q0 26 10 49.5t28 41t43 27.5t54 10q48 0 78.5 -26.5t30.5 -70.5zM376 -22q-62 67 -131.5 132.5t-156.5 116.5l35 65q19 -11 43.5 -32.5t50.5 -48t52 -55t47.5 -54.5t37.5 -47t22 -31
v-46zM277 487q0 18 -11.5 30t-29.5 12t-35 -10.5t-29.5 -25t-20 -30t-7.5 -25.5q0 -20 12 -32t29 -12q16 0 32 9t29.5 22.5t22 30t8.5 31.5z" />
    <glyph glyph-name="bn_visarga" unicode="&#x983;" horiz-adv-x="426" 
d="M346 477q0 -29 -12 -53.5t-31.5 -41.5t-43 -26.5t-46.5 -9.5q-47 0 -79 28t-32 72q0 26 10.5 49.5t28.5 41t43 27.5t54 10q47 0 77.5 -26.5t30.5 -70.5zM346 201q0 -29 -12 -53t-31.5 -41.5t-43 -27.5t-46.5 -10q-47 0 -79 27t-32 74q0 26 10.5 49.5t28.5 41.5t43 28.5
t54 10.5q47 0 77.5 -27.5t30.5 -71.5zM291 487q0 18 -12 30t-29 12q-19 0 -35.5 -10.5t-29 -25t-19.5 -30t-7 -25.5q0 -20 11 -32t29 -12q16 0 32 9t29.5 22.5t22 30t8.5 31.5zM291 211q0 16 -12 29.5t-29 13.5q-19 0 -35.5 -11t-29 -26t-19.5 -30.5t-7 -24.5
q0 -19 11 -31.5t29 -12.5q16 0 32 9t29.5 22.5t22 30t8.5 31.5z" />
    <glyph glyph-name="bn_a" unicode="&#x985;" horiz-adv-x="611" 
d="M644 526h-81v-519l-36 28q0 72 -21 121t-60 78q-22 -51 -59.5 -74.5t-83.5 -23.5q-59 0 -103.5 33t-77 84.5t-54 114t-34.5 122.5l33 -15q21 -72 48 -122.5t57 -82t61.5 -45.5t60.5 -14q30 0 52.5 10t37.5 25.5t22.5 36t7.5 41.5q0 36 -22.5 62.5t-55.5 26.5q-3 0 -4 -1
q7 -14 7 -32q0 -26 -17.5 -45t-48.5 -19q-13 0 -26.5 6t-24 16t-17 23.5t-6.5 29.5q0 21 9 38.5t23.5 30t33.5 19.5t40 7q16 0 40 -7.5t47 -27t43 -52.5t29 -83q1 -12 5.5 -22.5t11.5 -21.5l10 -17l14 -26l5 -10v307h-483l-33 48h617z" />
    <glyph glyph-name="bn_aa" unicode="&#x986;" horiz-adv-x="797" 
d="M837 526h-88v-520l-53 48v394q0 7 -5 19t-12.5 24t-16.5 22t-16 13h-82v-519l-36 28q0 136 -81 199q-21 -51 -57.5 -74.5t-85.5 -23.5q-59 0 -103 33t-76.5 84.5t-54.5 114t-35 122.5l33 -15q21 -71 47.5 -121t56.5 -82t61.5 -46.5t61.5 -14.5t52.5 9.5t37.5 25t22.5 36
t7.5 42.5q0 17 -5.5 33t-16 28.5t-24.5 20t-31 7.5q-6 0 -5.5 0.5t-0.5 -0.5q8 -15 8 -33q0 -26 -17 -45t-49 -19q-29 0 -51.5 21.5t-22.5 53.5q0 19 8 36.5t22.5 30.5t34 20.5t42.5 7.5q20 0 44 -9.5t46.5 -29.5t41 -53t26.5 -79q2 -13 8.5 -26.5t14.5 -26.5q6 -9 12 -19.5
t8 -16.5l4 -8l1 -1l-1 1v308h-484l-33 48h659q19 -13 28 -21.5t14 -20.5v139q22 -11 32 -35.5t15 -45.5l5 -16h51z" />
    <glyph glyph-name="bn_i" unicode="&#x987;" horiz-adv-x="467" 
d="M397 608q-1 -11 -2 -20t-3 -14h75l34 -48h-475l-33 48h354q11 3 11 10q0 12 -7 19t-18 11.5t-24 6t-26 1.5q-12 0 -31 -1t-39 -3t-38 -3t-30 -1q-22 0 -44.5 7.5t-40.5 21.5t-29.5 35.5t-11.5 48.5q0 18 9 62l37 -21q-3 -11 -5 -20.5t-2 -17.5q0 -28 21 -41t60 -13
q32 0 67 3q18 1 36.5 2t35.5 1q58 0 85 -22.5t34 -50.5v-1zM227 496h14q40 0 73 -13.5t56 -35.5t35.5 -51t12.5 -59q0 -56 -38.5 -105t-126.5 -75q67 -45 116 -87.5t91 -85.5v-46q-40 36 -80 69.5t-80.5 59.5t-80 43t-78.5 20l-78 113q69 -21 116 -21q48 0 83 14t57.5 35
t33.5 45t11 44q0 40 -24.5 61t-70.5 21h-8q-2 0 -2.5 -0.5t-3.5 -0.5v-8q0 -27 -7.5 -48t-20.5 -35.5t-29 -22t-32 -7.5q-29 0 -48.5 18t-19.5 43q0 21 11.5 39.5t28.5 33t37 24.5t37 14z" />
    <glyph glyph-name="bn_ii" unicode="&#x988;" horiz-adv-x="544" 
d="M145 494q10 3 22 3q29 0 52.5 -11t41 -28.5t28 -40t12.5 -46.5q31 34 62.5 61.5t52.5 39.5l113 -62q-19 -17 -36.5 -40t-31 -51.5t-21.5 -62t-8 -71.5q0 -16 2 -39t6 -48t9 -49t10 -41l-42 22q-25 85 -29 141.5t-4 94.5q0 29 7.5 56.5t17.5 53.5q-11 -8 -24.5 -21.5
t-28 -29.5t-29.5 -34t-28 -35q-20 -25 -38 -47t-32 -34q-3 -2 -8 -6t-3 -2q-8 -7 -15.5 -11.5t-24.5 -4.5t-31 12.5t-26 30.5t-21.5 38.5t-16.5 35.5l41 11q5 -17 11.5 -31.5t20.5 -14.5q7 0 24.5 13t36 31.5t32.5 39t14 35.5q0 14 -5 28t-14 25t-21 18t-25 7q-5 0 -9 -1
q8 -13 8 -32q0 -26 -17.5 -44t-48.5 -18q-29 0 -47 19.5t-18 48.5q0 37 22 59.5t57 31.5zM484 608q-2 -22 -6 -34h67l35 -48h-553l-33 48h435q13 4 13 10q0 11 -7.5 18.5t-19 12t-26 6.5t-27.5 2q-14 0 -34 -1.5t-41 -3.5q-22 -2 -41 -3t-32 -1q-24 1 -48 9t-43 22t-31 35.5
t-13 49.5q1 1 1 3q0 5 1 9l9 50l38 -22q-3 -11 -5 -20t-2 -17q0 -29 22 -42.5t64 -13.5q18 0 36 0.5t37 1.5q19 2 38 3t39 1q32 0 54 -6t36.5 -16t23 -23.5t13.5 -27.5v-2z" />
    <glyph glyph-name="bn_u" unicode="&#x989;" horiz-adv-x="503" 
d="M432 608q-1 -11 -2 -20t-3 -14h76l31 -48h-267v-179q0 -6 4.5 -10.5t6.5 -4.5q4 0 17.5 6t31 18.5t36.5 31.5t33 45q42 -32 59.5 -76t17.5 -86q0 -51 -17.5 -88.5t-44.5 -63t-59 -38t-60 -12.5q-119 10 -180.5 116t-77.5 323l35 -22q10 -76 28.5 -138t46 -106.5
t64.5 -68.5t86 -24q23 0 47.5 8t45 23.5t33.5 38t13 52.5q0 16 -6.5 31t-18.5 26q-13 -15 -29.5 -26t-33 -19t-32.5 -12t-29 -4q-19 0 -32.5 10t-21.5 23.5t-12 27t-4 19.5v179h-187l-34 48h391q6 2 8.5 6t2.5 7q-6 20 -27.5 27.5t-44.5 7.5q-11 0 -29 -1t-37 -3
q-18 -2 -35 -3t-28 -1q-23 0 -44.5 7.5t-38 22t-27 36t-11.5 48.5q0 14 9 62l36 -21q-7 -13 -7 -38q0 -28 20 -41.5t56 -13.5q32 0 65 3q17 1 33.5 2t32.5 1q29 0 49 -6t33.5 -16.5t21 -23.5t10.5 -27v-1z" />
    <glyph glyph-name="bn_uu" unicode="&#x98a;" horiz-adv-x="585" 
d="M517 608q-1 -11 -1.5 -19.5t-2.5 -14.5h72l32 -48h-265v-179q0 -6 5 -10.5t7 -4.5q4 0 17.5 6t31 18.5t36 31.5t32.5 45q45 -32 61 -75.5t16 -86.5q0 -51 -17.5 -88.5t-44 -63t-58.5 -38t-60 -12.5q-23 1 -46 7.5t-43.5 14.5t-36 16.5t-21.5 13.5q-11 8 -34 31t-50 67.5
t-52.5 114.5t-41.5 174l38 -18q10 -43 18.5 -75.5t17 -58t17.5 -45.5t19 -36q-5 13 -8 27q-14 44 -23 87.5t-9 83.5q0 5 -3 9.5t-1 18.5l38 -15q10 -78 29 -140.5t47 -106t65 -67t82 -23.5h6q23 2 46.5 10.5t42.5 23.5t31 37t12 51q0 16 -6.5 31t-17.5 26q-13 -15 -29.5 -26
t-33 -19t-32.5 -12t-29 -4q-19 0 -32.5 10t-22 23.5t-12.5 27t-4 19.5v179h-272l-33 48h475q6 2 8.5 6t2.5 7q-6 20 -27 27.5t-44 7.5q-12 0 -29.5 -1t-37.5 -3q-18 -2 -35 -3t-28 -1q-23 0 -44.5 7.5t-38 22t-26.5 36t-11 48.5q0 14 9 62l36 -21q-8 -12 -8 -38
q0 -28 20 -41.5t56 -13.5q31 0 66 3q17 1 33 2t33 1q28 0 48 -6t33.5 -16.5t21 -23.5t10.5 -27v-1z" />
    <glyph glyph-name="bn_ri" unicode="&#x98b;" horiz-adv-x="570" 
d="M521 570v-483l-36 25q-11 46 -33.5 82t-61.5 52v-239l-33 26q-14 46 -38.5 83.5t-56 64.5t-67.5 43t-72 20l-55 74l241 147q-7 8 -19 15.5t-27 13.5q-12 -12 -28.5 -23.5t-35 -21t-37 -15.5t-33.5 -6q-31 0 -51.5 8.5t-33 21t-18 28t-5.5 29.5q0 18 12.5 37t42.5 22
q19 0 37 -14t18 -40q0 -6 -1 -13.5t-6 -16.5q24 7 48 29t44 51q26 -5 61 -27t60 -49v141l53 -64v-246q24 -21 39 -40.5t29 -39.5l10 -14v400zM337 404q-43 -26 -81 -49.5t-81 -49.5q29 -17 52 -32.5t42 -32t35.5 -36.5t32.5 -45v245z" />
    <glyph glyph-name="bn_li" unicode="&#x98c;" horiz-adv-x="521" 
d="M480 205q0 -44 -19 -77t-50.5 -55t-72.5 -33t-86 -11q-26 0 -51.5 3t-46 10.5t-33 18.5t-12.5 28q0 10 7.5 19t19 16.5t25 13.5t25.5 11l9 5q28 14 37 29.5t9 43.5q0 23 -14.5 42.5t-47.5 19.5q-34 0 -61 -21q12 -6 20.5 -17.5t8.5 -23.5q0 -17 -16 -34t-45 -17
q-25 0 -38 15.5t-13 41.5q0 19 10.5 36.5t28 31t40 21.5t47.5 8q28 0 51.5 -9.5t40.5 -26t26 -39t9 -47.5q0 -33 -12.5 -51.5t-43.5 -40.5l-3 -1q-12 -6 -24 -12.5t-12 -10.5q0 -9 7.5 -14.5t19 -8.5t23.5 -4t21 -1q31 0 56 11.5t42 30.5t26.5 44.5t9.5 53.5q0 59 -38 101.5
t-104 73.5q-42 19 -76 36t-59.5 37.5t-42 47t-23.5 65.5l25 7q7 -27 20 -46.5t35 -35.5t55 -31t82 -33q43 -18 80.5 -39.5t66 -48.5t45 -60t16.5 -73z" />
    <glyph glyph-name="bn_e" unicode="&#x98f;" horiz-adv-x="531" 
d="M482 7l-33 25q0 27 -8 42.5t-21.5 23.5t-31 10.5t-36.5 2.5q-14 0 -28 -1.5t-28 -3.5q-16 -2 -31.5 -3.5t-32.5 -1.5q-42 0 -78.5 12t-63.5 37.5t-42.5 65t-15.5 95.5q0 18 3 37.5t13 39.5l41 -18q-14 -30 -14 -64q0 -27 7 -51t21 -41.5t35.5 -28t50.5 -10.5q28 0 58 1.5
t65 6.5q38 0 65 -13t53 -33v350q0 15 -6.5 26t-23.5 11q-19 0 -43 -11.5t-45.5 -30t-36.5 -43t-15 -50.5q0 -8 -0.5 -8.5t0.5 -1.5q13 5 28 5q32 0 50 -21t18 -43q0 -11 -6 -23t-16 -22t-22 -16t-24 -6q-14 0 -31 5t-32 17t-25.5 32.5t-10.5 52.5q0 44 22 83t53.5 68
t67 45.5t63.5 16.5q17 0 33 -9.5t28 -22.5t19 -27t7 -23v-484z" />
    <glyph glyph-name="bn_ai" unicode="&#x990;" horiz-adv-x="607" 
d="M573 517q0 -41 -19 -69.5t-71 -54.5v-386l-33 25q0 27 -8 42.5t-21.5 23.5t-31.5 10.5t-37 2.5q-13 0 -27 -1.5t-29 -3.5t-30.5 -3.5t-32.5 -1.5q-42 0 -78.5 12t-63.5 37.5t-42.5 65t-15.5 95.5q0 18 3 37.5t13 39.5l41 -18q-14 -30 -14 -64q0 -27 7 -51t21 -41.5
t35 -28t50 -10.5q28 0 58 1.5t65 6.5q39 0 66 -13t52 -33v350q0 15 -6 26t-23 11q-19 0 -43.5 -11.5t-46 -30t-36.5 -43t-15 -50.5q0 -8 -0.5 -8.5t0.5 -1.5q13 5 29 5q32 0 50 -21t18 -43q0 -11 -6 -23t-16 -22t-22 -16t-24 -6q-14 0 -31.5 5t-32.5 17t-25.5 32.5
t-10.5 52.5q0 44 22 83t53.5 68t67.5 45.5t63 16.5q18 0 34 -9.5t28 -22.5t19 -27t7 -23v-30q13 1 22 7t15 14.5t8.5 18.5t2.5 19q0 32 -32.5 50.5t-104.5 29.5q-59 9 -99 19t-64.5 25t-35 36.5t-10.5 54.5q0 13 4.5 27.5t11.5 26.5l38 -18q-8 -8 -11 -18.5t-3 -20.5
q0 -15 15.5 -27t42.5 -21t64 -16.5t81 -13.5q79 -11 112 -44.5t33 -92.5z" />
    <glyph glyph-name="bn_o" unicode="&#x993;" horiz-adv-x="570" 
d="M523 242q0 -38 -14 -70t-37 -55t-53.5 -36.5t-63.5 -13.5q-47 0 -86 18.5t-70.5 50.5t-56.5 73.5t-43 88t-30.5 94t-19.5 90.5l40 -16q22 -91 50 -152t59.5 -98t66 -52.5t70.5 -15.5q22 0 47 8.5t46 23t34.5 34t13.5 41.5q0 17 -7 26.5t-25 14.5q-6 -18 -19 -33.5
t-39 -15.5q-36 0 -52.5 20.5t-16.5 43.5v4q1 9 5 20t11.5 20t19 15t28.5 6t30 -4q3 1 9 9t12.5 18.5t11.5 23t5 23.5q0 32 -23.5 51.5t-57.5 19.5q-29 0 -54 -15.5t-43 -37.5q9 -8 17 -19t8 -30q0 -31 -21.5 -52t-53.5 -21q-12 0 -22.5 6t-18 16t-11.5 22t-4 23
q0 23 12 51.5t35 53.5t56.5 42t77.5 17q68 0 109 -36t41 -94q0 -21 -8 -48t-19 -47q8 -6 17.5 -16.5t17.5 -24.5t13.5 -30.5t5.5 -34.5z" />
    <glyph glyph-name="bn_au" unicode="&#x994;" horiz-adv-x="614" 
d="M513 242q0 -38 -14 -70t-37.5 -55t-54 -36.5t-62.5 -13.5q-69 0 -121.5 40t-90 101.5t-60 133.5t-32.5 137l39 -17q22 -90 49.5 -150.5t59 -97t66 -52t71.5 -15.5q22 0 46.5 8.5t45.5 23t34.5 34t13.5 41.5q0 16 -6.5 25t-25.5 14q-6 -17 -18.5 -32t-38.5 -15
q-19 0 -32 5.5t-21.5 14.5t-12.5 20.5t-4 22.5v4q0 10 4 20.5t12.5 19.5t20.5 15t28 6h2q1 0 1.5 -0.5t2.5 -0.5l24 -4q2 1 8 8.5t12 18t11 23t5 24.5q0 32 -22.5 51.5t-57.5 19.5q-29 0 -53 -15.5t-44 -37.5q9 -8 17.5 -19t8.5 -31q0 -29 -21.5 -50t-54.5 -21
q-26 0 -41 21.5t-15 43.5q0 23 12 51.5t35 53t57 41.5t78 17q33 0 60.5 -9.5t47.5 -26.5t31 -40.5t11 -52.5q0 -11 -3 -23q16 14 21 32.5t5 35.5q0 14 -6.5 33t-35.5 44q-17 17 -42.5 28t-54.5 18t-60 11t-59 7q-32 3 -53 14.5t-33.5 27t-17.5 33.5t-5 34q0 17 4.5 32
t8.5 23l39 -21q-15 -18 -15 -37q0 -6 1.5 -12.5t8.5 -12t21.5 -9.5t40.5 -4q87 -2 149 -22t107 -62q20 -18 37 -44.5t17 -67.5q0 -36 -21 -76t-80 -77q17 -13 34.5 -40.5t17.5 -61.5z" />
    <glyph glyph-name="bn_ka" unicode="&#x995;" horiz-adv-x="614" 
d="M652 526h-268v-22q48 -8 84 -27t60.5 -44.5t36.5 -55t12 -58.5q0 -17 -5.5 -37.5t-16.5 -39.5t-27.5 -31.5t-38.5 -12.5q-21 0 -41 15.5t-20 43.5q0 9 3.5 20t11 21t19 16.5t26.5 6.5q8 0 18 -3.5t18 -6.5q7 14 7 30q0 19 -13 36t-34 29.5t-47 19.5t-51 7h-2v-426l-32 23
q-35 112 -101 168.5t-150 67.5l-53 69l283 163v28h-304l-33 48h621zM331 424q-45 -26 -85 -49.5t-86 -49.5q47 -20 90 -57t81 -99v255z" />
    <glyph glyph-name="bn_kha" unicode="&#x996;" horiz-adv-x="501" 
d="M538 526h-82v-519l-32 23q-28 65 -60.5 107t-68 66t-72.5 33t-74 9h-21l-67 96q21 -4 36 -5t27 -1q29 0 52 5.5t41 13.5t30.5 17.5t20.5 17.5q17 16 27.5 34t10.5 38q0 9 -3 15t-11 14q-41 -46 -76 -62t-71 -16q-27 0 -46 7.5t-31 20t-17.5 29t-5.5 35.5q0 15 6.5 27.5
t16.5 22t22.5 15t25.5 5.5q25 0 39 -17t14 -42q0 -16 -4 -27q2 0 2.5 -0.5t2.5 -0.5q47 0 78 86q33 -11 53.5 -28t32.5 -36.5t16 -40t4 -36.5q0 -29 -11 -57t-38 -53q-8 -6 -24 -13.5t-42 -15.5q35 -13 60.5 -28t44.5 -32.5t33.5 -36.5t26.5 -39v514q19 -11 30.5 -36.5
t17.5 -46.5q1 -3 1.5 -7.5t0.5 -6.5h49z" />
    <glyph glyph-name="bn_ga" unicode="&#x997;" horiz-adv-x="471" 
d="M208 567q30 -1 54 -13t44 -30.5t36.5 -42.5t30.5 -50v240q24 -11 33.5 -36t14.5 -46q2 -5 2 -8t2 -7h47l38 -48h-84v-520l-53 48v286q0 11 -8.5 34.5t-28.5 48.5q-5 12 -18 25.5t-30 25.5t-36 19.5t-36 7.5q-28 0 -52.5 -14t-38.5 -46q18 5 38 5q60 0 84.5 -22t24.5 -61
q0 -22 -23 -68t-72 -100l-63 72l7 4q8 6 22 17.5t31 29.5q23 24 33 41.5t10 25.5q0 16 -21 16q-3 0 -14 -5t-25 -11q-17 -8 -30.5 -15t-23.5 -7q-20 0 -32 7t-19 17.5t-9.5 23t-2.5 22.5q0 15 5.5 32t18.5 34q18 24 39 37.5t40.5 20t35 8.5t23.5 2h6v0z" />
    <glyph glyph-name="bn_gha" unicode="&#x998;" horiz-adv-x="473" 
d="M511 526h-84v-519q-21 14 -29 25t-16 24q-9 13 -22.5 31.5t-39.5 44.5h1q-14 12 -33 23.5t-40 21.5t-43.5 16t-43.5 6h-13l-61 82l94 80h-23q-34 0 -54 10t-30.5 24.5t-13.5 29.5t-3 25q0 23 11.5 42.5t28.5 33.5h-71l-33 48h480zM374 526h-138q-18 0 -36.5 -8.5
t-33.5 -21.5t-25 -27.5t-10 -27.5q0 -20 17 -31t41 -11q45 0 91 46l46 -60l-133 -113q61 -25 103.5 -56t77.5 -82v392z" />
    <glyph glyph-name="bn_nga" unicode="&#x999;" horiz-adv-x="507" 
d="M471 225q0 -39 -12.5 -70t-35 -53.5t-53.5 -34.5t-67 -12q-65 0 -112.5 36.5t-79 93t-49 125t-21.5 133.5l37 -13q6 -53 16.5 -93t23.5 -70t28 -50.5t30 -33.5q29 -26 58.5 -38.5t70.5 -12.5q22 0 44 6.5t39 18.5t28 30t11 42q0 16 -8 27.5t-23 22.5q-11 -11 -26.5 -22.5
t-33 -20.5t-36.5 -14.5t-37 -5.5q-21 0 -35.5 9.5t-23.5 23.5t-13.5 29t-4.5 26v82q-28 10 -48.5 27.5t-35 38.5t-23 44t-13.5 45l30 24q9 -41 31 -71t58 -47v2q0 40 12 65t30 38t38.5 17.5t36.5 4.5q15 0 30.5 -5t28 -16t20.5 -28.5t8 -43.5q0 -21 -10 -40.5t-26.5 -34.5
t-37.5 -24t-42 -9h-38v-69q0 -14 23 -14q14 0 32 9t35.5 21.5t32 27t21.5 25.5q24 -14 41.5 -32t29 -38t16.5 -40t5 -38zM344 491q0 11 -10 17.5t-23 6.5q-12 0 -25.5 -5t-24.5 -15.5t-18.5 -26.5t-8.5 -37h9q21 0 39.5 6t32 15t21.5 19.5t8 19.5z" />
    <glyph glyph-name="bn_ca" unicode="&#x99a;" horiz-adv-x="431" 
d="M469 526h-339v-34q20 -32 39.5 -51t38 -28.5t35.5 -12.5t32 -3q5 0 9.5 0.5t9.5 0.5h16q14 0 28.5 -4t26 -12t19 -22t7.5 -33q0 -49 -25 -97t-61 -85.5t-76 -60.5t-70 -23q-21 0 -37 9.5t-26.5 23t-15.5 28t-5 25.5v379h-49l-33 48h438zM310 325q-2 -1 -5 -0.5t-6 0.5
q-24 0 -45 4.5t-41.5 15t-41 29t-41.5 45.5v-267q0 -16 7 -25t17 -9q23 0 50.5 23t51 55.5t39 68t15.5 60.5z" />
    <glyph glyph-name="bn_cha" unicode="&#x99b;" horiz-adv-x="463" 
d="M499 526h-375v-8q19 -28 44.5 -41t54.5 -13q5 0 11 0.5t12 0.5q6 1 13 1h13q31 0 62 -8t60 -35q25 -23 34 -53t9 -54q0 -32 -11 -61.5t-32 -53.5q-18 -17 -43.5 -29.5t-50.5 -20.5h-1q28 -17 57 -38.5t57 -45t53.5 -47.5t46.5 -46v-44q-71 65 -152 116h1l-43 23
q-35 19 -74 30.5t-79 20.5l-68 93q25 -5 45 -7.5t38 -2.5q107 0 159 35.5t52 92.5q0 32 -22.5 49.5t-49.5 17.5h-6v-4q0 -31 -18 -58t-43 -46.5t-51.5 -31t-43.5 -11.5q-32 0 -55 20.5t-32 58.5v200h-45l-33 48h471zM245 397h-5q1 2 1 6zM144 302q10 1 24.5 7t29.5 18
t26.5 29t15.5 41q-45 9 -69.5 25.5t-46.5 39.5v-141q0 -11 4 -15t17 -4h-1z" />
    <glyph glyph-name="bn_ja" unicode="&#x99c;" horiz-adv-x="618" 
d="M654 526h-321l-4 -2t-4 -3q17 -32 50.5 -55t78.5 -23q21 0 83 15l64 -88q-45 -38 -65.5 -86.5t-20.5 -106.5q0 -49 7.5 -85t15.5 -66l2 -17l-36 21q-17 54 -28 105.5t-11 105.5q2 19 4.5 35t7 31.5t11 31.5t15.5 36h-18q-63 0 -111.5 34.5t-76.5 88.5q-20 -14 -36 -31.5
t-28 -35.5t-18.5 -35.5t-6.5 -30.5q0 -22 11.5 -33t29.5 -11q23 0 51.5 16.5t54.5 46.5q41 -29 58 -61.5t17 -69.5q0 -28 -8.5 -53.5t-26 -45t-43 -31.5t-58.5 -12q-62 0 -107.5 31.5t-76 83t-45.5 116.5t-15 133v15t2 19l36 -20q0 -65 15 -121t41.5 -97.5t62.5 -65
t78 -23.5q26 0 44.5 7t30.5 18t18 25t6 28q0 10 -3 18l-6 16h1l-1 1q-9 -4 -21 -9.5t-25.5 -11t-27 -9t-25.5 -3.5q-19 0 -40.5 8t-39.5 25t-30 42.5t-12 61.5q0 19 6 37.5t15 35t20.5 30t23.5 24.5h-193l-33 48h626z" />
    <glyph glyph-name="bn_jha" unicode="&#x99d;" horiz-adv-x="594" 
d="M632 526h-109v-456l-32 34q-17 38 -46.5 66.5t-59.5 43.5v-208l-32 26q-43 118 -106.5 171.5t-145.5 58.5l-54 74l286 164v26h-306l-33 48h600zM470 526h-85v-250q36 -26 52 -41.5t29 -28.5l4 -3v323zM333 424l-173 -99q31 -15 55.5 -31.5t44.5 -35.5t38 -41.5t35 -49.5
v257z" />
    <glyph glyph-name="bn_nya" unicode="&#x99e;" horiz-adv-x="777" 
d="M493 463q5 5 8.5 9.5t7.5 9.5q26 32 53.5 49.5t64.5 17.5q23 0 41.5 -8.5t31 -23t19.5 -33t7 -38.5q0 -21 -11 -41.5t-24 -37.5q14 -11 24.5 -29.5t10.5 -47.5q0 -16 -5 -34t-17.5 -33t-33 -25t-51.5 -10q-49 0 -78.5 23t-47.5 59v-264l-33 26q0 27 -8 42.5t-21 23.5
t-31 10.5t-37 2.5q-14 0 -27.5 -1.5t-28.5 -3.5t-30.5 -3.5t-32.5 -1.5q-42 0 -78.5 12t-63.5 37.5t-42.5 65t-15.5 95.5q0 18 3 37.5t12 39.5l41 -18q-13 -31 -13 -64q0 -27 7 -51t21 -41.5t35 -28t50 -10.5h28q20 0 41.5 2t44.5 5q2 0 5 0.5t5 0.5q38 0 65 -13t52 -33v350
q0 15 -6 26t-23 11q-19 0 -43.5 -11.5t-46 -30t-36.5 -43t-15 -50.5q0 -8 -0.5 -8.5t0.5 -1.5q13 5 28 5q32 0 50.5 -21t18.5 -43q0 -11 -6 -23t-16 -22t-22.5 -16t-24.5 -6q-14 0 -31 5t-32 17t-25.5 32.5t-10.5 52.5q0 44 22 83t53.5 68t67.5 45.5t63 16.5q18 0 34 -9.5
t28 -22.5t18.5 -27t6.5 -23v-28zM629 489q-19 0 -39.5 -9t-39.5 -23t-34.5 -31.5t-22.5 -33.5v-41l10 -21q8 -16 20 -31.5t27 -28t32.5 -20.5t36.5 -8q35 0 49 14.5t14 32.5q0 11 -5.5 21.5t-22.5 20.5q-17 -22 -42 -22q-22 0 -39.5 18t-17.5 44q0 29 17.5 45.5t37.5 16.5
q13 0 25 -5.5t23 -19.5q14 8 17 15.5t5 27.5q0 18 -28 34z" />
    <glyph glyph-name="bn_tta" unicode="&#x99f;" horiz-adv-x="448" 
d="M409 608q-1 -11 -2 -20t-3 -14h44l34 -48h-352v-356q0 -9 5 -16t11.5 -12.5t14 -8t13.5 -2.5q7 0 29.5 10t47 29t45 46t23.5 61q-5 -1 -11 -1.5t-13 -0.5q-28 0 -42.5 19.5t-14.5 40.5q0 25 18.5 46t52.5 21q17 0 32.5 -8t27.5 -22.5t19 -34t7 -41.5q0 -53 -30.5 -94.5
t-70 -70.5t-77 -44t-52.5 -15q-14 0 -30 8t-29.5 21.5t-22.5 31t-9 37.5v356h-48l-33 48h365q12 3 12 10q0 12 -7 19.5t-18 11.5t-24 5.5t-25 1.5q-13 0 -32 -1t-40 -3q-20 -2 -37.5 -3t-29.5 -1q-22 0 -44.5 7.5t-41 21.5t-30 35.5t-11.5 48.5q0 9 2.5 24.5t7.5 37.5
l37 -21q-8 -22 -8 -38q0 -28 22 -41t60 -13q32 0 68 3q17 1 35 2t36 1q58 0 85 -22.5t34 -50.5v-1z" />
    <glyph glyph-name="bn_ttha" unicode="&#x9a0;" horiz-adv-x="429" 
d="M468 526h-184q58 -57 83.5 -115.5t25.5 -122.5q0 -35 -12 -71t-34.5 -64.5t-55.5 -46.5t-74 -18q-32 0 -62.5 12.5t-53.5 36t-37 56.5t-14 75v7q0 2 0.5 6t0.5 6q13 2 42.5 12t58.5 32.5t51.5 61t22.5 97.5q0 9 -0.5 17t-1.5 16l1 -2q1 -1 0 1l-2 4h-197l-33 48h207
q-35 47 -52.5 84t-20.5 76q0 18 3 29.5t11 25.5l54 -28q-8 -14 -10.5 -25.5t-3.5 -24.5q6 -38 23.5 -73.5t40.5 -63.5h185zM339 308q0 38 -16.5 85.5t-51.5 85.5q1 -9 1.5 -19t0.5 -20q0 -52 -17.5 -96t-63.5 -82q-12 -11 -25 -18t-23 -12q-11 -5 -17.5 -11t-6.5 -18
q0 -29 18.5 -46.5t55.5 -17.5q31 0 58 12t46 34t30 53t11 70z" />
    <glyph glyph-name="bn_dda" unicode="&#x9a1;" horiz-adv-x="512" 
d="M513 574l31 -48h-267v-163q0 -6 4.5 -9.5t6.5 -3.5q3 0 16.5 6t31.5 18.5t36.5 31t32.5 43.5q44 -31 61 -75t17 -86q0 -51 -17.5 -89t-44.5 -63t-59 -37t-60 -12q-60 4 -103 32t-73.5 79t-50 124.5t-32.5 167.5l35 -22q12 -44 27.5 -96.5t41 -98t63.5 -76t94 -30.5
q22 0 47 8t45 23.5t33.5 38t13.5 51.5q0 17 -6.5 32t-18.5 26q-13 -14 -29.5 -26t-33.5 -20t-33 -12.5t-28 -4.5q-20 0 -33 10.5t-21.5 24t-12 27t-3.5 18.5v163h-197l-34 48h520z" />
    <glyph glyph-name="bn_ddha" unicode="&#x9a2;" horiz-adv-x="424" 
d="M421 574l38 -48h-339v-335q0 -9 5 -16t12.5 -12.5t16 -8t15.5 -2.5q8 0 31 9.5t48 28t45 46t21 63.5q-5 -1 -11.5 -1.5t-12.5 -0.5q-29 0 -42.5 19t-13.5 40q0 26 18 47t53 21t60 -30.5t25 -76.5q0 -35 -14.5 -65t-37 -55t-49.5 -44t-52.5 -32t-46 -20t-29.5 -7
q-17 0 -33.5 9t-29.5 23t-21.5 31t-8.5 34v335h-42l-33 48h428z" />
    <glyph glyph-name="bn_nna" unicode="&#x9a3;" horiz-adv-x="444" 
d="M479 526h-82v-520l-52 49v281q-15 44 -36.5 75t-44 50.5t-43 28.5t-33.5 9q-25 0 -45 -9t-33.5 -23t-21 -31.5t-7.5 -34.5t8.5 -30.5t25.5 -18.5q4 21 24.5 35t46.5 14t48.5 -22.5t22.5 -57.5q0 -29 -20.5 -52t-60.5 -23q-29 0 -54 12.5t-43 33.5t-28 49.5t-10 60.5
q0 34 11 64.5t29 53.5t42 36.5t50 13.5q29 0 54 -12.5t46.5 -32.5t39.5 -45t32 -51v242q20 -10 29 -31t15 -42q2 -5 3.5 -12t3.5 -12h49z" />
    <glyph glyph-name="bn_ta" unicode="&#x9a4;" horiz-adv-x="576" 
d="M79 491q28 -95 62 -157.5t71 -100t76.5 -52.5t78.5 -15q37 0 63 14.5t42.5 36t24.5 46t8 44.5q0 17 -7 36t-19 35.5t-28.5 27t-36.5 10.5q-8 0 -12 -1q10 -26 10 -45q0 -22 -9 -37.5t-22 -25t-29 -14t-29 -4.5q-46 0 -72.5 28.5t-26.5 68.5q0 17 8 36t24 35.5t39.5 27.5
t54.5 11q19 0 53 -9t67 -33t57.5 -66t24.5 -109q0 -35 -10.5 -69t-32.5 -61.5t-54.5 -44.5t-77.5 -17q-15 0 -39.5 4t-54 18t-62.5 41.5t-65.5 74.5t-62 116.5t-52.5 168.5zM609 526h-582l-33 48h580z" />
    <glyph glyph-name="bn_tha" unicode="&#x9a5;" horiz-adv-x="502" 
d="M539 526h-84v-519l-31 25l-6 10v-1q-6 11 -20.5 32t-37.5 44h1q-55 53 -110 75t-119 22h-15l-73 97q24 -2 41 -4t28 -2q37 0 71.5 9t61.5 26t43 42.5t16 58.5q0 15 -4.5 29.5t-14 26t-24.5 18.5t-36 7t-41 -7.5t-34 -21.5q13 -7 23.5 -19.5t10.5 -31.5q0 -9 -4.5 -20
t-13.5 -20t-22.5 -15.5t-31.5 -6.5q-29 0 -45 19.5t-16 51.5q0 23 12 45t33 39t50 27.5t62 10.5q34 0 62.5 -13t48 -35t30.5 -49.5t11 -57.5q0 -52 -27.5 -93t-75.5 -64q56 -33 87 -66t52 -59l6 -7v542q11 -4 19.5 -16t14.5 -27t10 -29.5t6 -24.5h49z" />
    <glyph glyph-name="bn_da" unicode="&#x9a6;" horiz-adv-x="468" 
d="M503 526h-365v-234q51 57 98.5 104t103.5 77l96 -52q-41 -50 -54.5 -104t-13.5 -109q0 -26 2.5 -51.5t8 -52t13.5 -55.5t19 -63l-39 18q-29 66 -47 131t-18 131q0 26 3 51.5t11 49.5q-32 -25 -59 -55.5t-53 -60.5l-54 -62l-70 61v276h-59l-33 48h472z" />
    <glyph glyph-name="bn_dha" unicode="&#x9a7;" horiz-adv-x="453" 
d="M492 526h-87v-522l-33 38l-5 10h1q-9 18 -27.5 49.5t-49.5 62.5t-75.5 54t-104.5 23l-58 73l154 85h-1q-28 0 -51 8.5t-39.5 23t-26 32.5t-9.5 36q0 15 6.5 28t17.5 23.5t25.5 16.5t31.5 6q29 0 44.5 -15.5t15.5 -36.5q0 -19 -12 -32.5t-43 -15.5q7 -15 16.5 -23
t20.5 -11.5t23 -4.5t24 -1q21 0 44 12t43 26q3 2 6 3.5t10 5.5v192q24 -11 33 -35.5t14 -46.5l4 -16h49zM353 401q-48 -26 -90 -49t-90 -49q53 -20 95 -53t85 -93v244z" />
    <glyph glyph-name="bn_na" unicode="&#x9a8;" horiz-adv-x="462" 
d="M494 526h-83v-520l-31 28q0 48 -15.5 94t-41 83t-57 61t-63.5 28q7 -13 9.5 -23.5t2.5 -20.5q0 -17 -7.5 -31.5t-19.5 -25t-26 -16t-27 -5.5q-20 0 -36.5 7.5t-28 20.5t-17.5 29t-6 34q0 25 10 44.5t27 32.5t39 19.5t47 6.5q20 0 44.5 -7t50 -22.5t50 -41t43.5 -62.5v287
h-332l-33 48h466z" />
    <glyph glyph-name="bn_pa" unicode="&#x9aa;" horiz-adv-x="525" 
d="M558 526h-79v-520l-53 49v285q0 19 -11.5 40.5t-23.5 38.5l-197 -193l-68 35q48 45 68 67.5t20 27.5q0 13 -11.5 21.5t-26.5 8.5q-8 0 -18.5 -5.5t-21.5 -11.5h1q-12 -8 -24.5 -14t-22.5 -6q-9 0 -18 3t-16.5 9.5t-12.5 18t-5 29.5q0 27 15.5 55.5t41.5 52.5t59.5 39
t70.5 15q71 0 119 -37t82 -92v230q11 -7 18.5 -18t13.5 -23.5t10 -25t7 -22.5v-1l3 -8h46zM339 475q-45 33 -101 33q-34 0 -66 -18t-56 -63q11 5 26 9.5t29 4.5q23 0 43.5 -14t31.5 -42z" />
    <glyph glyph-name="bn_pha" unicode="&#x9ab;" horiz-adv-x="610" 
d="M644 526h-480q42 -34 80 -77.5t66 -86.5l-128 -85q33 -16 59 -31.5t47.5 -32.5t40 -37.5t36.5 -45.5v359q2 0 5 0.5t5 0.5q2 1 5 1h5q56 0 94 -15t61 -37.5t33 -48t10 -46.5q0 -31 -6.5 -52t-17.5 -34t-24.5 -18.5t-26.5 -5.5q-17 0 -28 6.5t-18.5 16t-10.5 20.5t-3 20
q0 19 14 35.5t38 16.5q8 0 17 -1.5t20 -9.5q2 5 3 10t1 8q0 13 -7 24.5t-17.5 20t-24 13.5t-25.5 5h-49v-411l-32 21q-18 33 -40 62.5t-51.5 52t-68 37t-89.5 18.5l-68 89l164 115q-15 20 -30 34.5t-35.5 25t-50 18.5t-73.5 15l-8 30h-9l-33 48h615z" />
    <glyph glyph-name="bn_ba" unicode="&#x9ac;" horiz-adv-x="454" 
d="M491 526h-86v-519l-31 23q-16 54 -44 95.5t-63 70t-76.5 45.5t-84.5 23l-57 70l303 165v27h-326l-33 48h459zM352 422l-184 -99q50 -22 94.5 -58t89.5 -101v258z" />
    <glyph glyph-name="bn_bha" unicode="&#x9ad;" horiz-adv-x="551" 
d="M508 288q0 -38 -13 -73t-38 -62t-61 -43t-82 -16h-5q-68 2 -114.5 38.5t-76.5 91.5t-45.5 121.5t-19.5 128.5l36 -14q6 -53 16.5 -93t23.5 -69.5t28 -50t30 -33.5q25 -22 50.5 -35t57.5 -16h18q32 2 60 12.5t48.5 27.5t32.5 39.5t12 48.5q0 15 -6.5 33t-19.5 29
q-9 -10 -20 -20.5t-26 -19.5t-34 -16t-45 -10q-21 1 -43 6.5t-41 17.5t-32.5 32t-16.5 52q0 32 20 55t55 23q12 0 24.5 -4.5t23 -13.5t17 -22.5t6.5 -30.5q0 -19 -8 -41q26 8 46.5 34t46.5 64q95 -70 95 -171zM588 526h-561l-33 48h556z" />
    <glyph glyph-name="bn_ma" unicode="&#x9ae;" horiz-adv-x="525" 
d="M558 526h-107v-522l-31 34q0 16 -9 45.5t-25 60.5t-38 57t-48 35q-5 -18 -15.5 -32.5t-23.5 -25t-28 -16.5t-29 -6q-36 0 -62 24t-26 57q0 13 5.5 29t18 29.5t31.5 23t46 9.5q11 0 21 -1t22 -4q4 3 6 11t2 18q0 31 -16.5 51.5t-41.5 33.5t-54 20.5t-54 12.5
q-15 3 -28 5.5t-24 6.5l-16 44h-7l-33 48h527zM399 526h-256q38 -15 71 -34t57 -43t37.5 -54t13.5 -67q0 -16 -3 -37q30 -23 47.5 -45.5t32.5 -46.5v327z" />
    <glyph glyph-name="bn_ya" unicode="&#x9af;" horiz-adv-x="474" 
d="M513 526h-85v-520l-28 26q0 -2 -5 8t-10 21q-11 20 -26.5 43t-45.5 49q-8 9 -25 21.5t-40 24t-48.5 19.5t-49.5 8q-2 0 -3.5 -0.5t-3.5 -0.5h-8l-56 69l150 120q-35 33 -73.5 46.5t-64.5 19.5q-24 6 -36 13l-14 33h-15l-33 48h482zM376 526h-235q26 -14 47 -27t40.5 -29
t38.5 -35.5t41 -47.5l-124 -100q31 -12 56 -24.5t47.5 -28.5t43.5 -37t45 -50v379z" />
    <glyph glyph-name="bn_ra" unicode="&#x9b0;" horiz-adv-x="454" 
d="M493 526h-87v-522l-29 27q-35 111 -105 165t-161 68l-57 70l299 164v28h-327l-33 48h461zM353 426q-48 -26 -91 -50.5t-92 -50.5q63 -30 105.5 -68t77.5 -88v257zM237 100q0 -23 -17 -38.5t-40 -15.5q-25 0 -41 15.5t-16 38.5t16 38.5t41 15.5q23 0 40 -15.5t17 -38.5z
" />
    <glyph glyph-name="bn_la" unicode="&#x9b2;" horiz-adv-x="531" 
d="M567 526h-84v-520l-53 48v279q0 7 -5 17t-12.5 20t-17 17t-19.5 7q-12 0 -24.5 -13t-12.5 -55v-15q0 -5 0.5 -14.5t0.5 -16.5l-32 22q-16 54 -49 78.5t-64 24.5q-46 0 -75 -25.5t-29 -68.5q0 -18 10 -39t38 -27q0 36 18.5 51t44.5 15q31 0 46 -21t15 -45
q0 -29 -22.5 -49.5t-60.5 -20.5q-26 0 -49.5 10.5t-42.5 30.5t-30 49.5t-11 67.5q0 32 11 58.5t29 45.5t42 29.5t51 10.5q28 0 55.5 -12t62.5 -50q5 29 20 43t35 14q27 0 44.5 -19t31.5 -39l1 -2v114h-403l-33 48h538z" />
    <glyph glyph-name="bn_sha" unicode="&#x9b6;" 
d="M564 526h-84v-520l-53 49v326q0 8 -10 27.5t-25.5 39.5t-34.5 37t-38 20q-18 -2 -30 -13t-22 -26v1q-2 -3 -2 -4t-2 -4q95 -66 95 -124q0 -23 -17 -39t-40 -16q-27 0 -50 17t-33 39q-16 -22 -39 -40.5t-47 -18.5q-32 0 -49 14t-17 46q0 18 10 36.5t24 35t30.5 29
t30.5 18.5q-8 29 -29 49.5t-52 20.5h-53l-33 48h95q16 0 31.5 -7.5t29 -19.5t24 -27t16.5 -30q34 47 61 65.5t44 18.5q21 0 40 -9.5t35.5 -24.5t30.5 -33t26 -35v200q11 -8 19.5 -21t14.5 -26.5t10 -26.5t6 -20l1 -4h48z" />
    <glyph glyph-name="bn_ssa" unicode="&#x9b7;" horiz-adv-x="501" 
d="M536 526h-83v-519l-34 24q-15 38 -40 72t-57.5 60t-71.5 42t-84 18l-57 80l148 128q-18 11 -34 18t-33.5 12.5t-37 10t-43.5 9.5l-46 11l-9 34h-28l-34 48h507zM400 289q-14 23 -35.5 46t-47.5 46l-103 -91q32 -10 57 -23.5t47 -31.5t41.5 -41t40.5 -51v146zM400 526
h-207q68 -35 114 -78t87 -88v1l6 -7v172z" />
    <glyph glyph-name="bn_sa" unicode="&#x9b8;" horiz-adv-x="508" 
d="M544 526h-83v-520l-53 48v206q0 8 -5.5 22t-14.5 27.5t-20 23.5t-22 10q-9 0 -20 -7t-23.5 -18t-26 -26t-27.5 -30q-15 -16 -29.5 -31.5t-28 -27.5t-25.5 -19.5t-22 -7.5q-15 0 -31.5 13t-30.5 31.5t-24 39t-12 35.5l40 2q6 -23 17 -31t13 -8q7 0 25 15t36.5 35
t32.5 39.5t14 29.5q0 27 -8.5 43.5t-23 26.5t-33 15.5t-37.5 10.5q-20 4 -38.5 9.5t-36.5 16.5l-7 27h-13l-34 48h514zM408 526h-249q42 -20 69 -51t30 -74l8 6q9 9 19 16.5t23 7.5t27 -9t27.5 -21.5t25.5 -27.5t20 -27v180z" />
    <glyph glyph-name="bn_ha" unicode="&#x9b9;" horiz-adv-x="437" 
d="M215 496h13q40 0 73 -13.5t56 -35.5t35.5 -51t12.5 -59q0 -28 -7.5 -52t-26.5 -45t-51 -38t-80 -30q67 -45 116.5 -88t90.5 -100v-46l-60 51q-32 29 -64.5 57t-65 50t-65 35.5t-64.5 14.5l-78 112q67 -22 116 -22q48 0 83 11.5t57.5 29.5t33.5 40t11 43q0 40 -24.5 61
t-69.5 21h-9q-2 0 -2.5 -0.5t-3.5 -0.5v-8q0 -27 -7.5 -48t-20.5 -35.5t-29 -22t-32 -7.5q-29 0 -48.5 18t-19.5 43q0 21 11.5 39.5t28.5 33t37 24.5t37 14zM433 574l34 -48h-441l-33 48h440z" />
    <glyph glyph-name="bn_nukta" unicode="&#x9bc;" horiz-adv-x="1" 
d="M59 10q0 -23 -17 -38.5t-40 -15.5q-25 0 -41 15.5t-16 38.5t16 38.5t41 15.5q23 0 40 -15.5t17 -38.5z" />
    <glyph glyph-name="bn_avagraha" unicode="&#x9bd;" horiz-adv-x="447" 
d="M224 532l19 -36h3q36 -2 66.5 -16t52.5 -35.5t34.5 -49.5t12.5 -58q0 -62 -38 -101t-126 -64q67 -45 116 -87.5t90 -100.5v-46q-33 31 -70.5 62t-70.5 59l-22 18q-38 28 -79 46t-77 23l-79 113q72 -23 118 -23q48 0 82.5 12t57.5 30t34 40t11 42q0 42 -25 62t-70 20
q-6 0 -7 -1h-7v-8q0 -26 -7.5 -47t-19.5 -35.5t-28 -22.5t-34 -8q-29 0 -48.5 17.5t-19.5 43.5q0 16 7 30.5t18 27t24.5 22.5t27.5 17h-1l11 7l20 6q-8 13 -17 20t-20 15h-137l-33 48h199z" />
    <glyph glyph-name="bn_ikaar" unicode="&#x9be;" horiz-adv-x="219" 
d="M259 526h-112v-520l-52 48v394q0 7 -5.5 19t-13.5 24t-16.5 22t-15.5 13h-44l-38 48h90q19 -14 28.5 -22t14.5 -19v139q20 -12 30.5 -37t15.5 -45l5 -16h75z" />
    <glyph glyph-name="bn_iikaar" unicode="&#x9bf;" horiz-adv-x="238" 
d="M587 628q-32 21 -62.5 39.5t-62 33t-64 22.5t-67.5 8q-63 0 -115.5 -27t-97.5 -84l31 -46h96l37 -48h-123v-520l-52 48v472h-80l-33 48h111l-60 76q29 40 58 67.5t60.5 45t66.5 25t75 7.5t74.5 -8.5t67.5 -25t66.5 -39.5t73.5 -53v-41z" />
    <glyph glyph-name="bn_ukaar" unicode="&#x9c0;" horiz-adv-x="205" 
d="M243 526h-103v-520l-55 48v472h-62l-34 48h94q-17 45 -49.5 75.5t-73 49t-86 26t-87.5 7.5q-38 0 -60.5 -5.5t-34.5 -13t-15.5 -14.5t-3.5 -11q0 -10 15.5 -17t45.5 -7h9q8 1 23 1.5t32 0.5q28 0 55 -5t50.5 -17t42 -31.5t29.5 -48.5h-52q-17 23 -44.5 32.5t-71.5 9.5
h-31q-41 0 -70 2.5t-48.5 11t-28.5 23.5t-9 40q0 16 7.5 35t27 35t52 27t82.5 11q66 0 119.5 -17t93.5 -41t67 -51t42 -48q7 -10 13.5 -25t14.5 -35h66z" />
    <glyph glyph-name="bn_uukaar" unicode="&#x9c1;" horiz-adv-x="0" 
d="M77 -134q9 -14 11.5 -22.5t2.5 -19.5v-17q-32 26 -58.5 45t-46.5 33q-24 16 -43 28q-1 -6 -6.5 -22t-18.5 -33.5t-35.5 -32t-57.5 -15.5h-4q-13 0 -29.5 4t-31.5 14t-25 25.5t-10 39.5q0 15 9 31t26 28.5t41 21t54 8.5q8 0 16 -0.5t14 -1.5q7 -1 13 -2v73
q18 -1 28.5 -7.5t15.5 -14.5q6 -9 8 -20v-49q4 -2 16.5 -8t29.5 -17.5t38 -28t43 -40.5zM-182 -141q14 0 27.5 6.5t25 17t19 23.5t8.5 25q-14 5 -23.5 7t-19.5 2q-18 0 -32 -5.5t-24 -13t-15.5 -15t-6.5 -11.5v-4q0 -14 11.5 -23t24.5 -9h5z" />
    <glyph glyph-name="bn_rikaar" unicode="&#x9c2;" horiz-adv-x="0" 
d="M-101 49q18 -1 28.5 -7t15.5 -14q6 -9 8 -20v-55q-31 0 -51 -7t-31.5 -16t-16 -18.5t-4.5 -14.5q0 -13 11.5 -21.5t26.5 -8.5q8 1 17 3t16 10l38 37h7q7 0 16 -1t23 -6t34 -16.5t49 -32.5q11 -11 15 -21t6 -30q-31 17 -53 27.5t-37 16.5t-24 8.5t-13 2.5
q-13 -17 -33.5 -31t-52.5 -18h-12q-14 0 -29.5 3.5t-30 12.5t-24.5 24t-11 38q0 29 27.5 56.5t84.5 37.5v61z" />
    <glyph glyph-name="bn_rrikaar" unicode="&#x9c3;" horiz-adv-x="0" 
d="M7 -199l-193 64l-51 32l136 116v65l53 -48v-41l-99 -85l121 -54q23 -11 24 -18z" />
    <glyph glyph-name="bn_ekaar" unicode="&#x9c4;" horiz-adv-x="0" 
d="M5 -249l-141 45l-37 25l32 30l-45 14l-51 32l136 116v93l53 -47v-70l-99 -86l43 -18l42 37l30 -31l-28 -26l34 -15h-1q2 0 3.5 -1t2.5 -1l9 -6q1 0 2.5 -1t2.5 -1q5 -5 5 -10l9 -29l-101 34l-10 -8l85 -39q17 -8 18 -13z" />
    <glyph glyph-name="bn_aikaar" unicode="&#x9c7;" horiz-adv-x="304" 
d="M328 574l37 -48h-15q-46 -8 -87.5 -36.5t-79.5 -82.5q-10 -17 -19 -34t-16 -37t-11.5 -44.5t-4.5 -54.5q0 -22 6.5 -48t18.5 -51.5t29.5 -46.5t40.5 -33q-4 8 -5 16t-1 16q0 23 11.5 39t33.5 17q15 0 27.5 -5t21.5 -14t14.5 -21t5.5 -24q0 -11 -4.5 -22.5t-14 -21.5
t-25 -16t-37.5 -6q-30 0 -60.5 14.5t-55 44t-41 74.5t-17.5 107q-2 92 30 159t83 111h-167l-34 48h336z" />
    <glyph glyph-name="bn_okaar" unicode="&#x9c8;" horiz-adv-x="283" 
d="M369 526h-63q-47 -8 -85 -36.5t-75 -82.5q-10 -17 -19 -34t-16 -37t-11.5 -44.5t-4.5 -54.5q0 -22 6.5 -48t18.5 -51.5t29.5 -46.5t39.5 -33q-5 14 -5 32q0 23 11.5 39t33.5 17q15 0 27.5 -5t21.5 -14t14.5 -21t5.5 -24q0 -11 -4.5 -22.5t-14.5 -21.5t-25 -16t-37 -6
q-30 0 -60.5 14.5t-55 44t-41 74.5t-17.5 107q-2 92 30 159t83 111h-130l-34 48h276q2 4 4 9t2 10q0 11 -15 20t-33 9q-11 0 -21 -1t-21 -2q-27 -3 -66 -3q-42 0 -69.5 11.5t-43.5 29t-22.5 37.5t-6.5 37q0 11 2.5 22.5t5.5 23.5l36 -19q-3 -8 -4 -16t-1 -13q0 -16 8 -25.5
t20 -14.5t27.5 -6.5t30.5 -1.5l87 4q19 0 42 -4t43 -14t33.5 -27t13.5 -42v-8t-1 -7q0 -2 -0.5 -3t-0.5 -2l-2 -4h16z" />
    <glyph glyph-name="bn_aukaar" unicode="&#x9cb;" horiz-adv-x="771" 
d="M366 526h-56q-45 -8 -85 -37t-77 -82l-18 -34t-16 -37t-11.5 -44.5t-4.5 -54.5q0 -22 6.5 -48t18.5 -51.5t29.5 -46.5t39.5 -33q-4 8 -5 16t-1 16q0 23 12 39t33 17q15 0 27.5 -5t22 -14t15 -21t5.5 -24q0 -11 -4.5 -22.5t-14.5 -21.5t-25 -16t-37 -6q-30 0 -60.5 14.5
t-55.5 44t-41 74.5t-17 107q-2 92 30 159t83 111h-131l-33 48h334zM795 526h-97v-520l-53 48v394q0 7 -5 19t-12.5 24t-16.5 22t-16 13h-16l-38 48h61l12 -9q11 -9 18.5 -16t12.5 -18v140q22 -11 31 -32.5t14 -41.5q0 -6 2.5 -12t4.5 -11h60z" />
    <glyph glyph-name="bn_halanth" unicode="&#x9cc;" horiz-adv-x="757" 
d="M387 526h-72q-46 -8 -87.5 -36.5t-79.5 -82.5q-9 -17 -18.5 -34t-16.5 -37t-11.5 -44.5t-4.5 -54.5q0 -22 6.5 -48t18.5 -51.5t29.5 -46.5t40.5 -33q-4 8 -5 16t-1 16q0 23 12 39t33 17q15 0 27.5 -5t21.5 -14t14.5 -21t5.5 -24q0 -11 -4.5 -22.5t-14 -21.5t-25 -16
t-37.5 -6q-30 0 -60 14.5t-55 44t-41 74.5t-17 107q-2 92 29.5 159t83.5 111h-131l-33 48h282q7 9 7 19q0 11 -15.5 20t-33.5 9q-11 0 -22 -1t-24 -2q-14 -2 -31.5 -2.5t-36.5 -0.5q-42 0 -70 11.5t-44 29t-22.5 37.5t-6.5 37q0 11 2.5 22.5t5.5 23.5l36 -19q-3 -8 -4 -16
t-1 -13q0 -16 8 -25.5t20 -14.5t27.5 -6.5t30.5 -1.5l94 4q21 -2 44.5 -5.5t43.5 -13.5t33 -29.5t13 -52.5l-3 -10h21zM782 526h-84v-520l-53 48v394q0 7 -5 19t-12.5 24t-16.5 22t-16 13h-16l-39 48h62l12 -9q11 -9 18.5 -16t12.5 -18v140q22 -11 31 -32.5t14 -41.5
q0 -6 2.5 -12t4.5 -11h47z" />
    <glyph glyph-name="bn_aumark" unicode="&#x9cd;" horiz-adv-x="0" 
d="M56 -140l-30 -30l-182 111l55 43z" />
    <glyph glyph-name="bn_rra" unicode="&#x9d7;" horiz-adv-x="191" 
d="M140 606q1 -5 1.5 -8t0.5 -7q0 -5 -0.5 -9t-3.5 -8h55l38 -48h-99v-520l-52 48v472h-57l-33 48h95q12 3 12 10q0 13 -9 20.5t-23.5 11.5t-33 5t-36.5 1q-14 0 -34.5 -1t-42.5 -3q-23 -2 -43 -3t-34 -1q-24 0 -49 7.5t-45 22t-32.5 36t-12.5 48.5q0 11 2.5 26.5t9.5 35.5
l39 -21q-9 -29 -9 -38q0 -28 24 -41.5t67 -13.5q36 0 77 3q20 1 39 2t39 1q43 0 70.5 -6.5t44 -17t24 -23.5t11.5 -26v-3z" />
    <glyph glyph-name="bn_rha" unicode="&#x9dc;" horiz-adv-x="544" 
d="M545 574l31 -48h-288v-163q0 -6 5 -9.5t7 -3.5q3 0 16.5 6t31.5 18.5t36.5 31t32.5 43.5q44 -31 60.5 -75t16.5 -86q0 -51 -17.5 -89t-44 -63t-58.5 -37t-60 -12q-60 4 -103 32t-73.5 79t-50 124.5t-32.5 167.5l35 -22q12 -44 27.5 -96.5t41 -98t63 -76t94.5 -30.5
q22 0 46.5 8t45 23.5t33.5 38t13 51.5q0 17 -6 32t-18 26q-13 -14 -29.5 -26t-33.5 -20t-33 -12.5t-28 -4.5q-20 0 -33 10.5t-21.5 24t-12 27t-3.5 18.5v163h-209l-33 48h551zM355 -16q0 -23 -17 -38.5t-40 -15.5q-25 0 -41 15.5t-16 38.5t16 38.5t41 15.5q23 0 40 -15.5
t17 -38.5z" />
    <glyph glyph-name="bn_yya" unicode="&#x9dd;" horiz-adv-x="448" 
d="M447 574l38 -48h-353v-335q0 -18 16.5 -28.5t30.5 -10.5q7 0 29.5 10t47 29t45 46t23.5 62q-5 -1 -11 -1.5t-13 -0.5q-29 0 -42.5 19t-13.5 40q0 26 18 47t53 21t60 -30.5t25 -76.5q0 -35 -14.5 -65t-37 -55t-49.5 -44t-52.5 -32t-46 -20t-29.5 -7q-17 0 -33.5 9
t-29.5 23t-21.5 31t-8.5 34v335h-52l-33 48h454zM226 -12q0 -23 -17 -38.5t-40 -15.5q-25 0 -41 15.5t-16 38.5t16 38.5t41 15.5q23 0 40 -15.5t17 -38.5z" />
    <glyph glyph-name="bn_rri" unicode="&#x9df;" horiz-adv-x="477" 
d="M513 526h-85v-520l-28 26q0 -2 -5 8t-10 21q-11 20 -26.5 43t-45.5 49q-8 9 -25 21.5t-40 24t-48.5 19.5t-49.5 8q-2 0 -3.5 -0.5t-3.5 -0.5h-8l-56 69l150 120q-35 33 -73.5 46.5t-64.5 19.5q-24 6 -36 13l-14 33h-15l-33 48h482zM376 526h-235q26 -14 47 -27t40.5 -29
t38.5 -35.5t41 -47.5l-124 -100q31 -12 56 -24.5t47.5 -28.5t43.5 -37t45 -50v379zM262 100q0 -23 -17 -38.5t-40 -15.5q-25 0 -41 15.5t-16 38.5t16 38.5t41 15.5q23 0 40 -15.5t17 -38.5z" />
    <glyph glyph-name="bn_lli" unicode="&#x9e0;" horiz-adv-x="589" 
d="M455 -199l-193 64l-51 32l136 116v70q-9 20 -20 34q-36 57 -88 89t-106 38l-55 74l241 147q-7 8 -19 15.5t-27 13.5q-12 -12 -28.5 -23.5t-35 -21t-37 -15.5t-33.5 -6q-31 0 -51.5 8.5t-33 21t-18 28t-5.5 29.5q0 18 12.5 37t42.5 22q19 0 37 -14t18 -40q0 -6 -1 -13.5
t-6 -16.5q23 7 47.5 29t44.5 51q26 -5 61 -27t60 -49v141l53 -64v-246q24 -21 39 -40.5t29 -39.5l10 -14v401l53 -62v-483l-36 25q-11 46 -34 82t-61 52v-257l-99 -85l121 -54q23 -11 24 -18zM347 404q-43 -26 -81 -49.5t-81 -49.5q29 -17 52 -32.5t42 -32t35.5 -36.5
t32.5 -45v245z" />
    <glyph glyph-name="bn_likaar" unicode="&#x9e1;" horiz-adv-x="571" 
d="M530 -72q0 -26 -13.5 -44.5t-35.5 -30t-48.5 -16.5t-53.5 -5q-93 0 -93 36q0 14 14 22.5t31 14.5q13 5 25 10.5t12 13.5q0 11 -13 16t-27 5q-4 0 -4 2q0 -1 0.5 -2.5t2.5 -5.5v-7q0 -20 -15 -28t-32 -8q-23 0 -37 10.5t-14 30.5q0 29 23.5 43.5t54.5 14.5q16 0 33.5 -5.5
t31 -15t22.5 -22.5t9 -29q0 -13 -5 -22.5t-12 -16t-15 -11t-14 -7.5q-9 -4 -9 -3q0 -6 34 -6q16 0 31.5 4t28 12.5t20 20.5t7.5 27q0 23 -29 48t-83 51h-3q-1 0 -1.5 -0.5t-1.5 -0.5q-11 -2 -24 -5t-28 -3l-47 1l-39 3q-42 3 -70.5 17.5t-28.5 39.5q0 20 19.5 32t41.5 23
l6 1l-2 -1q23 11 37.5 19.5t23 17.5t11.5 20.5t3 27.5q0 24 -15.5 44.5t-50.5 20.5q-17 0 -32.5 -5.5t-29.5 -15.5q12 -5 20 -17.5t8 -26.5q0 -15 -16.5 -33.5t-47.5 -18.5q-28 0 -41 16.5t-13 45.5q0 19 10.5 37t29 32t43 22t53.5 8q30 0 55 -10t42.5 -27t27 -40t9.5 -49
q0 -39 -18.5 -61.5t-64.5 -44.5q-4 0 -10.5 -4.5t-6.5 -8.5q0 -9 8 -14.5t19.5 -8.5t24 -4t22.5 -1q33 0 60 12t45.5 32t28.5 46t10 55q0 59 -41 101t-112 77l-24 12v-1q-38 17 -69 33t-55.5 36t-41.5 46.5t-27 64.5l29 7q8 -25 23 -44.5t39 -37t58.5 -33t82.5 -33.5
q46 -17 87 -40t72 -52t49 -63.5t18 -73.5q0 -68 -44 -112q-16 -16 -31 -26.5t-37 -19.5l2 -1l8 -3h-1q19 -5 40.5 -14t39.5 -22.5t29.5 -31t11.5 -39.5z" />
    <glyph glyph-name="bn_llikaar" unicode="&#x9e2;" horiz-adv-x="137" 
d="M74 -72q0 -26 -13.5 -44.5t-35 -30t-48 -16.5t-53.5 -5q-94 0 -94 36q0 14 14.5 22.5t31.5 14.5q13 5 25 10.5t12 13.5q0 11 -13 16t-27 5q-3 0 -5 2q0 -1 3 -8q0 -1 0.5 -1.5t0.5 -5.5q0 -20 -15.5 -28t-32.5 -8q-22 0 -36 10.5t-14 30.5q0 29 23.5 43.5t54.5 14.5
q16 0 33 -5.5t31 -15t22.5 -22.5t8.5 -29q0 -13 -5 -22.5t-12 -16t-15 -11t-14 -7.5q-8 -4 -8 -3q0 -6 34 -6q16 0 31.5 4t28 12.5t20 20.5t7.5 27q0 47 -118 102l16 22l30 -11q19 -6 42 -14.5t43 -21.5t33.5 -31.5t13.5 -43.5z" />
    <glyph glyph-name="bn_zero" unicode="&#x9e3;" horiz-adv-x="310" 
d="M270 9q0 -26 -13 -44.5t-34.5 -29.5t-48.5 -16t-55 -5q-27 0 -45 3q-3 -19 -13 -34q-20 -26 -57.5 -38.5t-78.5 -12.5q-94 0 -94 36q0 14 14.5 22.5t31.5 14.5q13 5 25 10.5t12 13.5q0 11 -13 16t-27 5q-3 0 -5 2q0 -1 3 -8q0 -1 0.5 -1.5t0.5 -5.5q0 -20 -15 -28t-32 -8
q-23 0 -37 10.5t-14 30.5q0 29 23.5 43.5t54.5 14.5q16 0 33.5 -5.5t31 -15t22.5 -22.5t9 -29q0 -13 -5 -22.5t-12 -16t-15 -11t-14 -7.5q-9 -4 -9 -3q0 -6 34 -6q16 0 31.5 4t28 12.5t20 20.5t7.5 27q0 47 -118 102l17 22q8 -4 18.5 -7.5t23.5 -7.5h1q4 -1 12 -5
q4 25 27 38t52 13q15 0 32 -5t31.5 -14.5t23.5 -23t9 -29.5q0 -12 -5 -21t-12 -15.5t-15.5 -11.5t-14.5 -8v1q-2 -2 -3 -2.5l-3 -1.5t-3 -1q0 -6 35 -6q16 0 31.5 4t27.5 12.5t19.5 20.5t7.5 27q0 46 -117 102l17 22q6 -3 13 -5.5t14 -4.5q19 -6 42 -14.5t43.5 -21.5
t34.5 -31.5t14 -44.5zM56 -20q6 4 16 5q1 1 2 1q11 5 23 10.5t12 13.5q0 11 -13 16t-26 5q-5 0 -5 2q0 -4 3 -8q0 -1 0.5 -1.5t0.5 -5.5q0 -19 -18 -28q-2 -2 -1 -1.5t-2 -0.5l7 -7z" />
    <glyph glyph-name="bn_one" unicode="&#x9e6;" horiz-adv-x="469" 
d="M427 309q0 -45 -18 -85t-49 -70t-71 -47.5t-84 -17.5q-39 0 -70.5 15t-53.5 38.5t-34 51.5t-12 54q0 40 15.5 80t44.5 72.5t70.5 52.5t94.5 20q34 0 64 -11.5t53 -33t36.5 -52t13.5 -67.5zM364 334q0 42 -22.5 63.5t-61.5 21.5q-37 0 -69.5 -19t-57 -47.5t-38.5 -61.5
t-14 -61q0 -35 24.5 -59t63.5 -24q27 0 57.5 16t57 42t43.5 59.5t17 69.5z" />
    <glyph glyph-name="bn_two" unicode="&#x9e7;" horiz-adv-x="407" 
d="M374 195q0 -41 -15.5 -73.5t-42 -55t-62 -34.5t-74.5 -12q-35 0 -63.5 9t-48 23t-30 32.5t-10.5 36.5q0 23 20.5 40.5t57.5 17.5q21 0 40 -8t33.5 -21t23.5 -30t11 -36h1q5 -1 9.5 -1h10.5q23 0 40 9.5t28.5 24t17 31.5t5.5 33q0 26 -14 50.5t-36.5 47t-50.5 43t-56 39.5
q-26 18 -50.5 36.5t-44.5 38t-32 39.5t-12 42q0 29 19 43t40 14q11 0 21 -5t18 -11.5t14 -14t9 -13.5q-4 -8 -4 -16q0 -15 9 -30.5t23 -30.5t32.5 -29.5t36.5 -29.5q6 -5 7 -5t4.5 -2t12 -9.5t29.5 -25.5q33 -34 53 -74.5t20 -82.5z" />
    <glyph glyph-name="bn_three" unicode="&#x9e8;" horiz-adv-x="459" 
d="M415 288q0 -57 -35 -93.5t-109 -58.5q53 -38 94 -74.5t82 -81.5v-49q-36 37 -85.5 74t-103 69.5t-105.5 58t-93 40.5l-36 113q134 -88 219 -88q19 0 39.5 4.5t37.5 14t28 24t11 33.5q0 21 -11.5 37.5t-31 30.5t-44 26t-49.5 24t-48.5 23.5t-42 25t-30 29.5t-11.5 37
q0 20 15 35t41 15q23 0 41 -12t33 -29q-3 -2 -3 -9q0 -13 7.5 -24t20 -21.5t28 -19.5t30.5 -17q17 -10 34.5 -20.5t28.5 -18.5q20 -19 34 -45t14 -53z" />
    <glyph glyph-name="bn_four" unicode="&#x9e9;" horiz-adv-x="550" 
d="M503 264q0 -36 -9 -77.5t-30.5 -77.5t-57.5 -60t-90 -24q-22 0 -48.5 6.5t-54.5 23.5t-56.5 45.5t-53.5 72.5t-44.5 105t-30.5 143l41 -18q10 -72 33 -127t54 -93t68 -57.5t77 -19.5q38 0 67.5 15.5t49.5 40t30.5 53.5t10.5 56q0 19 -6 40.5t-18.5 41.5t-32.5 36t-48 25
q8 -14 10.5 -24.5t2.5 -21.5q0 -18 -9.5 -33t-24 -25.5t-30.5 -16.5t-28 -6q-15 0 -31.5 6.5t-30.5 19t-23.5 30t-9.5 39.5t11 42t29.5 35t43.5 24t52 9q40 0 74.5 -17.5t59.5 -48t39 -72.5t14 -90z" />
    <glyph glyph-name="bn_five" unicode="&#x9ea;" horiz-adv-x="424" 
d="M382 178q0 -32 -13.5 -60.5t-37.5 -49.5t-57.5 -33.5t-72.5 -12.5q-38 0 -70 10.5t-55 29t-35.5 44t-12.5 55.5q0 47 29 81t82 54q-40 17 -67.5 50.5t-29.5 83.5q0 30 14.5 56.5t39.5 46t57 30.5t67 11q29 0 56 -9.5t47.5 -26.5t33 -41t12.5 -52q0 -23 -7.5 -41.5
t-20 -33.5t-28.5 -27t-34 -22q42 -22 72.5 -56t30.5 -87zM317 161q0 17 -12.5 36t-31.5 35t-40 26.5t-39 10.5q-11 0 -27.5 -6.5t-33 -19.5t-28 -32t-11.5 -44q0 -21 9.5 -39t25.5 -30.5t36 -20t41 -7.5q24 0 44 7.5t35 20t23.5 29t8.5 34.5zM298 439q0 19 -8 35t-21 26.5
t-30 16.5t-35 6q-50 0 -72.5 -23t-22.5 -51q0 -33 28.5 -58.5t93.5 -48.5q24 13 45.5 36t21.5 55v6z" />
    <glyph glyph-name="bn_six" unicode="&#x9eb;" horiz-adv-x="480" 
d="M452 410q-34 -31 -63.5 -61.5t-51 -60t-34 -56t-12.5 -50.5q0 -42 29.5 -67t80.5 -34q-32 -32 -72.5 -55.5t-95.5 -23.5q-56 0 -95 25.5t-63.5 61.5t-35.5 76t-11 70q0 54 26 116t94 124q48 42 86.5 63t66.5 21q17 0 30.5 -5t30.5 -13q-27 -14 -41.5 -25t-14.5 -22
q0 -23 12.5 -36.5t30.5 -21t38.5 -10.5t36.5 -4q10 -1 17.5 -1t9.5 -2zM339 391q-4 0 -10 2l8 6zM217 208q0 18 4.5 37t17 41t34 48t56.5 59q-38 8 -60 27.5t-26 44.5q-30 -25 -58.5 -53t-51 -59t-36 -65t-13.5 -70q0 -38 14.5 -66.5t36 -48t47.5 -29t49 -9.5q20 0 34 4
t27 12q-75 42 -75 127z" />
    <glyph glyph-name="bn_seven" unicode="&#x9ec;" horiz-adv-x="533" 
d="M506 203q0 -42 -15 -76t-40.5 -58t-60 -36.5t-73.5 -12.5q-50 0 -90 19.5t-71.5 52t-54.5 75.5t-38.5 89.5t-23.5 94t-10 89.5l37 -15q10 -76 28.5 -130.5t42 -91.5t49.5 -60t51 -35t47.5 -16t37.5 -4q28 0 53.5 8.5t44.5 24.5t30 38t11 48q0 17 -8.5 33.5t-20.5 30.5
q-31 -29 -64 -47.5t-68 -18.5q-20 0 -33.5 7.5t-22.5 18.5t-13.5 25t-5.5 28v142q0 9 -1.5 19.5t-5 20.5t-9 16.5t-12.5 6.5q-1 0 -1.5 -0.5l-5.5 -5.5q-6 22 -6 28q0 16 8.5 30t29.5 14q7 0 18.5 -4.5t22 -15.5t18.5 -29t8 -44v-10q-4 -60 -6.5 -94t-3.5 -51.5t-1 -23v-8.5
q0 -15 4 -15q12 0 29 7.5t36 22t38.5 35.5t36.5 49q42 -32 63 -80.5t21 -90.5z" />
    <glyph glyph-name="bn_eight" unicode="&#x9ed;" horiz-adv-x="436" 
d="M398 108q2 -5 3 -13t1 -19q0 -23 -12.5 -40t-31.5 -17q-15 0 -24.5 11.5t-15.5 27t-8.5 32t-2.5 27.5l6 180q-14 11 -30 12.5t-39 1.5h-26.5t-24.5 -1q-9 -1 -20 -1h-19q-26 0 -47 4.5t-41 24.5q-12 14 -25 35t-13 39q0 23 15 52t40.5 54.5t58.5 42.5t70 17
q25 0 52.5 -12.5t50.5 -36t37.5 -57.5t14.5 -78v-258q0 -12 4.5 -19t17.5 -7q1 0 1.5 0.5t2.5 0.5zM314 393q0 27 -9 52.5t-22.5 44.5t-28.5 30.5t-28 11.5q-21 0 -45.5 -17.5t-45.5 -41t-34.5 -47.5t-13.5 -38q0 -13 14.5 -19t27.5 -6h123q21 0 36 -1.5t26 -9.5v41z" />
    <glyph glyph-name="bn_nine" unicode="&#x9ee;" horiz-adv-x="523" 
d="M487 367q0 -31 -9 -52t-23 -34t-31 -19t-33 -6q-17 0 -28.5 3.5t-21.5 8.5l-30 12h-14q2 -2 1.5 -1.5t1.5 -0.5q16 -12 32.5 -29.5t16.5 -43.5q0 -45 -24 -79.5t-56 -58t-63.5 -35t-47.5 -11.5q-10 0 -24.5 4t-28 13t-23.5 23t-10 35v319q0 7 -3 15t-8 15.5t-11.5 12.5
t-14.5 5h-9q0 2 -0.5 5t-0.5 5q-2 11 -3 21.5t-1 8.5q0 23 10 36.5t30 13.5q18 0 30 -9.5t19.5 -22.5t10.5 -26.5t3 -22.5v-129q8 -8 22.5 -14t28.5 -6q6 0 15.5 2.5t21.5 5.5q14 4 30 7.5t30 3.5q25 0 40 -4.5t29 -9.5q11 -5 23 -8t26 -3q32 0 45 18.5t13 51.5zM286 212
q0 19 -5.5 30.5t-14 17.5t-19 8t-20.5 2h-17q-3 0 -5.5 -0.5t-4.5 -0.5q-20 0 -40.5 7.5t-35.5 18.5v-189q0 -13 11 -23.5t20 -10.5q12 0 33.5 13.5t43.5 34t38 45t16 47.5z" />
    <glyph glyph-name="asa_ra" unicode="&#x9ef;" horiz-adv-x="473" 
d="M438 219q0 -41 -17.5 -77t-46 -62.5t-65 -42t-74.5 -15.5q10 29 14 51.5t4 41.5q0 31 -8.5 54t-21 39t-28 24t-30.5 8q-23 0 -44 -14.5t-21 -37.5q0 -3 1 -8.5t3 -10.5q1 0 5 2q3 1 6.5 1h6.5q17 0 29 -5.5t19 -13.5t10 -17.5t3 -17.5q0 -23 -18 -43.5t-46 -20.5
q-16 0 -32.5 8.5t-29.5 22.5t-21 33.5t-8 42.5q0 22 9.5 43.5t27.5 39t43 28t57 10.5q27 0 55 -12t51 -33.5t37.5 -52.5t15.5 -68q32 9 49 33.5t17 59.5q0 32 -16.5 57t-43 45t-60.5 37t-69 33q-33 15 -64 30.5t-54.5 33t-38 38.5t-14.5 47q0 23 15.5 35.5t29.5 12.5
q23 0 40.5 -15.5t19.5 -33.5q2 -32 33 -51.5t76 -39.5q14 -5 31 -12.5t46 -24.5q24 -18 45.5 -36t37 -39.5t25 -47.5t9.5 -59z" />
    <glyph glyph-name="asa_ba" unicode="&#x9f0;" horiz-adv-x="443" 
d="M481 526h-86v-519l-31 23q-16 54 -44 95.5t-63 70t-76 45.5t-84 23l-58 70l304 165v27h-312l-41 48h452zM343 239l-3 4l-7 10v-1l-22.5 25t-28.5 30t-30.5 28.5t-29.5 21.5q-18 -9 -32.5 -16t-32.5 -18q49 -22 95 -58.5t91 -100.5v75zM268 383l34 -32q7 -7 18 -17.5
t23 -24.5v113z" />
    <glyph glyph-name="bn_rupeemark" unicode="&#x9f1;" horiz-adv-x="442" 
d="M256 29q-7 17 -25 44.5t-37 44.5q-10 8 -24 18t-31 18q-17 10 -35 16t-22 7l-1 42h10q16 0 35 -5.5t37.5 -13.5t34.5 -17.5t25 -18.5q14 -13 26 -28t23 -30t19 -28t10 -18zM481 526h-86v-519l-31 23q-16 54 -44 95.5t-63 70t-76 45.5t-84 23l-58 70l304 165v27h-317
l-33 48h449zM343 422l-185 -99q50 -22 94.5 -58t90.5 -101v258z" />
    <glyph glyph-name="bn_rupeesign" unicode="&#x9f2;" horiz-adv-x="421" 
d="M336 -37q-47 99 -121.5 170t-171.5 108l93 32q79 -54 143 -134t101 -176h-44z" />
    <glyph glyph-name="bn_currency1" unicode="&#x9f3;" horiz-adv-x="451" 
d="M322 96q17 13 22 27.5t5 25.5q0 5 -2 15l-1 -1h-4q-20 0 -34 7t-22.5 17t-12.5 20t-5 15q0 1 -0.5 2.5t-0.5 2.5v3q0 19 7 32t16.5 20.5t20 11t16.5 3.5h10q26 0 42 -10.5t25 -25.5t12 -32.5t3 -31.5q0 -42 -12 -73.5t-33.5 -51.5t-50 -30t-61.5 -10q-24 0 -48 8
t-43.5 24.5t-31.5 41t-12 56.5v139h-61l-42 64h103v102q0 2 -1 7.5t-4.5 11t-11.5 10t-22 4.5q-11 0 -12 -1q-5 0 -9.5 10.5t-4.5 21.5q0 12 6.5 19.5t15.5 12t19.5 6t19.5 1.5q10 0 22 -4t22.5 -14t17 -26t6.5 -40v-121h47l46 -64h-93v-144q0 -4 2 -15.5t11 -24t27 -22.5
t50 -10q23 0 41 11z" />
    <glyph glyph-name="bn_currency2" unicode="&#x9f4;" horiz-adv-x="412" 
d="M380 272q-38 -95 -101 -175.5t-143 -134.5l-93 32q47 16 90.5 44t81 64.5t68.5 79.5t53 90h44z" />
    <glyph glyph-name="bn_currency3" unicode="&#x9f5;" horiz-adv-x="688" 
d="M643 560q-16 -69 -54 -149.5t-88.5 -156.5t-108 -139t-112.5 -96l-132 33q164 71 164 137q0 18 -8.5 34.5t-23 29t-33 20t-38.5 7.5q-32 0 -33 -9q40 -38 40 -68q0 -15 -7 -29.5t-19 -25.5t-28.5 -17.5t-35.5 -6.5q-41 0 -69 26.5t-28 68.5q0 26 13 47.5t34.5 37t49.5 24
t59 8.5q30 0 59 -11.5t52.5 -31.5t39.5 -47.5t20 -60.5q41 36 82 84t75.5 99t59.5 101t34 91h36z" />
    <glyph glyph-name="bn_currency4" unicode="&#x9f6;" horiz-adv-x="622" 
d="M567 537q-5 -60 -22.5 -127t-44.5 -130t-62.5 -116t-77.5 -85q-84 -63 -185 -63q-67 0 -106.5 32t-39.5 90q0 73 74 73h9q11 -1 28.5 -2t27.5 -1q51 0 80.5 18t29.5 52q0 25 -14 40t-32 15q-9 0 -9 -6q0 -2 3 -5q3 -5 7 -12.5t4 -16.5q0 -26 -21 -42.5t-50 -16.5
q-34 0 -56.5 19.5t-22.5 48.5q0 43 29.5 67t73.5 24q27 0 50 -9t40 -25t27 -39t10 -50q0 -26 -11.5 -49.5t-32 -41.5t-49.5 -28.5t-64 -10.5h-36q-15 0 -22.5 1t-11.5 2q-1 0 -1 0.5t-1 0.5q-9 0 -9 -16q3 -22 19.5 -31t50.5 -9q79 0 143 35t112.5 95.5t81 142.5t48.5 176
h33z" />
    <glyph glyph-name="bn_currencyless" unicode="&#x9f7;" horiz-adv-x="225" 
d="M150 568v-551h-29l-49 64v552h26z" />
    <glyph glyph-name="bn_currency16" unicode="&#x9f8;" horiz-adv-x="585" 
d="M541 69q0 -54 -55 -54q-62 0 -62 80v279q0 15 -8 15q-3 0 -12 -4t-24.5 -18t-38 -40.5t-52.5 -72.5q-28 -37 -48.5 -62.5t-37.5 -41.5t-33 -23.5t-34 -7.5q-57 0 -57 76v276q0 28 -44 28q9 58 65 58q55 0 55 -70v-287q0 -13 13 -13q18 0 88 91q51 66 81.5 103t45.5 49
q31 24 63 24q57 0 57 -71v-282q0 -15 6 -21t27 -6z" />
    <glyph glyph-name="bn_isshar" unicode="&#x9f9;" horiz-adv-x="454" 
d="M411 328q0 -35 -14.5 -64t-40 -50t-60.5 -32.5t-76 -11.5t-74 10.5t-56 30t-36 46.5t-13 60t14 61.5t39.5 50.5t60.5 34.5t76 12.5q81 0 130.5 -39t49.5 -109zM339 353q0 37 -24.5 58.5t-69.5 21.5q-27 0 -51 -11.5t-42 -30.5t-28.5 -44.5t-10.5 -53.5q0 -35 24.5 -57
t66.5 -22q30 0 54.5 12t42.5 32t28 44.5t10 50.5z" />
    <glyph glyph-name="ZWNJ.001" unicode="&#x9fa;" horiz-adv-x="638" 
d="M597 665q0 -91 -21.5 -172.5t-66.5 -153.5q-90 -146 -241 -146q-47 0 -85.5 18.5t-65.5 53t-41.5 83t-14.5 108.5v19h42q3 -187 167 -187q53 0 99.5 21t84 66.5t64.5 117t42 172.5h37zM383 420q0 -15 -7.5 -28.5t-20.5 -23.5t-29 -16t-34 -6q-38 0 -64 21.5t-26 52.5
q0 34 26 55t64 21q18 0 34 -5.5t29 -15.5t20.5 -24t7.5 -31z" />
    <glyph glyph-name="bn_aikaar_init" horiz-adv-x="269" 
d="M320 527q-51 -8 -93.5 -37t-80.5 -83q-10 -17 -19 -34t-16 -37t-11.5 -44.5t-4.5 -54.5q0 -22 6.5 -48t18.5 -51.5t29.5 -46.5t40.5 -33q-4 8 -5 16t-1 16q0 23 11.5 39t33.5 17q15 0 27.5 -5t21.5 -14t14.5 -21t5.5 -24q0 -11 -4.5 -22.5t-14 -21.5t-25 -16t-37.5 -6
q-30 0 -60.5 14.5t-55 44t-41 74.5t-17.5 107q-1 49 9.5 92.5t29 79.5t43.5 65t54 51q12 7 22 13t22 9.5t27.5 5.5t37.5 2z" />
    <glyph glyph-name="bn_oikaar_init" horiz-adv-x="282" 
d="M372 526h-60q-45 -8 -87 -36.5t-79 -82.5q-10 -17 -19 -34t-16 -37t-11.5 -44.5t-4.5 -54.5q0 -22 6.5 -48t18.5 -51.5t29.5 -46.5t39.5 -33q-5 14 -5 32q0 23 11.5 39t33.5 17q15 0 27.5 -5t21.5 -14t14.5 -21t5.5 -24q0 -11 -4.5 -22.5t-14.5 -21.5t-25 -16t-37 -6
q-30 0 -60.5 14.5t-55 44t-41 74.5t-17.5 107q-1 49 9.5 92.5t29 79.5t43.5 65t54 51q19 13 36.5 20t46.5 9q4 5 7.5 11.5t3.5 11.5q0 11 -14 18.5t-31 7.5q-29 0 -56 -3q-14 -1 -27 -2t-27 -1q-24 0 -50.5 7t-49 22t-37 37.5t-14.5 53.5q0 8 2 19t6 26l41 -23
q-7 -17 -7 -32q0 -14 6 -23.5t15 -15t19.5 -7.5t19.5 -2q31 0 63 3q14 2 28.5 3t28.5 1q27 0 50 -7t40 -19.5t26.5 -30.5t9.5 -39q0 -2 0.5 -6t-1.5 -9h20z" />
    <glyph glyph-name="ch374" horiz-adv-x="603" 
d="M638 526h-75v-519l-36 28q0 72 -21 121t-60 78q-22 -51 -59.5 -74.5t-83.5 -23.5q-59 0 -103.5 33t-77 84.5t-54 114t-34.5 122.5l33 -15q21 -72 48 -122.5t57 -82t61.5 -45.5t60.5 -14q30 0 52.5 10t37.5 25.5t22.5 36t7.5 41.5q0 36 -22.5 62.5t-55.5 26.5q-3 0 -4 -1
q7 -14 7 -32q0 -26 -17.5 -45t-48.5 -19q-13 0 -26.5 6t-24 16t-17 23.5t-6.5 29.5q0 21 9 38.5t23.5 30t33.5 19.5t40 7q16 0 40 -7.5t47 -27t43 -52.5t29 -83q1 -12 5.5 -22.5t11.5 -21.5l10 -17l14 -26l5 -10v307h-483l-33 48h611zM184 50q0 -23 -17 -38.5t-40 -15.5
q-25 0 -41 15.5t-16 38.5t16 38.5t41 15.5q23 0 40 -15.5t17 -38.5z" />
    <glyph glyph-name="dottedcircle.001" horiz-adv-x="774" 
d="M813 526h-84v-520l-53 48v394q0 7 -5 19t-12.5 24t-16 22t-15.5 13h-63v-519l-36 28q0 136 -81 199q-21 -51 -57.5 -74.5t-85.5 -23.5q-59 0 -103.5 33t-77 84.5t-54 114t-34.5 122.5l33 -15q21 -71 47.5 -121t56.5 -82t61.5 -46.5t61.5 -14.5t52.5 9.5t37.5 25t22.5 36
t7.5 42.5q0 17 -5.5 33t-16 28.5t-24.5 20t-31 7.5q-6 0 -5.5 0.5t-0.5 -0.5q8 -15 8 -33q0 -26 -17 -45t-49 -19q-29 0 -51.5 21.5t-22.5 53.5q0 19 8 36.5t22.5 30.5t34 20.5t42.5 7.5q20 0 44 -9.5t46.5 -29.5t41 -53t26.5 -79q2 -13 8.5 -26.5t14.5 -26.5q6 -9 12 -19.5
t8 -16.5l3 -8l1 -1l-1 1v308h-483l-33 48h639q19 -13 28 -21.5t14 -20.5v139q23 -11 32.5 -35.5t14.5 -45.5l5 -16h47zM189 51q0 -23 -17 -38.5t-40 -15.5q-25 0 -41 15.5t-16 38.5t16 38.5t41 15.5q23 0 40 -15.5t17 -38.5z" />
    <glyph glyph-name="glyph499" horiz-adv-x="433" 
d="M218 496h13q40 0 73 -13.5t56 -35.5t35.5 -51t12.5 -59q0 -56 -38.5 -105t-126.5 -75q67 -45 116 -87.5t91 -85.5v-46q-40 36 -80 69.5t-80.5 59.5t-80 43t-78.5 20l-78 113q69 -21 116 -21q48 0 83 14t57.5 35t33.5 45t11 44q0 40 -24.5 61t-69.5 21h-9q-2 0 -2.5 -0.5
t-3.5 -0.5v-8q0 -27 -7.5 -48t-20.5 -35.5t-29 -22t-32 -7.5q-29 0 -48.5 18t-19.5 43q0 21 11.5 39.5t28.5 33t37 24.5t37 14zM387 608q-2 -20 -5 -34h51l34 -48h-441l-33 48h344q11 3 11 10q0 12 -7 19t-18 11.5t-24 6t-26 1.5q-12 0 -31 -1t-39 -3t-38 -3t-29 -1
q-22 0 -44.5 7.5t-41 21.5t-30 35.5t-11.5 48.5q0 18 9 62l37 -21q-3 -11 -5 -20.5t-2 -17.5q0 -28 21 -41t60 -13q32 0 67 3q18 1 36.5 2t35.5 1q58 0 85 -22.5t34 -50.5v-1zM189 31q0 -23 -17 -38.5t-40 -15.5q-25 0 -41 15.5t-16 38.5t16 38.5t41 15.5q23 0 40 -15.5
t17 -38.5z" />
    <glyph glyph-name="glyph500" horiz-adv-x="547" 
d="M145 494q10 3 22 3q29 0 52.5 -11t41 -28.5t28 -40t12.5 -46.5q31 34 62.5 61.5t52.5 39.5l113 -62q-19 -17 -36.5 -40t-31 -51.5t-21.5 -62t-8 -71.5q0 -16 2 -39t6 -48t9 -49t10 -41l-42 22q-25 85 -29 141.5t-4 94.5q0 29 7.5 56.5t17.5 53.5q-11 -8 -24.5 -21.5
t-28 -29.5t-29.5 -34t-28 -35q-20 -25 -38 -47t-32 -34q-3 -2 -8 -6t-3 -2q-8 -7 -15.5 -11.5t-24.5 -4.5t-31 12.5t-26 30.5t-21.5 38.5t-16.5 35.5l41 11q5 -17 11.5 -31.5t20.5 -14.5q7 0 24.5 13t36 31.5t32.5 39t14 35.5q0 14 -5 28t-14 25t-21 18t-25 7q-5 0 -9 -1
q8 -13 8 -32q0 -26 -17.5 -44t-48.5 -18q-29 0 -47 19.5t-18 48.5q0 37 22 59.5t57 31.5zM484 608q-2 -22 -6 -34h67l35 -48h-553l-33 48h435q13 4 13 10q0 11 -7.5 18.5t-19 12t-26 6.5t-27.5 2q-14 0 -34 -1.5t-41 -3.5q-22 -2 -41 -3t-32 -1q-24 1 -48 9t-43 22t-31 35
t-13 49h9v14.5t0.5 19.5t1 18t0.5 11l38 -22q-3 -11 -5 -20t-2 -17q0 -29 22 -42.5t64 -13.5q18 0 36 0.5t37 1.5q19 2 38 3t39 1q32 0 54 -6t36.5 -16t23 -23.5t13.5 -27.5v-2zM189 51q0 -23 -17 -38.5t-40 -15.5q-25 0 -41 15.5t-16 38.5t16 38.5t41 15.5q23 0 40 -15.5
t17 -38.5z" />
    <glyph glyph-name="glyph501" horiz-adv-x="502" 
d="M432 608q-1 -11 -2 -20t-3 -14h76l31 -48h-267v-179q0 -6 4.5 -10.5t6.5 -4.5q4 0 17.5 6t31 18.5t36.5 31.5t33 45q42 -32 59.5 -76t17.5 -86q0 -51 -17.5 -88.5t-44.5 -63t-59 -38t-60 -12.5q-119 10 -180.5 116t-77.5 323l35 -22q10 -76 28.5 -138t46 -106.5
t64.5 -68.5t86 -24q23 0 47.5 8t45 23.5t33.5 38t13 52.5q0 16 -6.5 31t-18.5 26q-13 -15 -29.5 -26t-33 -19t-32.5 -12t-29 -4q-19 0 -32.5 10t-21.5 23.5t-12 27t-4 19.5v179h-187l-34 48h391q6 2 8.5 6t2.5 7q-6 20 -27.5 27.5t-44.5 7.5q-11 0 -29 -1t-37 -3
q-18 -2 -35 -3t-28 -1q-23 0 -44.5 7.5t-38 22t-27 36t-11.5 48.5q0 14 9 62l36 -21q-7 -13 -7 -38q0 -28 20 -41.5t56 -13.5q32 0 65 3q17 1 33.5 2t32.5 1q29 0 49 -6t33.5 -16.5t21 -23.5t10.5 -27v-1zM189 51q0 -23 -17 -38.5t-40 -15.5q-25 0 -41 15.5t-16 38.5
t16 38.5t41 15.5q23 0 40 -15.5t17 -38.5z" />
    <glyph glyph-name="glyph502" horiz-adv-x="620" 
d="M505 606q1 -5 1.5 -8t0.5 -7q0 -5 -0.5 -9t-3.5 -8h116l37 -48h-298v-181q0 -8 4 -10t6 -2q7 0 22.5 6t36 19.5t43.5 36t44 54.5q21 -18 36.5 -40t26 -45t15.5 -46.5t5 -42.5q0 -53 -22 -92.5t-54.5 -66t-70.5 -40t-70 -13.5q-29 0 -53 6t-44.5 15t-36 19.5t-26.5 20.5
q-17 15 -40.5 43t-47.5 72t-45.5 105.5t-34.5 143.5l40 -16q11 -45 21 -77.5t19 -57t18.5 -43t20.5 -34.5q-11 25 -19.5 52.5t-14.5 54.5t-9 52t-3 46v18l37 -17q8 -73 27.5 -132.5t48 -102t65.5 -66t80 -23.5q24 0 52.5 7.5t54 22.5t42.5 38.5t17 55.5q0 15 -8.5 34
t-19.5 30q-14 -10 -32.5 -21.5t-38 -21.5t-38 -17t-32.5 -7q-19 0 -33 10t-23 23.5t-13.5 27.5t-4.5 22v180h-279l-33 48h455q13 4 13 10q0 12 -7.5 19.5t-19.5 11.5t-27 5.5t-30 1.5q-14 0 -34.5 -1t-42.5 -3q-23 -2 -43 -3t-33 -1q-25 0 -50 7.5t-45 22t-32.5 36
t-12.5 48.5q0 8 3 22.5t9 39.5l39 -21q-5 -17 -7 -27t-2 -11q0 -28 24 -41.5t67 -13.5q36 0 77 3q20 1 39.5 2t38.5 1q33 0 56.5 -6t38.5 -16.5t23.5 -23.5t13.5 -27v-3zM169 51q0 -23 -17 -38.5t-40 -15.5q-25 0 -41 15.5t-16 38.5t16 38.5t41 15.5q23 0 40 -15.5t17 -38.5
z" />
    <glyph glyph-name="glyph503" horiz-adv-x="578" 
d="M521 570v-483l-36 25q-11 46 -33.5 82t-61.5 52v-239l-33 26q-14 46 -38.5 83.5t-56 64.5t-67.5 43t-72 20l-55 74l241 147q-7 8 -19 15.5t-27 13.5q-12 -12 -28.5 -23.5t-35 -21t-37 -15.5t-33.5 -6q-31 0 -51.5 8.5t-33 21t-18 28t-5.5 29.5q0 18 12.5 37t42.5 22
q19 0 37 -14t18 -40q0 -6 -1 -13.5t-6 -16.5q24 7 48 29t44 51q26 -5 61 -27t60 -49v141l53 -64v-246q24 -21 39 -40.5t29 -39.5l10 -14v400zM337 404q-43 -26 -81 -49.5t-81 -49.5q29 -17 52 -32.5t42 -32t35.5 -36.5t32.5 -45v245zM169 51q0 -23 -17 -38.5t-40 -15.5
q-25 0 -41 15.5t-16 38.5t16 38.5t41 15.5q23 0 40 -15.5t17 -38.5z" />
    <glyph glyph-name="glyph504" horiz-adv-x="519" 
d="M480 194q0 -44 -19 -77t-50.5 -54.5t-72.5 -32.5t-86 -11q-26 0 -51.5 3t-46 10.5t-33.5 18.5t-13 28q0 10 9.5 20t23.5 19t28.5 15.5t25.5 10.5v-1q28 14 37 30t9 43q0 23 -14.5 42.5t-47.5 19.5q-34 0 -61 -21q12 -5 20 -17t8 -24q0 -17 -15.5 -34t-44.5 -17
q-25 0 -38 16t-13 42q0 18 10.5 35.5t28 31t40 21.5t47.5 8q28 0 51.5 -9.5t40.5 -26t26 -39t9 -47.5q0 -31 -12.5 -50.5t-42.5 -40.5q-3 -2 -6.5 -4t-8.5 -4q-8 -5 -16.5 -9.5t-8.5 -6.5q0 -9 7.5 -14.5t19 -9t23.5 -4.5t21 -1q31 0 56 11.5t42 31t26.5 45t9.5 52.5
q0 59 -38 101.5t-104 73.5q-42 19 -76 36t-59.5 37.5t-42 47t-23.5 65.5l24 9q7 -27 20 -47t35 -36t55 -31.5t82 -33.5q43 -18 81 -39.5t66.5 -48t45 -59.5t16.5 -74zM69 51q0 -23 -17 -38.5t-40 -15.5q-25 0 -41 15.5t-16 38.5t16 38.5t41 15.5q23 0 40 -15.5t17 -38.5z
" />
    <glyph glyph-name="glyph505" horiz-adv-x="537" 
d="M481 6l-32 26q0 27 -8 42.5t-21.5 23.5t-31 10.5t-36.5 2.5q-14 0 -28 -1.5t-28 -3.5q-16 -2 -31.5 -3.5t-32.5 -1.5q-42 0 -78.5 12t-63.5 37.5t-42.5 65t-15.5 95.5q0 18 3 37.5t13 39.5l41 -18q-14 -30 -14 -64q0 -27 7 -51t21 -41.5t35.5 -28t50.5 -10.5q28 0 58 1.5
t65 6.5q38 0 65 -13t53 -33v350q0 15 -6.5 26t-23.5 11q-19 0 -43 -11.5t-45.5 -30t-36.5 -43t-15 -50.5q0 -8 -0.5 -8.5t0.5 -1.5q13 5 28 5q32 0 50 -21t18 -43q0 -11 -6 -23t-16 -22t-22 -16t-24 -6q-14 0 -31 5t-32 17t-25.5 32.5t-10.5 52.5q0 44 22 83t53.5 68
t67 45.5t63.5 16.5q18 0 33.5 -9.5t27.5 -22.5t18.5 -27t6.5 -23v-485zM149 51q0 -23 -17 -38.5t-40 -15.5q-25 0 -41 15.5t-16 38.5t16 38.5t41 15.5q23 0 40 -15.5t17 -38.5z" />
    <glyph glyph-name="glyph506" horiz-adv-x="605" 
d="M573 517q0 -40 -19.5 -69t-71.5 -55v-387l-32 26q0 27 -8 42.5t-21.5 23.5t-31.5 10.5t-37 2.5q-13 0 -27 -1.5t-29 -3.5t-30.5 -3.5t-32.5 -1.5q-42 0 -78.5 12t-63.5 37.5t-42.5 65t-15.5 95.5q0 18 3 37.5t13 39.5l41 -18q-14 -30 -14 -64q0 -27 7 -51t21 -41.5
t35 -28t50 -10.5q28 0 58 1.5t65 6.5q39 0 66 -13t52 -33v350q0 15 -6 26t-23 11q-19 0 -43.5 -11.5t-46 -30t-36.5 -43t-15 -50.5q0 -8 -0.5 -8.5t0.5 -1.5q13 5 29 5q32 0 50 -21t18 -43q0 -11 -6 -23t-16 -22t-22 -16t-24 -6q-14 0 -31.5 5t-32.5 17t-25.5 32.5
t-10.5 52.5q0 44 22 83t53.5 68t67.5 45.5t63 16.5q18 0 34 -9.5t28 -22.5t18.5 -27t6.5 -23v-30q13 1 22.5 7t15.5 14.5t8.5 18.5t2.5 19q0 32 -32.5 50.5t-104.5 29.5q-59 9 -99 19t-64.5 25t-35 36.5t-10.5 54.5q0 13 4.5 27.5t11.5 26.5l38 -18q-8 -8 -11 -18.5
t-3 -20.5q0 -15 15.5 -27t42.5 -21t64 -16.5t81 -13.5q79 -11 112 -44.5t33 -92.5zM110 51q0 -23 -17 -38.5t-40 -15.5q-25 0 -41 15.5t-16 38.5t16 38.5t41 15.5q23 0 40 -15.5t17 -38.5z" />
    <glyph glyph-name="glyph507" horiz-adv-x="538" 
d="M493 242q0 -38 -14 -70t-37 -55t-53.5 -36.5t-63.5 -13.5q-46 0 -85 18.5t-70.5 50.5t-56 73.5t-43 88t-30.5 94t-19 90.5l39 -16q22 -91 49.5 -152t59 -98t66.5 -52.5t71 -15.5q22 0 46.5 8.5t45.5 23t34.5 34t13.5 41.5q0 17 -6.5 26.5t-25.5 14.5q-6 -18 -18.5 -33.5
t-39.5 -15.5q-37 0 -53 19.5t-16 44.5v5q1 10 5 20.5t12 19.5t19.5 14.5t28.5 5.5q10 0 16.5 -0.5t12.5 -3.5q2 0 8 7.5t13 18.5t12 23.5t5 24.5q0 32 -23 51.5t-58 19.5q-29 0 -53 -15.5t-44 -37.5q9 -8 17.5 -19t8.5 -30q0 -31 -22 -52t-54 -21q-12 0 -22.5 6t-18 16
t-11.5 22t-4 23q0 23 12 51.5t35 53.5t56.5 42t77.5 17q68 0 109.5 -36t41.5 -94q0 -22 -8.5 -48t-19.5 -46q8 -6 17.5 -17t17.5 -25t13.5 -30.5t5.5 -34.5zM169 51q0 -23 -17 -38.5t-40 -15.5q-25 0 -41 15.5t-16 38.5t16 38.5t41 15.5q23 0 40 -15.5t17 -38.5z" />
    <glyph glyph-name="glyph508" horiz-adv-x="575" 
d="M493 242q0 -38 -14 -70t-37.5 -55t-53.5 -36.5t-62 -13.5q-70 0 -122.5 40t-90 101.5t-60 133.5t-32.5 137l39 -17q22 -90 49.5 -150.5t59 -97t66 -52t71.5 -15.5q22 0 47 8.5t46 23t34.5 34t13.5 41.5q0 16 -6.5 25t-26.5 14q-5 -17 -18 -32t-39 -15q-19 0 -32 5.5
t-21.5 14.5t-12.5 20.5t-4 22.5v4q0 10 4 20.5t12.5 19.5t20.5 15t28 6h2q1 0 2 -0.5t3 -0.5l23 -4q2 1 8 8.5t12 18t11 23t5 24.5q0 32 -22.5 51.5t-57.5 19.5q-29 0 -53 -15.5t-43 -37.5q8 -8 16.5 -19t8.5 -31q0 -29 -21 -50t-55 -21q-12 0 -22.5 6t-18 15.5t-11.5 21
t-4 22.5q0 23 12 51.5t35.5 53t57 41.5t77.5 17q67 0 108.5 -35.5t41.5 -93.5q0 -11 -3 -23q17 14 21.5 32.5t4.5 35.5q0 14 -6 33t-35 44q-17 17 -42.5 28t-55 18t-60.5 11t-59 7q-32 3 -53 14.5t-33.5 27t-17.5 33.5t-5 34q0 17 4.5 32t8.5 23l39 -21q-8 -10 -11 -18
t-3 -19q0 -6 1.5 -12.5t8 -12t21 -9.5t40.5 -4q87 -2 149.5 -22t107.5 -62q19 -18 36 -44.5t17 -67.5q0 -36 -21 -76t-79 -77q16 -13 33.5 -40.5t17.5 -61.5zM169 51q0 -23 -17 -38.5t-40 -15.5q-25 0 -41 15.5t-16 38.5t16 38.5t41 15.5q23 0 40 -15.5t17 -38.5z" />
    <glyph glyph-name="glyph509" horiz-adv-x="575" 
d="M613 526h-249v-22q48 -8 84.5 -27t60.5 -44.5t36 -55t12 -58.5q0 -17 -5.5 -37.5t-16.5 -39.5t-27.5 -31.5t-38.5 -12.5q-21 0 -41 15.5t-20 43.5q0 9 3.5 20t11 21t19 16.5t26.5 6.5q8 0 18.5 -3.5t17.5 -6.5q7 14 7 30q0 19 -13 36t-34 29.5t-47 19.5t-51 7h-2v-426
l-31 23q-35 112 -100.5 168.5t-151.5 67.5l-53 69l283 163v28h-284l-33 48h582zM311 424q-45 -26 -85 -49.5t-86 -49.5q47 -20 90 -57t81 -99v255zM169 51q0 -23 -17 -38.5t-40 -15.5q-25 0 -41 15.5t-16 38.5t16 38.5t41 15.5q23 0 40 -15.5t17 -38.5z" />
    <glyph glyph-name="glyph510" horiz-adv-x="480" 
d="M513 526h-82v-519l-32 23q-29 65 -61.5 107t-68 66t-72.5 33t-74 9h-20l-68 96q22 -4 36.5 -5t26.5 -1q29 0 52 5.5t41 13.5t30.5 17.5t20.5 17.5q17 16 27.5 34t10.5 38q0 9 -2.5 15t-10.5 14q-42 -46 -77 -62t-71 -16q-27 0 -46 7.5t-31 20t-17 29t-5 35.5q0 15 6 27.5
t16 22t22.5 15t25.5 5.5q25 0 39.5 -17t14.5 -42q0 -14 -5 -27q2 0 3 -0.5t3 -0.5q46 0 77 86q33 -11 54 -28t32.5 -36.5t15.5 -40t4 -36.5q0 -29 -10.5 -57t-38.5 -53q-14 -13 -66 -29q35 -13 60.5 -28t44.5 -32.5t33.5 -36.5t26.5 -39v514q19 -11 30.5 -36.5t17.5 -46.5
q1 -3 1.5 -7.5t0.5 -6.5h50zM169 51q0 -23 -17 -38.5t-40 -15.5q-25 0 -41 15.5t-16 38.5t16 38.5t41 15.5q23 0 40 -15.5t17 -38.5z" />
    <glyph glyph-name="glyph511" horiz-adv-x="481" 
d="M519 526h-84v-520l-53 48v301q0 12 -13 37.5t-35 51.5t-49.5 46t-57.5 20q-19 0 -36 -6.5t-31 -18.5t-23 -27.5t-12 -33.5q19 8 38 15.5t38 7.5q26 0 44 -11.5t29.5 -29t17 -38t5.5 -39.5q0 -17 -2.5 -30t-9 -28.5t-19 -35.5t-31.5 -51l-54 68q12 13 24 28.5t21.5 30.5
t15.5 29t6 24q0 32 -31 32q-22 0 -36.5 -10.5t-27.5 -23.5h1q-11 -10 -21 -17.5t-22 -7.5q-34 0 -51 20t-17 46q0 27 13 57t36 55.5t53.5 42t65.5 16.5q29 0 54 -11.5t46.5 -31t39 -44.5t31.5 -51v235q23 -11 33 -36t15 -46q2 -5 2 -8t2 -7h47zM169 51q0 -23 -17 -38.5
t-40 -15.5q-25 0 -41 15.5t-16 38.5t16 38.5t41 15.5q23 0 40 -15.5t17 -38.5z" />
    <glyph glyph-name="glyph512" horiz-adv-x="471" 
d="M510 526h-81v-519q-21 14 -29 25t-16 24q-9 13 -22.5 31.5t-39.5 44.5h1q-14 12 -33 23.5t-40 21.5t-43.5 16t-43.5 6h-13l-61 82l94 80h-23q-34 0 -54 10t-30.5 24.5t-13.5 29.5t-3 25q0 23 11.5 42.5t28.5 33.5h-73l-33 48h480zM376 526q-49 0 -76 0.5t-40 0.5h-16.5
h-5.5q-18 0 -36.5 -9t-34 -22t-25 -28t-9.5 -27q0 -20 17 -31t41 -11q45 0 91 46l46 -60l-133 -113q61 -25 103.5 -56t77.5 -82v392zM169 51q0 -23 -17 -38.5t-40 -15.5q-25 0 -41 15.5t-16 38.5t16 38.5t41 15.5q23 0 40 -15.5t17 -38.5z" />
    <glyph glyph-name="glyph513" horiz-adv-x="486" 
d="M451 225q0 -39 -12.5 -70t-35 -53.5t-53 -34.5t-67.5 -12q-43 0 -78 16.5t-63 45.5t-49.5 67t-36 81t-23 88.5t-11.5 88.5l36 -12q12 -105 39.5 -163.5t58.5 -83.5q31 -26 59 -38.5t70 -12.5q22 0 44 6.5t39 18.5t28 30t11 42q0 16 -8 27.5t-22 22.5q-12 -11 -27.5 -22.5
t-33 -20.5t-36.5 -14.5t-37 -5.5q-21 0 -35.5 9.5t-24 23.5t-13.5 29t-4 26v82q-28 10 -48.5 27.5t-35 38.5t-23 44.5t-13.5 44.5l30 24q17 -86 89 -118v2q0 41 12 65.5t30 38t38 17.5t37 4q15 0 30.5 -5t28 -16t20.5 -28.5t8 -43.5q0 -20 -10.5 -39.5t-27 -34.5t-37 -24.5
t-41.5 -9.5h-37v-69q0 -14 22 -14q14 0 32 9t35.5 22t32 27t21.5 25q49 -28 70.5 -70t21.5 -78zM324 491q0 11 -10 17.5t-23 6.5q-12 0 -25 -5t-24 -15.5t-18.5 -26.5t-8.5 -37h4q21 0 40 6t33.5 15t23 19.5t8.5 19.5zM149 51q0 -23 -17 -38.5t-40 -15.5q-25 0 -41 15.5
t-16 38.5t16 38.5t41 15.5q23 0 40 -15.5t17 -38.5z" />
    <glyph glyph-name="glyph514" horiz-adv-x="412" 
d="M450 526h-320v-34q20 -32 39.5 -51t38 -28.5t35.5 -12.5t32 -3q5 0 9.5 0.5t9.5 0.5h16q14 0 28.5 -4t26 -12t19 -22t7.5 -33q0 -49 -25 -97t-61 -85.5t-76 -60.5t-70 -23q-21 0 -37 9.5t-26.5 23t-15.5 28t-5 25.5v379h-49l-33 48h419zM316 326q-2 -1 -6 -1v6zM310 325
q-2 -1 -5 -0.5t-7 0.5q-47 0 -86 19.5t-82 74.5v-267q0 -16 7 -25t17 -9q22 0 48 21.5t49.5 52.5t40 65.5t21.5 59.5q0 2 -0.5 2.5t-0.5 1.5zM79 51q0 -23 -17 -38.5t-40 -15.5q-25 0 -41 15.5t-16 38.5t16 38.5t41 15.5q23 0 40 -15.5t17 -38.5z" />
    <glyph glyph-name="glyph515" horiz-adv-x="465" 
d="M499 526h-375v-8q19 -28 44.5 -41t54.5 -13q5 0 11 0.5t12 0.5q6 1 13 1h13q31 0 62 -8t60 -35q25 -23 34 -53t9 -54q0 -32 -11 -61.5t-32 -53.5q-18 -17 -43.5 -29.5t-50.5 -20.5h-1q28 -17 57 -38.5t57 -45t53.5 -47.5t46.5 -46v-44q-71 65 -152 116h1l-43 23
q-35 19 -74 30.5t-79 20.5l-68 93q25 -5 45 -7.5t38 -2.5q107 0 159 35.5t52 92.5q0 32 -22.5 49.5t-49.5 17.5h-6v-4q0 -31 -18 -58t-43 -46.5t-51.5 -31t-43.5 -11.5q-32 0 -55 20.5t-32 58.5v200h-45l-33 48h471zM245 397h-5q1 2 1 6zM144 302q10 1 24.5 7t29.5 18
t26.5 29t15.5 41q-45 9 -69.5 25.5t-46.5 39.5v-141q0 -11 4 -15t17 -4h-1zM169 51q0 -23 -17 -38.5t-40 -15.5q-25 0 -41 15.5t-16 38.5t16 38.5t41 15.5q23 0 40 -15.5t17 -38.5z" />
    <glyph glyph-name="glyph516" horiz-adv-x="597" 
d="M632 526h-318l-4 -2t-4 -3q17 -32 50.5 -55t78.5 -23q26 0 83 15l65 -88q-45 -38 -65.5 -86.5t-20.5 -106.5q0 -49 7 -85t15 -66l2 -17l-36 21q-17 54 -28 105.5t-11 105.5q2 19 5 35t7.5 31.5t10.5 31.5t15 36h-18q-63 0 -111.5 34.5t-76.5 88.5q-20 -14 -36 -31.5
t-28 -35.5t-18.5 -35.5t-6.5 -30.5q0 -22 12 -33t29 -11q23 0 52 16.5t55 46.5q40 -29 57.5 -61.5t17.5 -69.5q0 -28 -9 -53.5t-26 -45t-43 -31.5t-59 -12q-62 0 -107.5 31.5t-76 83t-45.5 116.5t-15 133v15t2 19l36 -20q0 -65 15 -121t41.5 -97.5t62.5 -65t78 -23.5
q26 0 45 7t31 18t17.5 25t5.5 28q0 10 -3 18l-6 16h1l-1 1q-8 -4 -20 -9.5t-25.5 -11t-27 -9t-25.5 -3.5q-20 0 -41.5 8t-39.5 25t-29.5 42.5t-11.5 61.5q0 19 6 37.5t15 35t20.5 30t22.5 24.5h-173l-33 48h603zM169 51q0 -23 -17 -38.5t-40 -15.5q-25 0 -41 15.5t-16 38.5
t16 38.5t41 15.5q23 0 40 -15.5t17 -38.5z" />
    <glyph glyph-name="glyph517" horiz-adv-x="560" 
d="M597 526h-84v-456l-32 34q-17 38 -46.5 66.5t-59.5 43.5v-208l-32 26q-43 118 -106.5 171.5t-145.5 58.5l-54 74l286 164v26h-296l-33 48h565zM460 526h-85v-250q36 -26 52 -41.5t29 -28.5l4 -3v323zM323 424l-173 -99q31 -15 55.5 -31.5t44.5 -35.5t38 -41.5t35 -49.5
v257zM169 51q0 -23 -17 -38.5t-40 -15.5q-25 0 -41 15.5t-16 38.5t16 38.5t41 15.5q23 0 40 -15.5t17 -38.5z" />
    <glyph glyph-name="glyph518" horiz-adv-x="756" 
d="M483 463q5 5 9 9.5t7 9.5q27 32 55.5 49.5t63.5 17.5q23 0 41 -8.5t31 -23t19.5 -33t6.5 -38.5q0 -21 -10.5 -41.5t-24.5 -37.5q15 -11 25 -29.5t10 -47.5q0 -16 -5 -34t-17.5 -33t-33 -25t-51.5 -10q-49 0 -78.5 23t-47.5 59v-264l-32 26q0 27 -8 42.5t-21.5 23.5
t-31.5 10.5t-37 2.5q-14 0 -27.5 -1.5t-28.5 -3.5t-30.5 -3.5t-32.5 -1.5q-42 0 -78.5 12t-63.5 37.5t-42.5 65t-15.5 95.5q0 18 3 37.5t12 39.5l41 -18q-13 -31 -13 -64q0 -27 7 -51t21 -41.5t35 -28t50 -10.5h28q20 0 41.5 2t44.5 5q2 0 5 0.5t5 0.5q38 0 65 -13t52 -33
v350q0 15 -6 26t-23 11q-19 0 -43.5 -11.5t-46 -30t-36.5 -43t-15 -50.5q0 -8 -0.5 -8.5t0.5 -1.5q13 5 29 5q32 0 50 -21t18 -43q0 -11 -6 -23t-16 -22t-22 -16t-24 -6q-14 0 -31.5 5t-32.5 17t-25.5 32.5t-10.5 52.5q0 44 22 83t53.5 68t67.5 45.5t63 16.5q18 0 34 -9.5
t28 -22.5t18.5 -27t6.5 -23v-28zM619 489q-34 -1 -57 -18t-40 -34q-8 -7 -15 -13.5t-14 -9.5q-4 -5 -6 -10.5t-4 -10.5v-42l11 -21q7 -16 19 -31.5t27 -28t32.5 -20.5t36.5 -8q35 0 49 14.5t14 32.5q0 11 -5.5 21.5t-22.5 20.5q-17 -22 -42 -22q-22 0 -39.5 18t-17.5 44
q0 29 18 45.5t37 16.5q14 0 25.5 -5.5t22.5 -19.5q14 8 17 15.5t5 27.5q0 18 -28 34zM169 51q0 -23 -17 -38.5t-40 -15.5q-25 0 -41 15.5t-16 38.5t16 38.5t41 15.5q23 0 40 -15.5t17 -38.5z" />
    <glyph glyph-name="glyph519" horiz-adv-x="409" 
d="M389 608q-1 -11 -2 -20t-3 -14h25l34 -48h-336v-335q0 -18 16.5 -28.5t30.5 -10.5q8 0 31 9.5t48 28t45 46t21 63.5q-10 -2 -24 -2q-28 0 -42.5 19t-14.5 40q0 26 19 47t53 21q17 0 32.5 -8t27.5 -22.5t19 -34t7 -42.5q0 -35 -14.5 -65t-37 -55t-49.5 -44t-52.5 -32
t-46.5 -20t-31 -7q-14 0 -30 8t-29.5 21.5t-22.5 31t-9 36.5v335h-28l-33 48h345q12 3 12 10q0 12 -7 19.5t-18 11.5t-24 5.5t-25 1.5q-13 0 -32 -1t-39 -3t-38 -3t-30 -1q-22 0 -44.5 7.5t-41 21.5t-30 35.5t-11.5 48.5q0 9 2.5 24.5t7.5 37.5l37 -21q-8 -22 -8 -38
q0 -28 22 -41t60 -13q32 0 68 3q17 1 35.5 2t35.5 1q58 0 85 -22.5t34 -50.5v-1zM369 51q0 -23 -17 -38.5t-40 -15.5q-25 0 -41 15.5t-16 38.5t16 38.5t41 15.5q23 0 40 -15.5t17 -38.5z" />
    <glyph glyph-name="glyph520" horiz-adv-x="417" 
d="M456 526h-182q58 -57 83.5 -115.5t25.5 -122.5q0 -35 -12 -71t-34.5 -64.5t-55.5 -46.5t-74 -18q-32 0 -62.5 12.5t-53.5 36t-37 56.5t-14 75v7q0 2 0.5 6t0.5 6q13 2 42.5 12t58.5 32.5t51.5 61t22.5 97.5v31q0 1 -2 5h-188l-33 48h197q-35 47 -52.5 84t-20.5 76
q0 18 3.5 29.5t11.5 25.5l53 -28q-8 -14 -10 -25.5t-3 -24.5q5 -38 22.5 -73.5t40.5 -63.5h183zM329 308q0 38 -16.5 85.5t-51.5 85.5q1 -9 1.5 -19t0.5 -20q0 -52 -17.5 -96t-63.5 -82q-12 -11 -25 -18t-23 -12q-11 -5 -17.5 -11t-6.5 -18q0 -29 18.5 -46.5t55.5 -17.5
q31 0 58 12t46 34t30 53t11 70zM442 51q0 -23 -17 -38.5t-40 -15.5q-25 0 -41 15.5t-16 38.5t16 38.5t41 15.5q23 0 40 -15.5t17 -38.5z" />
    <glyph glyph-name="glyph521" horiz-adv-x="501" 
d="M503 574l31 -48h-267v-163q0 -6 4.5 -9.5t6.5 -3.5q3 0 16.5 6t31.5 18.5t37 31t33 43.5q43 -31 60 -75t17 -86q0 -51 -17.5 -89t-44.5 -63t-59 -37t-60 -12q-60 4 -103 32t-73 79t-50 124.5t-33 167.5l36 -22q12 -44 27.5 -96.5t40.5 -98t63 -76t94 -30.5q23 0 47.5 8
t45 23.5t33.5 38t13 51.5q0 17 -6.5 32t-18.5 26q-13 -14 -29 -26t-33 -20t-33.5 -12.5t-28.5 -4.5q-19 0 -32.5 10.5t-21.5 24t-12 27t-4 18.5v163h-187l-34 48h510zM169 51q0 -23 -17 -38.5t-40 -15.5q-25 0 -41 15.5t-16 38.5t16 38.5t41 15.5q23 0 40 -15.5t17 -38.5z
" />
    <glyph glyph-name="glyph522" horiz-adv-x="422" 
d="M421 574l38 -48h-337v-335q0 -18 16.5 -28.5t30.5 -10.5q7 0 29.5 10t47 29t45 46t23.5 62q-5 -2 -11 -2h-13q-29 0 -42.5 19t-13.5 40q0 26 18 47t53 21t60 -30.5t25 -76.5q0 -35 -14.5 -65t-37 -55t-49.5 -44t-52.5 -32t-46 -20t-29.5 -7q-17 0 -33.5 9t-29.5 23
t-21.5 31t-8.5 34v335h-42l-33 48h428zM389 51q0 -23 -17 -38.5t-40 -15.5q-25 0 -41 15.5t-16 38.5t16 38.5t41 15.5q23 0 40 -15.5t17 -38.5z" />
    <glyph glyph-name="glyph523" horiz-adv-x="425" 
d="M459 526h-81v-520l-53 49v281q-15 44 -36.5 75t-44 50.5t-43 28.5t-33.5 9q-25 0 -45 -9t-33.5 -23t-21 -31.5t-7.5 -34.5t9 -30.5t26 -18.5q4 21 24 35t46 14t48.5 -22.5t22.5 -57.5q0 -29 -20.5 -52t-60.5 -23q-29 0 -54 12.5t-43 33.5t-28 49.5t-10 60.5q0 34 11 64.5
t29 53.5t42 36.5t50 13.5q29 0 54 -12.5t46.5 -32.5t39.5 -45t32 -51v242q20 -10 29 -31t15 -42q2 -5 3.5 -12t3.5 -12h50zM169 51q0 -23 -17 -38.5t-40 -15.5q-25 0 -41 15.5t-16 38.5t16 38.5t41 15.5q23 0 40 -15.5t17 -38.5z" />
    <glyph glyph-name="glyph524" horiz-adv-x="594" 
d="M631 526h-604l-33 48h599zM77 491q27 -95 60.5 -157.5t71 -100t77.5 -52.5t79 -15q36 0 62.5 14.5t43.5 36t25 46t8 44.5q0 17 -7 36t-19 35.5t-29 27t-37 10.5q-8 0 -13 -1q5 -15 7.5 -26t2.5 -19q0 -22 -9 -37.5t-22 -25t-28.5 -14t-28.5 -4.5q-47 0 -73 28.5t-26 68.5
q0 17 8 36t24 35.5t39.5 27.5t54.5 11q19 0 52.5 -8.5t66.5 -32.5t57.5 -66.5t24.5 -109.5q0 -35 -10.5 -69t-32 -61.5t-54.5 -44.5t-77 -17q-15 0 -39.5 4t-54 18t-63 41.5t-66 74.5t-62 116.5t-51.5 168.5zM169 51q0 -23 -17 -38.5t-40 -15.5q-25 0 -41 15.5t-16 38.5
t16 38.5t41 15.5q23 0 40 -15.5t17 -38.5z" />
    <glyph glyph-name="glyph525" horiz-adv-x="475" 
d="M511 526h-84v-519l-31 25l-6 10v-1q-6 11 -21 32t-38 44h1q-56 53 -110 74.5t-118 22.5h-16l-73 97q24 -2 41 -4t28 -2q37 0 71.5 9t61.5 26t43 42.5t16 58.5q0 15 -4.5 29.5t-14 26t-24.5 18.5t-36 7q-43 0 -75 -29q13 -7 23.5 -19.5t10.5 -31.5q0 -9 -4.5 -20
t-13.5 -20t-22.5 -15.5t-31.5 -6.5q-29 0 -44.5 19.5t-15.5 51.5q0 23 12 45t33 39t49.5 27.5t61.5 10.5q35 0 63 -13t48 -35t30.5 -49.5t10.5 -57.5q0 -52 -27 -93t-75 -64q55 -33 86 -66t52 -59l6 -7v542q11 -4 19.5 -16t14.5 -27t10 -29.5t6 -24.5h50zM169 51
q0 -23 -17 -38.5t-40 -15.5q-25 0 -41 15.5t-16 38.5t16 38.5t41 15.5q23 0 40 -15.5t17 -38.5z" />
    <glyph glyph-name="glyph526" horiz-adv-x="445" 
d="M484 526h-354v-233q48 57 97 103.5t103 76.5l97 -52q-42 -50 -55.5 -104t-13.5 -109q0 -26 2.5 -51.5t8 -52t13.5 -55.5t19 -63l-39 18q-29 66 -47 131t-18 131q0 51 14 101q-32 -25 -59 -55.5t-53 -60.5l-54 -62l-70 61v276h-49l-33 48h453zM169 51q0 -23 -17 -38.5
t-40 -15.5q-25 0 -41 15.5t-16 38.5t16 38.5t41 15.5q23 0 40 -15.5t17 -38.5z" />
    <glyph glyph-name="glyph527" horiz-adv-x="415" 
d="M453 526h-87v-522l-33 38l-5 10h1q-9 18 -28 49.5t-50 62.5t-75.5 54t-104.5 23l-57 73l154 85h-1q-28 0 -51 8.5t-39.5 23t-26 32.5t-9.5 36q0 15 6 28t17 23.5t26 16.5t32 6q29 0 44 -15.5t15 -36.5q0 -19 -11.5 -32.5t-42.5 -15.5q6 -15 15.5 -23t21 -11.5t23.5 -4.5
t24 -1q20 0 43.5 12t43.5 26q3 2 5.5 3.5t9.5 5.5v192q24 -11 33 -35.5t14 -46.5l4 -16h50zM313 401q-47 -26 -89 -49t-90 -49q53 -20 95 -53t84 -93v244zM169 51q0 -23 -17 -38.5t-40 -15.5q-25 0 -41 15.5t-16 38.5t16 38.5t41 15.5q23 0 40 -15.5t17 -38.5z" />
    <glyph glyph-name="glyph528" horiz-adv-x="455" 
d="M491 526h-79v-520l-31 28q0 48 -15.5 94t-41 83t-57 61t-63.5 28q7 -13 9.5 -23.5t2.5 -20.5q0 -17 -7.5 -31.5t-19.5 -25t-26 -16t-27 -5.5q-20 0 -36.5 7.5t-28 20.5t-17.5 29t-6 34q0 25 10 44.5t27 32.5t39 19.5t47 6.5q20 0 44.5 -7t50 -22.5t49.5 -41t44 -62.5v287
h-333l-33 48h463zM169 51q0 -23 -17 -38.5t-40 -15.5q-25 0 -41 15.5t-16 38.5t16 38.5t41 15.5q23 0 40 -15.5t17 -38.5z" />
    <glyph glyph-name="glyph529" horiz-adv-x="517" 
d="M551 526h-84v-520l-52 49v285q0 19 -11.5 40.5t-23.5 38.5l-197 -193l-68 35q48 45 68.5 67.5t20.5 27.5q0 13 -12 21.5t-26 8.5q-9 0 -19 -5.5t-21 -11.5q-12 -8 -24.5 -14t-22.5 -6q-9 0 -18 3t-16.5 9.5t-12.5 18t-5 29.5q0 27 15.5 55.5t41.5 52.5t59.5 39t70.5 15
q71 0 119.5 -37t81.5 -92v230q19 -12 30.5 -39.5t17.5 -48.5v1q2 -2 2 -5t1 -6h51zM329 475q-47 33 -102 33q-34 0 -66 -18t-56 -63q11 5 26 9.5t29 4.5q23 0 43.5 -14t31.5 -42zM169 51q0 -23 -17 -38.5t-40 -15.5q-25 0 -41 15.5t-16 38.5t16 38.5t41 15.5q23 0 40 -15.5
t17 -38.5z" />
    <glyph glyph-name="glyph530" horiz-adv-x="607" 
d="M644 526h-480q42 -34 80 -77.5t66 -86.5l-128 -85q33 -16 59 -31.5t47.5 -32.5t40 -37.5t36.5 -45.5v358q5 1 10.5 2t9.5 1q56 0 94 -15t61 -37.5t33 -48t10 -46.5q0 -31 -6.5 -52t-17.5 -34t-24.5 -18.5t-26.5 -5.5q-17 0 -28 6.5t-18.5 16t-10.5 20.5t-3 20
q0 19 14 35.5t38 16.5q8 0 17 -1.5t20 -9.5q2 5 3 10t1 8q0 13 -7 24.5t-17.5 20t-24 13.5t-25.5 5h-49v-411l-32 21q-18 33 -40 62.5t-51.5 52t-68 37t-89.5 18.5l-68 89l164 115q-15 20 -30 34.5t-35.5 25t-50 18.5t-73.5 15l-8 30h-9l-33 48h615zM169 51q0 -23 -17 -38.5
t-40 -15.5q-25 0 -41 15.5t-16 38.5t16 38.5t41 15.5q23 0 40 -15.5t17 -38.5z" />
    <glyph glyph-name="glyph531" horiz-adv-x="440" 
d="M481 526h-86v-519l-31 23q-16 54 -44 95.5t-63 70t-76 45.5t-84 23l-58 70l304 165v27h-317l-33 48h449zM343 422l-185 -99q50 -22 94.5 -58t90.5 -101v258zM170 48q0 -23 -17 -38.5t-40 -15.5q-25 0 -41 15.5t-16 38.5t16 38.5t41 15.5q23 0 40 -15.5t17 -38.5z" />
    <glyph glyph-name="glyph532" horiz-adv-x="521" 
d="M558 526h-531l-33 48h526zM488 288q0 -38 -13 -73t-38 -62t-60.5 -43t-81.5 -16h-6q-68 2 -114.5 38.5t-76.5 92t-45 121.5t-19 128l36 -14q6 -53 16 -93.5t23 -70t28.5 -49.5t30.5 -33q25 -22 50.5 -35t58.5 -16h16q32 2 60 12.5t49 27.5t33 39.5t12 48.5q0 15 -7 33
t-20 29q-17 -20 -44.5 -40t-80.5 -26q-20 1 -42.5 6.5t-41.5 17.5t-32.5 32t-16.5 52q0 32 20 55t57 23q12 0 24 -4.5t22 -13.5t16.5 -22.5t6.5 -30.5q0 -7 -1.5 -17t-6.5 -24q26 9 47 34t47 64q94 -70 94 -171zM169 51q0 -23 -17 -38.5t-40 -15.5q-25 0 -41 15.5t-16 38.5
t16 38.5t41 15.5q23 0 40 -15.5t17 -38.5z" />
    </font>
</defs>
</svg>
